SplineFontDB: 1.0
FontName: TimesGothic
FullName: Times Gothic
FamilyName: Times
Weight: Medium
Copyright: Created by Egil Möller with PfaEdit 1.0 (http://pfaedit.sf.net)
Comments: 2002-5-11: Created.
Version: 001.000
ItalicAngle: 0
UnderlinePosition: -100
UnderlineWidth: 50
Ascent: 800
Descent: 200
FSType: 0
PfmFamily: 17
TTFWeight: 500
TTFWidth: 5
Panose: 2 2 6 3 6 6 0 6 0 0
LineGap: 90
VLineGap: 90

Encoding: iso8859_1
DisplaySize: -24
AntiAlias: 1
BeginChars: 512 241
StartChar: exclam
Encoding: 33 33
Width: 295
Flags: W
VStem: 55.4883 76.3567<99 131 179 211> 70.1426 71.6614<622 657>
Fore
98.6465 -156.378 m 1
 99.8008 -158.936 101.966 -164.283 101.966 -156.378 c 1
 98.6465 -156.378 l 1
101.966 -85.1982 m 0
 81.6221 -92.9951 56.3643 -99.4902 46.9658 -123.238 c 0
 36.2637 -150.275 46.8652 -196.907 75.4072 -204.276 c 0
 85.1885 -206.493 99.3525 -201.783 108.605 -198.062 c 0
 129.659 -189.596 161.541 -164.783 164.154 -137.955 c 0
 166.599 -112.792 144.994 -102.75 128.524 -92.7471 c 0
 120.598 -87.9326 111.442 -81.5674 101.966 -85.1982 c 0
5.69141 2.05859 m 1
 48.2334 11.0869 92.0068 4.36816 134.869 12.3965 c 0
 144.135 14.1309 169.144 8.91992 174.418 18.9561 c 0
 177.035 23.9248 173.828 28.9375 170.566 32.2363 c 0
 158.403 44.0312 146.687 48.2236 138.387 64.6963 c 0
 120.602 100.02 131.776 148.207 131.845 186.287 c 0
 131.845 218.142 137.21 247.337 141.11 278.4 c 0
 142.789 291.786 141.269 305.478 141.804 318.931 c 0
 144.138 351.959 147.665 385.253 148.395 418.414 c 0
 150.158 498.272 137.174 578.056 141.804 657.91 c 0
 144.223 692.263 146.621 718.13 166.067 746.124 c 0
 172.895 755.958 198.24 770.88 193.786 785.7 c 0
 189.856 797.924 167.409 794.239 158.403 794.041 c 0
 127.306 792.886 96.5264 798.704 65.4482 797.866 c 0
 56.6592 797.632 37.9717 797.924 32.25 788.381 c 0
 28.9297 781.883 33.3525 774.312 36.8955 769.124 c 0
 46.9521 754.393 58.0859 747.517 61.1299 727.913 c 0
 64.7607 704.528 69.6299 677.837 70.1426 654.226 c 0
 71.0273 613.678 62.1279 573.165 66.0117 532.636 c 0
 69.8867 487.431 64.7441 444.206 62.1279 399.361 c 0
 60.8311 367.697 63.2949 335.864 61.999 304.192 c 0
 61.4316 290.347 57.3887 277.357 56.0654 263.662 c 0
 53.5205 237.28 54.96 209.113 55.4883 182.603 c 0
 55.4883 160.297 55.4883 138.388 55.4883 116.28 c 0
 55.4688 103.326 57.2588 88.3398 53.7832 75.75 c 0
 49.4453 60.1514 34.4834 46.2734 22.29 38.3496 c 0
 15.6504 33.8916 3.74902 31.5352 0.640625 23.0615 c 0
 -1.88477 15.8037 2.93848 8.2041 5.69141 2.05859 c 1
EndSplineSet
MinimumDistance: x14,-1 
EndChar
StartChar: quotedbl
Encoding: 34 34
Width: 361
Flags: W
Fore
169.187 792.536 m 5
 161.671 780.268 151.734 763.656 151.854 749.216 c 4
 152.067 722.396 181.302 685.795 202.486 671.052 c 4
 212.199 664.35 235.787 643.222 248.78 649.596 c 4
 256.823 653.559 252.74 663.881 249.362 669.476 c 4
 241.431 682.607 218.616 687.847 214.353 702.286 c 4
 211.068 713.116 224.644 723.541 230.648 731.166 c 4
 246.226 750.943 252.39 775.925 228 792 c 4
 222.591 795.564 216.398 798.064 209.887 798.79 c 4
 196.186 799.756 180.287 787.682 169.187 792.536 c 5
22.5381 790.37 m 5
 15.0225 778.102 5.08594 761.49 5.20508 747.05 c 4
 5.41895 720.229 34.6533 683.629 55.8379 668.886 c 4
 65.5508 662.184 89.1387 641.056 102.132 647.43 c 4
 110.175 651.393 106.092 661.715 102.714 667.31 c 4
 94.7822 680.441 71.9678 685.681 67.7041 700.12 c 4
 64.4199 710.95 77.9951 721.375 84 729 c 4
 99.5771 748.777 105.741 773.759 81.3516 789.834 c 4
 75.9424 793.398 69.75 795.898 63.2383 796.624 c 4
 49.5371 797.59 33.6387 785.516 22.5381 790.37 c 5
EndSplineSet
EndChar
StartChar: numbersign
Encoding: 35 35
Width: 829
Flags: W
HStem: 185.889 21.795<167 205> 191.171 23.6407<478 502 523 543> 400.054 29.2134<237 303 574 584> 403.048 244.169<565 573>
Fore
175.478 -72.0186 m 1
 160.898 -77.4961 148.993 -101.362 168.572 -109.773 c 0
 176.752 -113.161 185.835 -111.117 194.203 -110.76 c 0
 207.687 -110.174 221.095 -113.253 234.17 -108.344 c 0
 261.496 -97.7158 277.835 -68.3857 291.386 -42.959 c 0
 316.483 3.49805 336.632 54.2178 358.46 102.342 c 0
 372.27 132.082 391.74 163.82 396.438 196.786 c 1
 375.699 195.066 355.008 191.345 334.292 189.521 c 0
 314.403 188.415 291.268 190.671 272.923 180.395 c 0
 256.992 171.359 252.4 140.163 244.527 124.137 c 2
 186.729 4.26367 l 2
 174.001 -21.8623 162.399 -44.0762 175.478 -72.0186 c 1
275.6 207.684 m 1
 361.912 214.332 l 1
 402.392 220.451 l 1
 428.306 269.437 l 1
 455.13 334.062 l 1
 496.56 411.104 l 1
 406.795 407.472 l 1
 370.537 403.739 l 1
 340.442 345.719 l 1
 275.6 207.684 l 1
386.08 429.267 m 1
 510.37 432.898 l 1
 525.565 501.916 582.684 560.036 582.872 632.687 c 1
 500.599 628.983 l 1
 479.176 613.729 l 1
 440.103 580.146 l 1
 408.959 494.651 l 1
 386.08 429.267 l 1
341.197 647.217 m 1
 375.723 603.499 l 1
 369.744 573.949 l 1
 331.821 469.224 l 1
 309.666 427.826 l 1
 237.622 427.372 l 1
 189.287 429.267 l 1
 192.74 438.688 212.12 476.229 192.096 478.139 c 0
 181.404 479.156 174.018 465.592 168.572 458.273 c 0
 154.722 437.727 141.644 416.229 126.488 396.574 c 0
 122.021 390.781 106.428 375.744 116.097 367.514 c 0
 121.275 363.438 129.051 367.514 134.047 370.004 c 0
 148.744 377.021 161.587 386.979 175.478 395.379 c 0
 194.965 407.166 213.131 402.048 234.17 400.206 c 0
 258.158 398.806 282.505 400.206 306.672 400.206 c 1
 269.949 316.659 l 1
 254.258 276.701 l 1
 223.812 207.684 l 1
 147.857 207.684 l 1
 99.5225 211.316 l 1
 102.924 222.083 110.604 235.438 108.457 247.12 c 0
 105.328 264.13 82.9238 261.079 73.6729 252.104 c 0
 66.707 245.339 64.6973 234.389 60.3242 225.847 c 0
 52.2734 210.132 42.9746 193.863 32.6875 179.66 c 0
 27.0195 172.075 4.54492 149.248 21.2275 141.522 c 0
 37.377 133.867 53.042 159.479 64.9971 167.244 c 0
 89.165 183.179 116.785 185.595 144.405 178.624 c 1
 160.137 192.537 186.843 185.889 206.55 185.889 c 1
 202.028 166.049 191.891 149.482 183.238 131.401 c 0
 167.379 98.2588 150.831 65.9033 134.047 33.3242 c 0
 115.908 -2.32324 106.428 -42.959 89.0166 -79.2832 c 0
 78.3486 -101.465 61.0186 -102.497 40.8301 -110.277 c 0
 33.9248 -112.863 27.7148 -117.605 30.0918 -126.506 c 0
 33.0078 -136.651 45.8672 -138.844 54.6396 -139.639 c 0
 77.4785 -141.692 97.9648 -130.139 120.237 -127.138 c 0
 154.763 -123.374 192.74 -132.405 227.265 -136.733 c 0
 242.1 -138.603 257.191 -136.041 272.013 -137.872 c 0
 280.381 -138.904 288.129 -143.696 296.314 -143.441 c 0
 305.938 -143.161 314.575 -138.407 323.935 -137.925 c 0
 333.247 -137.442 342.283 -140.33 351.555 -141.036 c 0
 358.46 -141.036 389.272 -138.936 382.021 -124.459 c 0
 377.935 -116.308 366.043 -112.675 359.805 -106.421 c 0
 350.445 -97.4463 346.842 -87.9141 334.292 -82.916 c 1
 344.394 -46.5908 364.374 -11.2236 381.559 22.4268 c 0
 394.748 47.8535 405.992 75.8037 417.907 102.342 c 0
 429.169 127.425 437.108 165.25 456.475 184.736 c 0
 472.393 200.419 506.917 191.604 527.633 191.171 c 0
 537.062 190.973 545.934 193.101 555.249 190.451 c 0
 563.543 188.096 573.719 183.7 577.721 174.991 c 0
 584.736 159.982 567.046 138.007 562.157 124.137 c 1
 593.229 112.661 603.493 160.078 615.146 182.257 c 0
 620.85 193.154 627.755 204.052 634.66 214.949 c 1
 634.66 218.581 l 1
 627.755 225.847 l 1
 634.113 227.233 640.833 228.266 644.475 234.761 c 0
 650.877 246.169 641.564 254.761 631.14 253.92 c 0
 607.04 252.065 591.153 225.847 569.062 218.581 c 0
 538.88 209.227 500.013 214.949 468.939 214.949 c 1
 533.927 345.719 l 1
 565.609 403.048 l 1
 593.229 403.839 l 1
 645.018 400.206 l 1
 645.018 385.677 l 1
 670.482 381.477 662.28 363.226 662.28 342.086 c 1
 692.271 344.517 691.809 373.324 706.609 394.481 c 0
 715.82 407.472 731.33 419.675 737.951 434.438 c 0
 741.688 442.86 737.412 453.711 729.661 458.015 c 0
 722.749 461.849 716.306 457.798 710.602 453.591 c 0
 696.805 443.438 685.133 432.898 669.185 426.907 c 0
 641.059 415.354 602.222 429.008 572.515 429.267 c 1
 585.894 472.526 606.757 512.768 626.773 552.757 c 0
 634.66 569.079 640.388 585.383 652.522 599.362 c 0
 658.827 606.659 666.868 614.523 676.09 617.167 c 0
 696.674 621.583 715.109 614.523 724.425 639.951 c 1
 631.207 650.849 l 1
 341.197 647.217 l 1
EndSplineSet
EndChar
StartChar: dollar
Encoding: 36 36
Width: 654
Flags: W
HStem: 778.722 28.5677<353 354>
Fore
342.801 434.853 m 1
 338.261 388.183 l 1
 342.801 345.103 l 1
 338.261 276.893 l 1
 338.261 244.583 l 1
 342.801 187.143 l 1
 347.341 172.783 l 1
 342.801 104.573 l 1
 347.341 79.4424 l 1
 365.501 79.4424 l 1
 370.041 75.8525 l 1
 406.361 100.982 l 1
 410.901 97.3926 l 1
 441.648 126.112 l 1
 447.221 194.323 l 1
 446.445 302.022 l 1
 424.521 384.593 l 1
 342.801 434.853 l 1
306.481 521.013 m 1
 306.481 585.633 309.895 649.766 306.145 714.873 c 0
 305.337 728.844 310.125 770.367 291.42 777.312 c 0
 280.146 781.494 263.919 777.852 256.488 770.258 c 0
 250.299 763.938 249.159 755.081 243.994 748.206 c 0
 227.195 725.643 206.601 709.617 202.061 682.562 c 0
 196.288 644.724 188.441 599.169 223.64 567.683 c 0
 235.158 557.891 251.469 553.207 265.621 545.768 c 0
 279.241 538.24 292.387 528.192 306.481 521.013 c 1
274.701 901.553 m 1
 297.401 865.601 l 1
 301.941 804.623 l 1
 290.755 807.757 277.845 814.078 265.621 812.493 c 0
 252.963 810.856 242.921 802.478 230.596 801.033 c 0
 216.719 800.223 203.476 806.923 189.687 801.947 c 0
 173.478 796.093 168.056 777.123 156.661 766.98 c 0
 140.562 752.428 120.075 741.784 105.816 725.643 c 0
 78.417 694.63 69.709 643.072 81.6582 607.173 c 0
 101.929 546.143 165.059 515.456 229.301 485.039 c 0
 250.6 474.953 278.674 470.753 295.433 455.629 c 0
 320.101 432.262 303.595 396.727 301.941 370.232 c 0
 301.258 354.491 305.927 339.234 306.414 323.562 c 0
 307.262 296.182 303.967 268.279 307.253 240.993 c 0
 310.338 215.386 316.342 187.143 312.883 162.013 c 0
 310.458 144.062 311.021 126.112 311.017 108.163 c 0
 310.945 99.5488 312.284 88.249 303.745 81.623 c 0
 290.476 71.3301 265.621 79.4424 252.001 84.6592 c 0
 211.141 99.1279 189.789 126.061 185.785 162.013 c 0
 183.786 179.963 196.439 195.823 215.681 204.773 c 0
 223.542 208.416 250.396 211.964 247.461 222.419 c 0
 245.031 233.757 199.805 233.266 188.441 233.673 c 0
 130.658 235.744 56.7812 251.503 2.30078 233.812 c 1
 2.30078 226.633 l 1
 14.9854 222.016 40.0088 224.648 49.0977 217.146 c 0
 56.7812 210.758 53.0566 198.729 54.7549 190.732 c 0
 57.9912 175.518 65.1914 160.306 76.3105 147.652 c 0
 95.8721 125.401 121.875 112.556 147.403 95.1875 c 0
 165.741 82.3174 181.458 66.8633 202.061 55.4102 c 0
 224.438 42.9678 248.44 41.7236 274.701 39.3535 c 0
 286.131 38.3262 304.313 37.2393 310.418 28.0576 c 0
 324.029 7.58984 285.431 -3.12695 272.95 -13.2139 c 0
 265.621 -19.1836 266.445 -28.2568 265.621 -35.4375 c 1
 279.147 -38.4102 292.364 -41.8213 306.481 -39.29 c 0
 330.205 -35.4375 365.182 -18.2168 388.201 -31.8477 c 1
 398.611 -28.2568 426.791 -13.8975 404.898 -5.28027 c 0
 381.355 3.77539 358.283 -9.28711 351.349 18.4131 c 0
 350.285 22.6582 350.228 27.7451 352.781 31.6895 c 0
 367.168 53.8496 415.056 45.4111 438.141 52.5879 c 0
 468.285 61.4932 486.192 90.1045 515.321 97.3926 c 1
 510.781 108.163 l 1
 528.941 108.163 l 1
 555.986 154.833 l 1
 575.826 212.272 l 1
 578.881 269.713 l 1
 560.721 323.531 518.917 372.273 464.091 407.647 c 0
 422.69 434.348 365.501 456.035 341.027 495.879 c 0
 331.935 510.243 337.44 530.545 338.035 546.143 c 0
 339.374 582.043 339.835 617.942 342.38 653.843 c 0
 344.53 683.888 340.207 717.063 337.857 747.183 c 0
 336.913 759.338 332.116 775.142 351.881 778.722 c 0
 372.125 782.29 410.901 777.533 426.507 766.114 c 0
 433.601 760.302 436.522 750.772 440.225 743.589 c 0
 457.733 707.692 454.984 668.146 401.821 653.843 c 1
 408.179 623.73 444.761 644.117 469.677 645.383 c 0
 483.541 646.108 488.081 633.621 501.497 633.509 c 0
 517.444 633.376 524.192 643.914 542.561 640.756 c 0
 556.181 638.379 595.152 625.081 605.505 638.062 c 0
 610.298 644.072 604.964 651.658 601.581 657.422 c 0
 595.977 671.18 587.699 683.562 580.508 696.923 c 0
 560.202 734.856 531.557 756.533 488.081 779.381 c 0
 477.325 785.428 469.394 794.961 456.234 798.869 c 0
 442.251 803.024 425.536 800.542 410.901 801.646 c 0
 385.106 803.585 359.68 807.792 333.721 808.213 c 1
 342.801 857.961 l 1
 372.28 890.32 l 1
 347.319 904.41 l 1
 274.701 901.553 l 1
EndSplineSet
EndChar
StartChar: percent
Encoding: 37 37
Width: 703
Flags: W
HStem: 165.194 117.216<463 467>
Fore
457.927 280.523 m 0
 437.466 270.102 418.397 249.513 418.465 221.501 c 0
 418.554 185.251 445.228 152.626 476.733 169.657 c 0
 498.702 181.371 522.397 209.772 520.27 239.622 c 0
 518.352 266.473 479.883 291.714 457.927 280.523 c 0
163.089 576.75 m 1
 173.745 601.378 205.705 614.904 210.138 645.625 c 0
 213.023 665.629 193.141 675.386 181.908 681.875 c 0
 172.499 687.259 157.726 704.856 144.27 696.375 c 0
 135.687 690.966 136.594 678.041 131.724 671 c 0
 128.127 665.807 122.313 666.894 119.177 660.125 c 0
 108.496 637.907 92.3721 582.24 125.45 569.5 c 0
 134.376 565.875 149.352 570.25 156.816 573.125 c 1
 159.952 580.375 l 1
 163.089 576.75 l 1
439.107 790.624 m 1
 461.063 776.124 l 1
 451.653 757.999 l 1
 478.397 766.765 464.2 738.897 455.688 724.759 c 0
 434.758 691.071 395.195 658.716 388.922 616.625 c 1
 392.059 616.625 l 1
 417.151 652.875 l 1
 401.469 621.128 381.702 594.266 361.912 565.875 c 0
 355.894 557.24 338.574 540.5 354.42 536.875 c 1
 311.488 465.911 l 1
 304.234 442.625 l 1
 276.637 391.875 l 1
 256.147 366.5 l 1
 175.636 232.991 l 1
 123.364 149.001 l 1
 87.8115 98.251 l 1
 97.2207 98.251 l 1
 56.4453 39.791 l 1
 31.3535 25.751 l 1
 28.2168 25.751 l 2
 15.1406 34.1338 7.80176 16.7168 3.12402 4.00098 c 1
 28.2168 -10.499 l 1
 43.8994 0.375977 l 1
 43.8994 -3.24902 l 1
 47.0361 4.00098 l 1
 56.4453 0.375977 l 1
 87.8115 1.38867 l 1
 144.27 14.667 l 1
 200.728 14.876 l 1
 189.939 40.251 159.952 44.7578 159.952 76.501 c 1
 179.893 74.5254 183.991 95.6592 192.736 112.751 c 0
 214.634 155.554 237.23 196.126 262.862 236.001 c 0
 280.196 263.422 295.349 292.283 312.496 319.361 c 0
 325.958 340.619 341.874 358.616 354.42 381 c 0
 369.496 407.466 379.08 437.276 392.965 464.361 c 0
 402.807 483.562 415.219 500.625 425.921 519.366 c 0
 450.661 562.207 474.66 605.262 500.644 647.161 c 0
 514.385 669.867 532.381 688.997 547.264 710.875 c 0
 555.16 723.243 561.434 738.529 571.866 749.245 c 0
 581.466 759.423 605.343 764.467 609.26 779.749 c 0
 613.601 797.46 579.162 796.671 570.843 797.312 c 0
 538.794 799.782 509.297 805.124 476.746 804.282 c 0
 461.063 803.758 448.48 808.282 439.107 790.624 c 1
EndSplineSet
EndChar
StartChar: ampersand
Encoding: 38 38
Width: 580
Flags: W
VStem: 27.4701 53.5797<593 609> 298.993 56.1772<657 689>
DStem: 267.95 806.686 267.95 806.686 246.145 803.008 277.295 799.33 433.045 266.093 433.045 266.093 395.665 255.061 433.045 258.737
Fore
367.277 129.026 m 1
 353.266 164.538 l 1
 372.068 191.638 l 1
 433.045 258.737 l 1
 433.045 266.093 l 1
 395.665 255.061 l 1
 373.859 247.565 360.63 231.584 342.71 216.256 c 0
 334.144 208.93 327.135 203.575 320.905 214.607 c 1
 317.79 214.607 l 1
 317.79 188.865 l 1
 299.1 188.865 l 1
 258.604 251.383 l 1
 246.145 260.44 242.848 267.562 243.03 284.48 c 1
 239.915 284.48 l 1
 211.88 313.9 l 1
 208.765 313.9 l 1
 180.729 361.708 l 1
 168.27 361.708 l 1
 158.925 372.74 l 1
 162.7 379.848 166.32 385.716 171.385 391.128 c 0
 174.5 394.806 237.576 469.512 240.441 473.447 c 0
 266.517 501.453 293.861 528.527 316.172 561.197 c 0
 328.227 578.681 342.71 599.33 342.71 622.811 c 1
 358.1 632.98 355.17 648.279 355.17 666.94 c 0
 354.957 692.683 354.087 721 342.71 744.114 c 0
 336.479 757.779 325.899 768.581 317.79 780.942 c 1
 311.56 777.266 l 1
 277.295 799.33 l 1
 267.95 806.686 l 1
 246.145 803.008 l 1
 186.96 803.008 l 1
 168.27 795.652 l 1
 158.925 795.652 l 1
 137.12 791.976 l 1
 140.234 795.652 l 1
 134.556 791.976 130.573 786.649 124.571 783.496 c 0
 110.149 775.908 95.8672 777.266 84.165 762.451 c 0
 79.5137 755.864 77.5176 747.666 73.2627 740.49 c 0
 66.1621 728.793 57.2705 720.433 51.1992 707.393 c 0
 26.9482 655.329 18.2783 582.357 39.3438 527.195 c 0
 53.0146 490.42 71.7051 462.584 92.2109 431.58 c 0
 104.315 413.157 113.548 392.011 124.66 372.74 c 1
 112.732 365.385 108.556 355.333 98.8086 345.834 c 0
 89.2148 335.965 77.8496 331.695 68.5898 321.094 c 0
 55.5029 305.77 46.5137 288.107 36.8037 269.771 c 0
 12.0547 223.036 -2.45605 182.591 0.0595703 126.348 c 0
 1.34668 101.934 9.40527 74.292 19.6045 52.7979 c 0
 25.6855 39.5059 34.8574 30.7324 43.6699 45.4424 c 1
 46.7852 45.4424 l 2
 72.8428 16.6406 101.166 15.8936 134.005 22.1816 c 0
 143.35 23.9922 152.694 23.0977 162.04 26.9404 c 0
 172.964 31.5303 182.604 39.7539 193.189 45.2988 c 0
 210.362 54.2949 227.4 61.6396 243.03 74.2197 c 0
 261.72 89.2822 282.804 116.831 305.33 123.64 c 0
 315.821 126.348 323.509 115.315 330.25 107.942 c 0
 348.733 86.6494 361.399 73.1064 361.399 41.7656 c 1
 352.964 42.5908 344.732 42.9795 337.475 36.6836 c 0
 327.135 27.7373 332.379 13.1641 342.71 8.33008 c 0
 355.17 2.51562 367.469 12.0439 380.09 12.3457 c 0
 404.596 12.9951 429.93 2.36523 454.85 1.3125 c 0
 461.676 1.3125 488.646 -4.39062 486 12 c 0
 485.032 19.7002 476.037 22.2002 470.409 23.3779 c 0
 451.239 28.377 435.782 33.5371 417.47 41.7656 c 1
 423.7 49.1201 l 1
 411.24 71.1855 l 1
 367.277 129.026 l 1
 389.435 89.5723 l 1
224.872 484.261 m 2
 189.175 439.99 l 1
 158.925 416.87 l 1
 145.473 436.568 127.774 452.288 116.002 473.592 c 0
 94.8418 510.79 81.9658 559.582 81.0498 604.423 c 0
 80.7637 621.539 86.4033 669.982 93.5098 685.328 c 0
 102.854 712.349 117.036 723.736 136.591 740.06 c 0
 145.771 747.72 152.646 758.39 162.04 765.845 c 0
 174.5 775.951 188.265 779.244 202.535 784.62 c 1
 230.569 773.588 l 1
 255.49 769.91 l 1
 258.604 769.91 l 1
 258.604 780.942 l 1
 261.72 780.942 l 1
 267.95 757.891 285.539 744.125 293.481 722.1 c 0
 305.33 687.968 299.1 630.086 286.497 597.067 c 0
 279.391 578.681 267.95 562.965 260.062 545.583 c 0
 255.49 536.177 253.72 525.508 249.26 516.163 c 0
 243.03 503.736 233.588 493.847 224.872 484.261 c 2
127.774 361.708 m 1
 121.433 335.254 97.166 321.255 87.9004 295.513 c 0
 79.3857 271.477 79.6045 243.812 77.4082 218.285 c 0
 73.3174 170.478 57.7539 125.241 83.1182 82.0342 c 0
 90.3945 69.1924 100.634 52.7979 115.314 53.7822 c 0
 127.774 54.6113 143.943 60.9248 155.81 66.2725 c 0
 175.412 74.8623 193.189 90.4238 211.88 101.938 c 0
 237.558 117.851 270.175 148.99 283.524 159.445 c 1
 240.971 225.641 l 1
 183.133 316.611 l 1
 146.465 361.708 l 1
 127.774 361.708 l 1
EndSplineSet
MinimumDistance: x4,-1 
EndChar
StartChar: parenleft
Encoding: 40 40
Width: 268
Flags: W
HStem: 774.86 18.2744<177 180>
VStem: 7.46336 53.6987<248 257 277.816 329.066>
Fore
166.013 793.135 m 5
 168.925 793.135 l 5
 177.662 774.86 l 5
 180.575 774.86 l 5
 183.487 793.135 l 5
 168.925 793.135 l 5
 177.662 804.1 l 5
 177.662 811.41 l 5
 174.75 815.065 l 5
 139.8 803.957 124.461 763.816 109.864 727.345 c 4
 99.9326 702.527 87.9297 679.198 77.9893 654.245 c 4
 68.8359 631.272 58.1904 608.722 50.6445 584.8 c 4
 41.7275 556.534 37.6035 526.138 30.9023 497.08 c 4
 23.1064 463.268 14.5625 430.026 11.6504 394.74 c 4
 8.52734 355.92 10.4668 317.035 8.65527 277.78 c 4
 5.74219 214.621 4.71582 153.432 17.4746 91.375 c 4
 23.2998 63.5879 27.9102 34.1621 36.082 7.30957 c 4
 47.3652 -29.7646 63.8984 -63.3232 77.9893 -98.6846 c 4
 83.3984 -112.263 93.7686 -155.494 110.351 -151.886 c 4
 115.274 -150.812 116.156 -144.001 116.418 -138.89 c 4
 117.108 -125.49 108.77 -113.772 104.201 -102.34 c 4
 96.1123 -82.7227 86.459 -61.0645 81.2256 -40.2051 c 4
 71.4697 -1.30664 68.7627 40.1338 66.9053 80.4102 c 4
 66.1113 97.6494 62.9229 114.048 64.0752 131.58 c 4
 64.7998 140.746 69.2344 148.021 69.252 157.165 c 4
 69.3174 190.06 61.8877 222.955 61.1621 255.85 c 4
 59.3076 339.594 68.2646 422.027 77.9893 504.39 c 4
 83.0029 546.854 85.2188 591.314 95.7881 632.212 c 4
 100.99 652.346 110.675 671.856 118.602 690.795 c 4
 126.312 709.88 131.062 730.683 139.8 749.275 c 4
 143.873 758.291 147.562 768.686 153.47 776.077 c 4
 159.224 783.272 164.192 782.859 166.013 793.135 c 5
EndSplineSet
MinimumDistance: x25,-1 
EndChar
StartChar: asterisk
Encoding: 42 42
Width: 613
Flags: W
HStem: 399.052 19.8545<308.365 474.443>
VStem: 223.218 73.8555<278 347>
DStem: 138.118 319.356 160.314 302.167 101.118 295.638 123.318 270.572 219.519 397.246 223.218 357.536 138.118 319.356 160.314 302.167 297.218 368.366 308.318 400.856 337.918 339.486 411.918 323.46 312 621 312 621 263.918 619.617 329.868 615.334 519.218 285.337 519.218 285.337 464.347 279.379 519.218 281.727
Fore
27.1182 440.566 m 5
 28.4043 438.06 30.8184 432.824 30.8184 440.566 c 5
 27.1182 440.566 l 5
108.519 527.206 m 5
 109.805 524.7 112.218 519.465 112.218 527.206 c 5
 108.519 527.206 l 5
234.318 635.507 m 5
 222.376 624.172 l 5
 196.396 616.096 l 5
 207.992 599.406 l 5
 229.068 570.526 l 5
 226.918 458.616 l 5
 149.218 532.529 l 5
 102.166 566.916 l 5
 101.118 603.017 l 5
 75.2178 592.962 75.8359 574.137 60.418 554.557 c 4
 56.7178 549.561 46.7236 536.943 55.4531 531.437 c 4
 63.2871 526.498 72.8916 536.56 80.9014 536.411 c 4
 87.8359 536.284 93.1182 530.376 98.5312 526.935 c 4
 108.519 519.986 119.618 518.728 127.019 509.156 c 5
 160.264 488.103 l 5
 219.519 422.517 l 5
 97.418 422.421 l 5
 49.3184 418.86 l 5
 30.8184 447.786 l 5
 4.91797 436.956 l 5
 4.91797 361.146 l 5
 56.7178 392.702 l 5
 186.218 400.666 l 5
 219.519 397.246 l 5
 138.118 319.356 l 5
 101.118 295.638 l 5
 56.7178 299.776 l 5
 80.0781 253.672 l 5
 119.618 242.017 l 5
 123.318 270.572 l 5
 160.314 302.167 l 5
 223.218 357.536 l 5
 223.218 270.896 l 5
 220.988 229.851 l 5
 197.318 213.137 l 5
 202.29 197.759 215.103 193.669 230.618 190.024 c 4
 250.245 185.42 270.086 189.04 289.814 190.133 c 4
 308.318 191.181 323.118 187.866 341.618 195.087 c 5
 299.397 231.187 l 5
 297.073 278.116 l 5
 297.218 368.366 l 5
 337.918 339.486 l 5
 368.941 334.248 400.189 302.082 421.778 281 c 4
 430.086 272.892 442.631 264.77 444.965 252.794 c 4
 448.015 237.151 435.604 221.125 426.718 209.526 c 5
 426.718 205.916 l 5
 449.894 195.087 461.099 219.056 467.418 238.406 c 5
 485.918 240.151 495.276 252.667 493.318 270.896 c 5
 519.218 281.727 l 5
 519.218 285.337 l 5
 464.347 279.379 l 5
 411.918 323.46 l 5
 308.318 400.856 l 5
 474.489 399.052 l 5
 496.751 388.969 l 5
 511.023 366.005 l 5
 524.118 386.416 l 5
 519.218 455.007 l 5
 502.886 448.604 502.771 434.623 500.718 418.906 c 5
 297.218 422.517 l 5
 307.39 438.804 323.118 445.668 336.188 459.283 c 4
 361.976 486.39 382.318 529.237 418.689 545.211 c 4
 430.18 550.298 443.968 545.257 456.318 548.866 c 5
 444.351 572.07 424.019 582.615 400.818 593.448 c 4
 389.122 599.146 381.107 605.128 367.519 606.627 c 5
 397.118 566.916 l 5
 300.918 483.887 l 5
 304.029 535.04 l 5
 305.362 578.72 l 5
 329.868 615.334 l 5
 312 621 l 5
 263.918 619.617 l 5
 234.318 635.507 l 5
EndSplineSet
MinimumDistance: x52,-1 
EndChar
StartChar: plus
Encoding: 43 43
Width: 568
Flags: W
HStem: 196.847 32.763<309 328.183> 198.697 25.239<82 98> 201.79 27.8206<370 386>
VStem: 140.505 144.007<435 439> 158.117 69.8488<28 44>
Fore
141.1 166.83 m 1
 142.386 164.323 144.8 159.089 144.8 166.83 c 1
 141.1 166.83 l 1
39.5996 218.78 m 1
 32.2002 226 l 1
 35.9004 233.22 l 1
 29.6416 239.64 24.7422 256.643 16.1611 259.385 c 0
 6.2998 262.1 2.59961 250.883 2.06152 243.983 c 0
 0.551758 225.257 2.25293 205.116 2.59961 186.29 c 0
 2.59961 179.07 1.92773 169.385 8.46484 164.631 c 0
 20.7422 156.603 33.9346 185.433 43.2998 189.9 c 0
 65.5 202.344 103.577 198.974 128.4 196.504 c 0
 137.797 195.569 151.965 194.409 156.883 185.155 c 0
 162.754 174.103 158 155.023 158 142.97 c 0
 157.714 117.7 154.299 92.0098 155.586 67.1602 c 0
 156.308 48.666 162.578 27.0273 153.122 9.40039 c 0
 144.439 -6.39355 125.379 0.365234 116.751 -11.4043 c 0
 111.435 -18.6484 118.622 -26.6992 124.7 -29.668 c 0
 144.023 -40.0957 174.657 -33.0283 195 -30.3096 c 0
 215.747 -27.5391 233.488 -26.6992 254.2 -28.7197 c 0
 260.725 -29.5371 271.522 -31.3281 275.75 -24.7188 c 0
 279.504 -18.8486 272.7 -14.04 268.436 -11.5332 c 0
 253.658 -3.45996 237.268 -1.42969 230.533 16.6201 c 0
 224.586 32.1025 229.492 51.3936 231.428 67.1602 c 0
 234.699 93.8262 234.157 119.907 235.7 146.58 c 0
 236.888 158.76 237.094 178.47 247.977 186.29 c 0
 257.9 193.51 275.402 194.638 287.5 196.088 c 0
 301.032 197.12 314.654 196.475 328.2 197.733 c 0
 353.497 200.082 384.621 206.279 409.386 197.12 c 0
 425.552 191.514 421.588 178.108 426.004 164.631 c 0
 428.099 158.52 434.271 153.359 441.458 157.41 c 0
 448.742 162.141 449.653 171.564 450.137 179.07 c 0
 451.171 195.051 450.299 210.168 454 226 c 0
 456.305 236.83 461.4 250.558 456.189 261.413 c 0
 451.503 270.307 439.2 276.54 431.554 267.973 c 0
 423.247 258.479 421.762 241.487 420.7 229.61 c 1
 309.555 229.518 l 1
 243.099 226 l 1
 250.164 363.842 l 1
 254.2 428.16 l 1
 265.26 426.034 298.599 429.725 278.853 446.21 c 0
 261.556 460.65 222.584 452.422 202.4 449.03 c 0
 187.455 446.21 153.32 458.528 143.2 444.508 c 0
 134.21 431.622 149.292 421.564 156.276 412.786 c 0
 161.7 405.682 165.226 397.179 167.181 388.45 c 0
 175.531 351.197 165.4 310.518 165.4 272.93 c 0
 165.273 259.795 169.099 238.638 161.598 227.149 c 0
 153.49 215.171 136.584 219.997 124.7 221.357 c 0
 97.7988 224.445 65.5 226 39.5996 218.78 c 1
EndSplineSet
EndChar
StartChar: comma
Encoding: 44 44
Width: 209
Flags: W
Fore
78.4307 28.2881 m 1
 74.8652 3.5752 62.002 -30.4365 45.4053 -48.8086 c 0
 28.1689 -68.4971 7.13086 -75.1973 0 -102 c 1
 20.0918 -105.723 31.5254 -94.5547 46.3418 -81.1914 c 0
 79.6104 -51.79 97.7695 -12.6602 106.236 32.0107 c 0
 109.196 46.9004 116.444 69.0459 109.739 84.1074 c 0
 91.9561 124.04 35.6504 106.369 22.5635 72.9541 c 0
 18.7588 63.543 13.9023 50.1543 15.7266 39.4551 c 0
 21.3906 5.95312 60.376 16.0371 78.4307 28.2881 c 1
EndSplineSet
EndChar
StartChar: hyphen
Encoding: 45 45
Width: 568
Flags: W
HStem: 201.232 32.6765<310 329.483> 203.075 25.2486<83 99> 206.166 27.7424<371 387>
Fore
249.277 190.68 m 0
 259.2 197.9 276.702 199.028 288.8 200.479 c 0
 302.332 201.51 315.954 200.865 329.5 202.123 c 0
 354.797 204.472 385.921 210.669 410.686 201.51 c 0
 426.852 195.904 422.888 182.498 427.304 169.021 c 0
 429.399 162.91 435.571 157.749 442.758 161.8 c 0
 450.042 166.531 450.953 175.954 451.438 183.46 c 0
 452.471 199.441 451.599 214.558 455.3 230.39 c 0
 457.605 241.22 462.7 254.948 457.489 265.803 c 0
 452.803 274.697 440.5 280.93 432.854 272.363 c 0
 424.547 262.869 423.062 245.877 422 234 c 1
 310.855 233.908 l 1
 244.399 230.39 l 0
 236.291 218.411 137.884 224.387 126 225.747 c 0
 99.0986 228.835 66.7998 230.39 40.8994 223.17 c 1
 33.5 230.39 l 1
 37.2002 237.61 l 1
 30.9414 244.03 26.042 261.033 17.4609 263.775 c 0
 7.59961 266.49 3.89941 255.273 3.36133 248.373 c 0
 1.85156 229.647 3.55273 209.506 3.89941 190.68 c 0
 3.89941 183.46 3.22754 173.775 9.76465 169.021 c 0
 22.042 160.993 35.2344 189.823 44.5996 194.29 c 0
 66.7998 206.734 104.877 203.364 129.7 200.894 c 0
 139.097 199.959 244.359 199.934 249.277 190.68 c 0
EndSplineSet
EndChar
StartChar: period
Encoding: 46 46
Width: 123
Flags: W
Fore
31 118 m 0
 12.1865 107.276 -1.97949 84.5703 0.412109 61.2168 c 0
 2.48047 35.1602 26.0322 17.7764 48.8252 30.7646 c 0
 66.6504 41.1289 86.1602 60.3994 85.248 83.5488 c 0
 84.3047 107.49 53.6123 130.829 31 118 c 0
EndSplineSet
EndChar
StartChar: slash
Encoding: 47 47
Width: 694
Flags: W
DStem: 576.555 794.321 576.555 794.321 448.649 786.304 634.536 789.83
Fore
4.14941 33.1055 m 5
 7.32422 -4.16309 l 5
 54.9492 7.75781 l 5
 131.149 11.0537 l 5
 201 15 l 5
 201 18.6211 l 5
 188.3 25.7822 158.479 35.4043 155.771 53.3545 c 4
 154.531 61.5977 162.282 70.3916 165.997 76.5596 c 4
 176.267 93.6572 187.286 110.118 197.385 127.255 c 4
 229.574 181.572 261.036 237.148 292.817 292.293 c 4
 304.525 312.605 316.016 346.349 334.35 359.009 c 5
 354.379 402.463 l 5
 397.85 474.886 l 5
 449.602 554.551 l 5
 500.963 617.157 l 5
 544.994 692.154 l 5
 572.475 731.987 l 5
 607.399 755.475 l 5
 634.824 771.247 l 5
 634.536 789.83 l 5
 576.555 794.321 l 5
 448.649 786.304 l 5
 461.35 757.335 l 5
 480.399 757.335 l 5
 479.727 731.453 466.989 715.975 454.19 695.775 c 4
 435.949 667.527 419.473 637.837 403.186 608.868 c 4
 365.418 540.066 321.618 476.81 282.25 409.705 c 4
 260.178 372.082 240.981 332.158 220.05 293.828 c 4
 204.175 264.858 180.89 242.1 169.25 210.542 c 5
 162.899 217.784 l 5
 159.725 217.784 l 5
 150.199 206.921 l 5
 146.32 187.471 130.043 172.657 120.449 156.225 c 4
 90.4795 104.889 59.1289 50.2568 4.14941 33.1055 c 5
EndSplineSet
MinimumDistance: x18,-1 
EndChar
StartChar: zero
Encoding: 48 48
Width: 282
Flags: W
VStem: 11.0088 220.19<131.775 235.312>
Fore
148.77 338.85 m 1
 134.718 337.769 115.266 344.613 103.466 333.319 c 0
 79.5156 310.389 77.9521 272.963 74.3848 240.689 c 0
 69.5449 195.248 62.4746 152.978 63.3652 106.675 c 0
 63.9004 82.1172 62.5098 51.3857 80.4873 33.7891 c 0
 88.1602 25.9277 97.2969 25.0996 107.445 25.8564 c 0
 117.359 26.5801 128.963 27.7227 137.494 34.0654 c 0
 154.167 46.4561 163.097 74.5127 171.479 94.125 c 0
 178.523 110.6 180.187 126.585 183.098 144.325 c 0
 184.585 153.535 187.34 162.938 186.837 172.439 c 0
 185.986 182.569 179.981 190.508 179.075 200.8 c 0
 176.891 233.327 179.075 266.688 169.295 298.06 c 0
 164.366 313.141 153.922 323.892 148.77 338.85 c 1
129.485 364.581 m 0
 117.09 362.461 101.935 361.563 90.915 354.259 c 0
 68.6709 339.466 51.8125 308.397 41.3252 282.375 c 0
 23.1084 234.467 11.5361 184.202 11.0088 131.775 c 0
 10.6221 93.3555 13.7754 65.8877 34.7949 34.5127 c 0
 41.1582 24.8057 47.7012 13.7881 57.8555 8.96777 c 0
 73.833 1.43066 96.4248 7.24902 112.955 9.94531 c 0
 122.579 11.5205 136.738 12.4307 145.439 17.1885 c 0
 151.525 20.7705 156.863 28.2373 162.545 33.0693 c 0
 173.466 41.4922 186.103 49.0391 194.773 60.1885 c 0
 200.305 67.3125 202.581 76.4824 206.487 84.7129 c 0
 229.281 132.756 232.459 181.721 231.199 235.312 c 0
 230.333 272.096 229.187 301.2 210.798 332.575 c 0
 202.234 347.181 194.551 359.112 179.075 363.95 c 0
 168.854 367.961 159.109 363.95 148.77 363.95 c 0
 142.439 363.944 135.768 365.653 129.485 364.581 c 0
EndSplineSet
MinimumDistance: x23,-1 
EndChar
StartChar: one
Encoding: 49 49
Width: 241
Flags: W
VStem: 55.7874 60.5437<71.4976 101.017> 63.9502 59.9502<216.84 273.18> 64.1798 64.9276<282.584 298.082>
Fore
12.1748 295.09 m 17
 23.0752 309.185 52.9199 328.49 62.3076 301.209 c 0
 65.2061 292.776 63.9502 282.054 63.9502 273.18 c 0
 63.9502 252.603 63.9502 232.374 62.1006 211.906 c 0
 58.5 175.331 57.292 137.729 55.7754 101.03 c 0
 55.2852 85.3799 57.2441 65.9121 53.0498 50.9502 c 0
 45.4336 21.1387 8.41797 35.9023 4 4 c 1
 19.291 4 35.2705 8.50586 50.3252 8.07422 c 0
 62.6592 7.72266 73.876 0.304688 85.75 -1.21777 c 0
 92.7012 -2.25977 98.0654 3.49219 104.822 3.68848 c 0
 110.275 3.84375 115.092 0.154297 120.397 -0.755859 c 0
 126.426 -2.25977 131.748 0.870117 137.525 2.0498 c 0
 147.212 3.97852 165.595 -4.42383 172.95 4 c 0
 177.854 8.99805 173.671 15.7471 169.56 18.6592 c 0
 163.258 22.7803 155.197 22.4961 148.425 25.5645 c 0
 138.23 30.1865 129.35 40.2793 123.9 50.9502 c 0
 111.209 75.2412 117.673 103.118 120.397 129.2 c 0
 123.445 158.369 123.314 187.533 123.9 216.84 c 0
 124.405 238.664 127.887 260.66 129.107 282.57 c 0
 129.35 292.663 128.035 304.278 132.562 313.467 c 0
 138.379 325.277 169.645 330.993 165.451 346.958 c 0
 163.969 352.604 158.125 353.594 153.824 354.229 c 0
 141.887 356.003 130.326 357.69 118.45 360.321 c 0
 100.628 363.95 81.8545 356.25 63.9502 354.56 c 0
 55.083 354.142 44.875 356.244 36.7002 351.342 c 0
 28.1523 346.163 22.4307 335.624 14.7939 328.768 c 0
 -3.11621 312.699 13.2227 308.561 12.1748 295.09 c 17
EndSplineSet
MinimumDistance: x18,-1 
EndChar
StartChar: two
Encoding: 50 50
Width: 397
Flags: W
HStem: -0.266054 23.9643<96.7352 122.329> 6.77344 23.374<190.955 228> 22.6524 2.73827<-0.59491 0.918558> 337.414 22.0889<185 206>
VStem: 119.13 18.6091<273 287>
Fore
-1.05762 25.3906 m 1
 -0.550781 21.917 0.319336 21.5664 1.6123 25.3906 c 1
 -1.05762 25.3906 l 1
240.92 335.118 m 1
 236.253 314.649 235.978 293.196 226.516 274.188 c 0
 216.188 253.442 198.798 242.106 183.229 225.83 c 0
 172.5 213.258 165.993 198.297 154.369 186.179 c 0
 129.292 160.232 100.72 139.354 76.9199 111.705 c 0
 64.4189 97.1836 51.7217 82.0566 38.4629 68.3252 c 0
 26.1846 55.998 12.4541 46.3086 10.1592 27.083 c 0
 8.55078 12.9746 18.125 6.77344 29.3896 3.38867 c 0
 47.1113 -1.92676 65.7275 0.00292969 83.875 -0.119141 c 0
 130.25 -1.67969 175.383 8.12891 221.689 6.77344 c 0
 248.278 6.7334 275.188 5.09082 301.814 4.23828 c 0
 316.672 3.38867 328.459 0.00292969 343.479 3.38867 c 1
 341.298 12.6709 336.663 21.1201 334.822 30.4688 c 0
 332.644 41.5225 334.494 53.1318 333.564 64.3154 c 0
 333.025 70.7773 332.108 80.5156 325.949 84.0332 c 0
 320.456 87.1699 316.002 82.1025 313.677 77.3389 c 0
 304.303 58.1562 301.464 38.5107 279.38 29.5957 c 0
 261.308 22.2998 240.237 30.1904 221.689 30.1475 c 0
 179.496 30.0488 138.359 23.6982 96.6943 23.6982 c 1
 126.209 63.8721 167.205 94.7832 202.334 129.255 c 0
 215.279 142.173 226.409 158.133 238.503 172.338 c 0
 253.092 189.468 271.58 204.429 279.38 226.798 c 0
 283.53 238.676 281.279 251.674 281.092 264.033 c 0
 280.788 283.824 280.666 307.1 270.879 324.828 c 0
 253.502 356.311 201.968 365.187 170.409 357.088 c 0
 162.751 355.081 157.004 349.581 150.635 344.787 c 0
 126.372 326.511 118.788 309.026 119.13 277.573 c 0
 119.13 260.648 123.442 237.893 141.552 233.198 c 0
 147.687 231.608 155.689 235.198 154.385 243.046 c 0
 153.58 251.115 143.536 256.797 140.319 264.033 c 0
 133.183 280.684 138.103 306.947 149.496 319.995 c 0
 171.972 345.273 211.787 338.149 240.92 335.118 c 1
EndSplineSet
EndChar
StartChar: three
Encoding: 51 51
Width: 412
Flags: W
HStem: -291.681 18.744<187 198>
VStem: 271.581 62.051<261 276> 294.158 62.7548<-70.5489 -38.7605>
Fore
106.303 -220.741 m 1
 109.386 -234.478 l 1
 112.468 -234.478 l 1
 106.303 -220.741 l 1
286.114 -188.692 m 1
 286.581 -191.281 287.145 -191.885 287.145 -188.692 c 2
 286.114 -188.692 l 1
107.33 264.595 m 1
 107.796 262.006 108.359 261.402 108.359 264.595 c 2
 107.33 264.595 l 1
304.609 305.803 m 1
 306.151 301.225 l 1
 304.609 305.803 l 1
97.0557 235.979 m 1
 109.386 229.111 l 1
 109.386 242.848 l 1
 121.716 263.451 l 1
 112.468 270.319 l 1
 129.202 275.393 139.572 291.53 152.541 303.539 c 0
 172.634 321.829 205.545 340.052 232.686 337.939 c 0
 286.133 333.781 273.568 245.473 261.62 208.507 c 0
 258.388 198.205 251.181 190.777 248.099 181.035 c 0
 244.148 169.845 249.089 158.101 240.906 148.523 c 0
 225.389 130.357 195.075 128.667 174.118 125.95 c 0
 158.54 123.932 145.322 124.297 140.211 105.487 c 1
 226.521 111.574 l 1
 278.923 81.4492 l 1
 275.841 57.4121 277.68 26.0928 283.083 2.46777 c 0
 286.286 -11.5361 291.253 -24.2197 293.444 -38.7402 c 0
 295.654 -57.4727 292.105 -75.1055 291.253 -93.6836 c 0
 289.369 -145.194 287.37 -196.704 261.957 -241.346 c 0
 246.954 -267.681 187.282 -287.909 165.852 -261.212 c 0
 158.326 -251.839 158.453 -239.605 158.076 -227.747 c 0
 157.851 -220.741 156.725 -212.097 158.706 -205.393 c 0
 169.943 -174.802 215.26 -194.527 220.355 -158.93 c 1
 87.8076 -162.364 l 1
 65.3516 -161.422 l 1
 35.4053 -156.149 l 1
 16.9102 -176.1 l 1
 29.2402 -193.27 l 1
 38.4883 -189.836 l 1
 41.5703 -196.724 44.2617 -196.724 47.7354 -189.836 c 1
 53.9004 -192.137 62.624 -193.354 67.4736 -198.763 c 0
 79.9902 -212.727 79.3643 -237.912 93.4287 -252.386 c 0
 140.057 -301.263 215.897 -302.443 269.676 -267.57 c 0
 301.6 -246.869 322.078 -203.571 334.408 -165.798 c 0
 351.569 -113.171 365.233 -57.1445 350.94 -0.96582 c 0
 345.549 19.6377 333.68 39.9668 322.078 57.4121 c 0
 304.486 85.5576 279.664 115.025 248.099 122.657 c 1
 274.351 154.684 308.604 172.738 324.547 215.375 c 0
 341.681 261.188 336.802 325.263 293.812 352.125 c 0
 278.646 361.555 252.577 361.012 235.769 359.006 c 0
 186.448 352.735 127.881 325.263 104.626 273.703 c 0
 99.4092 262.264 99.7012 248.323 97.0557 235.979 c 1
EndSplineSet
EndChar
StartChar: four
Encoding: 52 52
Width: 538
Flags: W
HStem: 12.0645 18.1942<322 401>
Fore
272.42 358.92 m 1
 238.218 368.897 220.595 319.078 203.821 294.937 c 0
 190.879 276.311 176.43 257.443 165.275 237.688 c 0
 159.593 227.586 155.934 216.99 149.388 207.381 c 0
 130.09 179.066 106.352 155.875 84.4414 129.928 c 0
 72.7529 116.086 63.3369 100.284 51.9238 86.1494 c 0
 35.3027 65.5664 -5.62012 34.127 1 5.3291 c 1
 128.688 15.4316 l 1
 226.08 5.3291 l 1
 230.938 -33.7988 229.39 -73.1074 229.39 -112.534 c 0
 229.39 -133.848 232.693 -155.01 232.7 -176.518 c 0
 232.7 -197.492 239.087 -227.725 228.799 -247.235 c 0
 212.481 -277.544 170.734 -259.071 156.57 -287.646 c 1
 236.01 -292.415 l 1
 262.49 -280.911 l 1
 322.07 -284.278 l 1
 322.07 -280.911 l 1
 315.45 -277.544 l 1
 368.41 -264.073 l 1
 309.422 -227.03 l 1
 302.21 -156.312 l 1
 312.14 12.0645 l 1
 388.27 12.0645 l 1
 431.158 11.2949 l 1
 457.78 -18.2432 l 1
 473.464 -29.1846 l 1
 484.26 -1.40625 l 1
 483.342 25.4854 l 1
 489.066 49.6797 l 1
 484.26 89.5176 l 1
 464.4 86.1494 466.851 70.8418 457.495 55.8418 c 0
 451.16 46.5391 441.23 42.3721 431.3 38.3467 c 0
 394.327 23.3408 353.674 38.1621 315.45 28.9014 c 1
 312.14 32.2695 l 1
 316.775 52.0732 325.38 95.207 302.21 102.987 c 1
 313.052 224.219 l 1
 319.606 271.364 l 1
 325.38 305.039 l 1
 332.621 309.564 338.245 316.017 345.24 320.769 c 0
 354.385 326.731 375.702 325.244 381.375 333.874 c 0
 387.811 343.049 375.03 347.43 368.41 348.199 c 0
 357.976 349.455 348.55 353.957 338.607 355.553 c 0
 325.38 357.739 311.271 352.754 299.95 361.811 c 0
 292.881 367.464 272.42 358.92 272.42 358.92 c 1
327.588 -282.032 m 1
 329.792 -282.032 l 1
 327.588 -282.032 l 1
239.32 308.407 m 1
 192.98 244.424 l 1
 160.517 190.543 l 1
 30.79 28.9014 l 1
 133.4 34.1406 l 1
 229.39 28.9014 l 1
 245.556 234.321 l 1
 239.32 308.407 l 1
313.242 272.485 m 1
 313.743 269.946 314.348 269.354 314.348 272.485 c 2
 313.242 272.485 l 1
EndSplineSet
EndChar
StartChar: five
Encoding: 53 53
Width: 487
Flags: W
HStem: -299.126 20.8549<150 174> 129.812 19.4035<195.437 230> 337.641 24.1789<293.381 321.585>
VStem: 70.0674 69.5576<260 328> 309.051 68.7432<-88 -48>
DStem: 70.3643 260.95 142.763 328.2 64.3252 69.2871 139.625 136.537
Fore
80.0127 79.375 m 1
 81.1006 77.04 83.1504 72.1641 83.1504 79.375 c 1
 80.0127 79.375 l 1
293.363 79.375 m 1
 296.5 65.9248 l 1
 299.638 65.9248 l 1
 293.363 79.375 l 1
98.8379 371.912 m 1
 88.7119 360.394 l 1
 69.3535 350.667 l 1
 70.0674 314.75 l 1
 70.3643 260.95 l 1
 64.3252 69.2871 l 1
 91.5674 70.1514 103.042 88.1523 123.938 102.912 c 0
 152.117 122.693 184.791 131.448 218.062 129.812 c 0
 230.062 129.573 244.771 129.32 255.605 123.088 c 0
 271.346 114.044 270.806 88.6943 277.676 72.6504 c 0
 284.518 58.1816 293.243 44.3711 297.683 28.9375 c 0
 307.004 -3.45605 308.34 -38.4307 309.051 -71.9375 c 0
 309.051 -88.75 311.618 -102.851 307.984 -119.013 c 0
 303.988 -136.787 297.98 -160.912 288.022 -176.175 c 0
 282.939 -183.508 274.538 -188.598 270.331 -196.586 c 0
 265.655 -204.756 268.263 -208.604 274.538 -213.162 c 1
 253.917 -244.443 215.808 -271.044 180.413 -277.316 c 0
 167.707 -279.565 152.157 -280.853 139.625 -275.07 c 0
 128.427 -269.6 127.075 -256.875 126.493 -244.387 c 0
 125.179 -220.485 123.938 -192.141 145.9 -178.894 c 0
 151.29 -176.175 180.413 -166.833 171 -156 c 0
 164.554 -147.567 145.429 -152.693 136.488 -152.638 c 0
 104.417 -152.638 74.6084 -149.748 42.3633 -153.206 c 0
 35.0986 -153.983 9.6582 -153.031 6.27246 -161.208 c 0
 3.8457 -167.06 10.5713 -171.774 14.125 -174.268 c 0
 27.5 -182.933 41.3701 -184.371 49.7383 -199.86 c 0
 58.9209 -216.856 54.9131 -237.186 65.1523 -253.513 c 0
 96.7295 -305.477 162.197 -303.95 211.788 -293.862 c 1
 219.613 -307.312 231.829 -304.558 243.15 -296.506 c 0
 268.263 -278.383 291.193 -253.562 315.325 -233.338 c 0
 354.799 -200.126 374.479 -141.562 377.794 -88.75 c 0
 378.075 -76.2783 376.103 -64.1455 376.365 -51.7627 c 0
 376.721 -35.0225 381.213 -18.1377 380.189 -1.3252 c 0
 378.934 15.4873 373.924 32.2148 371.801 49.1123 c 1
 374.938 49.1123 l 1
 384.351 35.6621 l 1
 378.686 49.1123 369.463 58.2637 361.033 69.8584 c 0
 349.449 85.8008 340.159 102.374 324.738 114.77 c 0
 272.88 156.45 199.238 155.974 139.625 136.537 c 1
 142.763 328.2 l 1
 221.2 337.713 l 1
 261.988 337.641 l 1
 321.601 338.287 l 1
 349.789 328.817 l 1
 377.867 319.531 l 1
 409.046 287.584 l 1
 419.73 301.3 l 1
 431.413 348.375 l 1
 431.413 351.737 l 1
 407.492 365.894 384.351 358.124 359.25 358.463 c 0
 337.288 359.093 315.325 362.702 293.363 361.693 c 0
 259.993 360.17 226.36 355.1 192.963 355.1 c 0
 167.863 354.795 123.159 345.61 108.25 371.912 c 1
 98.8379 371.912 l 1
EndSplineSet
MinimumDistance: x35,-1 
EndChar
StartChar: six
Encoding: 54 54
Width: 418
Flags: W
VStem: 2.34654 354.547<186 208>
Fore
171.29 308.976 m 1
 155.603 315.565 148.031 305.613 135.444 296.737 c 0
 120.312 285.438 106.31 277.551 99.127 258.538 c 1
 92.8525 261.9 l 1
 83.4395 191.288 l 1
 90.3916 107.226 l 1
 114.814 29.8877 l 1
 140.914 24.5908 166.388 16.4375 193.252 19.8008 c 0
 244.782 26.5254 274.57 75.1045 288.205 124.038 c 0
 298.34 160.408 298.732 201.375 291.851 238.363 c 0
 289.356 251.688 289.513 273.452 274.827 275.351 c 2
 271.689 278.713 l 1
 271.031 324.432 193.133 350.222 171.29 308.976 c 1
215.215 6.35059 m 1
 218.353 -10.4619 l 1
 228.727 -1.95703 236.46 9.25293 246.59 18.0596 c 0
 290.436 55.9766 338.772 95.5488 353.13 157.663 c 0
 376.085 257.001 293.652 364.125 196.39 348.488 c 0
 186.009 346.826 177.507 340.111 168.152 335.544 c 0
 136.667 320.159 111.242 300.803 83.4395 278.713 c 1
 100.645 376.226 138.72 467.013 196.083 545.72 c 0
 200.557 551.827 201.516 558.7 204.801 565.396 c 0
 209.497 574.613 217.185 582.468 221.49 591.426 c 0
 226.873 601.513 226.19 611.601 237.178 614.963 c 1
 237.178 621.688 l 1
 249.666 623.688 258.208 631.775 268.549 639.866 c 0
 281.103 649.402 294.811 657.693 307.048 668.076 c 0
 311.261 671.656 327.104 685.037 316.798 691.029 c 0
 307.839 696.237 294.409 683.632 287.377 678.851 c 0
 264.187 663.988 242.457 652.85 221.49 633.703 c 0
 179.544 595.386 141.906 553.118 111 504 c 0
 94.8496 478.328 84.8711 447.797 72.5479 419.938 c 0
 61.4717 394.894 47.4531 370.545 37.6123 345.001 c 0
 23.8271 308.976 7.40723 266.412 2.77148 228.275 c 0
 -0.22168 203.635 2.78711 175.389 6.37793 150.938 c 0
 21.8174 45.8564 120.646 -22.1289 215.215 6.35059 c 1
EndSplineSet
EndChar
StartChar: seven
Encoding: 55 55
Width: 472
Flags: W
HStem: -10.7387 24.1889<275 283> 342.854 15.5854<307.564 341.493>
VStem: 122.866 210.188<-8 -7>
Fore
372.57 376.6 m 1
 358.457 351.434 329.791 360.874 307.542 357.771 c 0
 278.286 353.689 249.284 358.191 220.155 359.656 c 0
 198.661 360.736 176.875 356.425 155.237 356.425 c 0
 143.947 356.425 132.586 355.805 121.367 356.986 c 0
 113.961 357.768 105.328 360.864 98.1035 357.357 c 0
 82.7539 349.7 86.9375 331.561 86.5801 316.075 c 0
 86.293 303.781 84.5762 291.599 84.6748 279.084 c 0
 84.6748 271.525 84.0273 254.335 93.6328 254.328 c 0
 105.4 254.322 106.907 276.688 110.077 285.812 c 0
 119.482 309.35 132.657 325.814 153.223 335.784 c 0
 159.066 338.684 165.979 337.993 172.173 338.913 c 0
 192.837 341.993 210.753 341.697 231.445 340.437 c 0
 268.138 338.174 304.568 342.972 341.522 342.975 c 1
 333.951 309.271 318.942 282.45 305.742 252.188 c 0
 286.715 209.851 267.076 169.015 246.429 127.775 c 0
 228.622 92.5898 216.343 49.374 190.478 21.0645 c 0
 178.311 7.75 159.408 7.85156 143.947 5.2998 c 0
 138.303 4.39648 128.055 5.00391 123.879 -0.0263672 c 0
 115.723 -10.0879 136.434 -18.2412 141.125 -20.1748 c 1
 141.125 -36.9873 l 1
 143.947 -36.9873 l 1
 141.125 -23.5371 l 1
 177.817 -16.8125 l 1
 61.1221 -235.375 l 1
 36.6895 -267.272 l 1
 11.29 -292.537 l 1
 29.1895 -298.28 45.877 -305.987 64.8076 -300.389 c 0
 75.1299 -297.601 81.7666 -287.018 92.6738 -285.812 c 0
 121.122 -281.156 152.327 -290.968 177.817 -272.362 c 1
 177.817 -269 l 1
 168.306 -262.433 145.775 -258.232 145.237 -242.1 c 0
 144.673 -225.287 161.734 -202.374 168.732 -188.3 c 0
 179.16 -166.989 194.195 -148.869 204.182 -127.775 c 0
 208.248 -119.018 208.355 -108.976 212.313 -100.304 c 0
 220.679 -81.9844 231.445 -64.7383 241.202 -47.0752 c 0
 246.845 -36.9873 250.88 -23.7412 259.67 -16.8125 c 0
 280.177 -0.286133 311.142 -22.8975 333.055 -10.0879 c 1
 333.055 -6.72461 l 1
 313.268 6.72461 296.362 13.4502 273.782 13.4502 c 1
 307.132 80.7002 l 1
 339.193 161.4 l 1
 375.004 232.013 l 1
 387.852 272.362 l 1
 423.375 353.062 l 1
 381.037 359.787 l 1
 378.215 376.6 l 1
 372.57 376.6 l 1
EndSplineSet
MinimumDistance: x37,-1 
EndChar
StartChar: eight
Encoding: 56 56
Width: 481
Flags: W
VStem: 57.7644 296.982<671 675>
Fore
238.2 462.787 m 1
 194.53 434.088 l 1
 154 393.546 l 1
 115.13 315.7 l 1
 111.16 322.875 l 1
 107.19 322.875 l 1
 107.19 299.171 89.0693 274.58 82.9082 251.125 c 0
 68.9014 197.312 72.2471 151.859 91.3096 100.45 c 0
 96.1719 88.6475 95.2803 72.4785 103.22 62.0732 c 0
 114.854 46.6309 148.607 49.5977 166.74 47.6641 c 0
 177.258 46.5391 188.087 47.3838 198.5 45.6562 c 0
 207.897 44.0977 216.594 39.2695 226.29 39.2627 c 0
 280.168 39.2207 295.312 88.752 307.399 125.562 c 0
 320.853 166.531 325.54 208.958 330.185 251.125 c 0
 333.225 279.825 334.689 313.286 322.508 340.812 c 0
 305.144 380.051 261.951 426.912 238.2 462.787 c 1
142.92 523.775 m 0
 158.8 513.013 197.813 496.28 194.53 473.55 c 0
 193.476 461.708 176.106 449.912 167.817 441.248 c 0
 141.757 414.013 115.13 387.45 87.3398 361.728 c 0
 46.8877 323.681 27.79 275.729 13.9805 226.013 c 0
 7.94043 206.124 -1.84961 185.877 -2.08984 165.025 c 0
 -2.44238 133.88 15.5195 106.91 34.5635 82.5127 c 0
 42.3135 72.5869 49.4854 60.7949 60.3799 53.375 c 0
 78.6982 40.9023 102.716 38.2783 123.07 31.4961 c 0
 133.844 28.1289 138.896 19.8711 147.917 14.3496 c 0
 156.59 10.1709 168.76 8.04688 178.65 6.4082 c 0
 216.687 0 257.239 20.7227 289.81 34.3926 c 0
 301.72 39.4629 316.824 40.4365 327.408 48.9814 c 0
 342.103 60.8408 350.104 81.5381 359.584 96.8623 c 0
 397.907 158.842 415.381 253.272 394.189 322.557 c 0
 379.879 369.33 329.51 407.78 297.75 444.85 c 0
 288.771 455.612 267.646 469.714 265.377 484.312 c 0
 262.02 501.815 290.679 527.317 300.08 541.713 c 0
 309.567 556.062 321.322 569.586 329.51 584.763 c 0
 350.229 622.662 359.479 668.662 353.33 710.325 c 0
 350.189 738.602 344.378 767.417 309.66 774.9 c 1
 309.66 774.9 271.534 797.37 265.315 798.19 c 0
 234.23 801.736 194.53 794.204 166.74 782.881 c 0
 131.905 768.752 104.034 744.68 81.4893 717.5 c 0
 74.042 708.521 65.2139 699.562 61.5889 688.8 c 0
 40.6963 625.563 101.63 569.922 142.92 523.775 c 0
357.3 168.612 m 1
 358.677 166.121 361.27 160.919 361.27 168.612 c 1
 357.3 168.612 l 1
269.96 771.312 m 1
 269.96 760.55 l 1
 240.855 771.312 186.59 763.458 167.647 738.262 c 0
 154.768 721.088 150.86 694.251 146.89 674.45 c 0
 140.005 637.3 137.356 579.686 167.941 548.888 c 0
 177.525 539.933 190.451 538.125 202.47 532.915 c 0
 212.368 528.298 220.063 519.872 230.24 515.941 c 0
 248.141 509.025 250.11 525.096 254.08 536.062 c 0
 260.19 550.685 268.525 562.326 273.038 577.588 c 0
 277.489 592.677 288.48 605.59 293.621 620.638 c 0
 305.02 653.993 303.457 690.825 295.052 724.675 c 0
 290.539 742.612 288.682 761.611 269.96 771.312 c 1
170.71 749.787 m 1
 202.47 764.138 l 1
 187.625 768.338 179.434 760.14 170.71 749.787 c 1
EndSplineSet
MinimumDistance: x34,-1 
EndChar
StartChar: nine
Encoding: 57 57
Width: 349
Flags: W
HStem: -0.654635 20.1224<108 120> 345.318 19.5385<167 187>
DStem: 41.6367 -327.267 83.0029 -306.386 16.8184 -366.146 37.5703 -371.552 89.5898 -237.782 131.052 -206.962 41.6367 -327.267 83.0029 -306.386 132.94 -148.603 181.246 -114.302 89.5898 -237.782 131.052 -206.962
Fore
105 0 m 2
 66.4697 9.17773 l 1
 54.9102 24.6797 40.46 36.6182 30.6807 53.7676 c 0
 4.87695 99.1084 5.45215 146.378 11.0996 197.828 c 0
 13.2529 217.256 12.9434 238.7 21.291 256.138 c 0
 56.1572 328.985 130.05 379.618 202.3 361.118 c 0
 210.51 358.947 217.628 353.397 225.42 349.86 c 0
 246.903 340.112 269.436 330.791 283.22 307.283 c 0
 321.704 242.277 296.499 148.056 272.885 81.208 c 0
 267.043 64.6611 261.672 48.499 253.659 33.1875 c 0
 247.141 20.7305 238.729 10.4775 242.76 -4.54199 c 1
 211.986 -52.5625 l 1
 181.246 -114.302 l 1
 131.052 -206.962 l 1
 83.0029 -306.386 l 1
 37.5703 -371.552 l 1
 16.2988 -385.272 l 1
 16.8184 -366.146 l 1
 41.6367 -327.267 l 1
 89.5898 -237.782 l 1
 132.94 -148.603 l 1
 118.49 -158.892 l 1
 113.306 -133.348 134.026 -112.188 146.637 -93.7217 c 0
 172.149 -56.3604 182.07 -11.4023 202.3 29.7578 c 1
 182.973 26.9512 165.949 15.0664 147.39 8.76562 c 0
 127.688 2.08008 125.157 -4.80176 105 0 c 2
95.3701 324.738 m 1
 96.3721 322.359 98.2598 317.382 98.2598 324.738 c 1
 95.3701 324.738 l 1
86.7002 287.008 m 1
 69.3604 284.321 66.4443 245.098 61.6406 228.698 c 0
 52.9512 199.027 52.9482 170.388 51.9639 139.518 c 0
 51.6445 129.228 48.7012 118.904 49.999 108.647 c 0
 51.1172 99.9287 55.9512 92.9414 57.7324 84.4336 c 0
 61.5732 66.0811 62.9248 41.5088 75.7158 28.0264 c 0
 85.2998 17.9268 97.9189 19.4678 109.82 19.4678 c 0
 136.919 19.4678 158.063 25.5479 182.07 41.0029 c 0
 193.283 48.2178 204.964 52.2568 209.711 67.4883 c 0
 214.433 83.0498 214.831 99.6914 217.659 115.508 c 0
 221.373 136.088 226.955 155.747 228.135 177.248 c 0
 229.631 204.434 224.531 232.818 220.816 259.568 c 0
 218.985 272.789 218.688 288.073 214.983 300.711 c 0
 209.759 318.534 194.466 328.895 187.85 345.318 c 1
 153.082 345.204 91.5713 338.458 86.7002 287.008 c 1
EndSplineSet
MinimumDistance: x12,-1 
EndChar
StartChar: colon
Encoding: 58 58
Width: 186
Flags: W
Fore
54.0244 374.795 m 0
 41.5332 364.692 27.1377 330.798 27.6797 307.79 c 0
 28.8916 275.399 51.6299 276.868 66 288 c 0
 82.0049 300.345 89.0469 318.499 82.7207 344.997 c 0
 79.6289 357.938 65.3848 383.916 54.0244 374.795 c 0
39.6553 104.771 m 0
 32.4697 101.918 26.251 98.7012 21.04 90.8486 c 0
 15.1387 81.9609 13.207 69.5498 10.1172 58.3828 c 0
 3.72949 35.459 -3.6748 7.09277 18.0996 -0.327148 c 0
 21.1543 -1.36328 24.583 -1.17773 27.6797 -1.17773 c 0
 32.4697 -0.407227 37.2598 0.807617 42.0498 2.54492 c 0
 53.5918 8.28906 77.2471 30.6855 79.4814 50.9375 c 0
 80.3701 60.582 75.5586 67.6338 71.9121 74.2832 c 0
 64.1807 88.1621 53.499 110.497 39.6553 104.771 c 0
EndSplineSet
EndChar
StartChar: semicolon
Encoding: 59 59
Width: 223
Flags: W
Fore
47.9004 353.638 m 0
 35.0293 342.47 23.8965 314.46 27.4766 290.355 c 0
 30.2158 271.742 46.7959 253.05 58.6445 264.298 c 0
 73.415 278.562 86.2197 314.312 83.0625 341.765 c 0
 80.9414 359.159 56.2402 361.082 47.9004 353.638 c 0
55.085 11.168 m 1
 51.2471 -17.2891 40.7148 -41.5107 28.3936 -63.2822 c 0
 20.1094 -77.0781 9.58008 -84.6211 7.18457 -104.23 c 1
 38.0537 -101.602 62.2627 -45.4189 71.291 -3.72266 c 0
 73.665 7.24121 73.9854 18.6123 76.1582 29.7256 c 0
 81.1729 55.1064 89.2676 95.6367 67.0254 107.204 c 0
 32.3555 125.23 -10.1152 23.3271 38.2266 8.77539 c 0
 43.8535 7.07812 49.6094 9.31348 55.085 11.168 c 1
EndSplineSet
EndChar
StartChar: less
Encoding: 60 60
Width: 379
Flags: W
Fore
1.41309 210.885 m 1
 8.58789 221.58 l 1
 12.1768 221.58 l 1
 11.3662 213.022 8.30371 199.121 19.3506 196.556 c 0
 33.7002 193.06 47.4912 200.189 62.4004 196.231 c 0
 77.5117 191.739 89.7734 181.188 103.385 173.668 c 0
 144.913 150.279 176.97 125.325 209.107 89.6748 c 0
 220.188 77.2666 225.216 59.7275 238.188 49.5342 c 0
 243.802 45.541 253.8 39.5488 259.476 46.1816 c 0
 270.477 59.1943 251.897 85.8232 245.363 96.8047 c 0
 228.252 128.462 202.313 153.845 180.08 182.364 c 0
 172.398 191.813 155.677 205.468 154.337 218.015 c 0
 153.118 227.749 162.852 235.84 168.151 242.97 c 0
 180.267 259.047 190.192 276.66 202.227 292.88 c 0
 226.458 324.965 245.021 360.614 264.411 396.265 c 0
 276.436 418.33 289.744 438.474 292 464 c 1
 261.829 461.72 253.274 421.859 237.151 399.83 c 0
 196.765 344.681 157.08 283.647 94.6885 249.745 c 0
 80.3379 242.148 61.8369 235.057 45.9834 232.274 c 0
 25.6367 228.71 10 233.702 1.41309 210.885 c 1
EndSplineSet
EndChar
StartChar: equal
Encoding: 61 61
Width: 656
Flags: W
HStem: 135.412 26.0328<204 214 246 262 294 326> 138.473 23.9393<150 166 203 203> 310.386 23.0709<128 182>
Fore
183.045 164.271 m 1
 167.235 158.535 144.479 164.271 127.34 163.386 c 0
 111.916 162.531 95.8135 158.785 80.2051 161.802 c 0
 57.29 166.316 49.6328 201.82 24.5 197.029 c 0
 4.27148 192.611 6.48926 173.774 7.26758 160.729 c 0
 9.54395 122.841 2.21289 75.5635 20.2148 40.2842 c 1
 40.9707 50.7002 40.5518 68.624 51.5156 85.7314 c 0
 62.9814 103.115 84.4902 121.322 105.915 130.237 c 0
 144.479 146.444 189.874 133.696 230.18 134.506 c 0
 275.6 135.416 321.981 133.741 367.3 135.932 c 0
 392.843 137.657 426.637 141.747 448.271 127.307 c 0
 470.14 112.614 467.11 92.1104 475.471 72.166 c 0
 480.576 59.9893 487.28 49.8115 487.28 36.7412 c 1
 512.99 40.2842 l 1
 504.42 68.5439 509.458 103.212 515.04 131.783 c 0
 516.723 140.387 521.56 148.606 522.94 157.187 c 0
 524.004 168.479 515.241 178.029 514.304 189.069 c 0
 512.99 199.081 528.28 220.91 518.188 228.684 c 0
 510.831 234.347 498.771 227.594 493.414 223.079 c 0
 474.333 206.781 473.203 184.219 444.271 174.38 c 0
 431.575 170.287 418.544 171.356 405.865 170.343 c 0
 388.407 168.558 371.585 164.025 355.182 160.729 c 0
 345.875 159.266 283.699 156.043 276 162 c 1
 255.966 169.453 203.125 155.928 183.045 164.271 c 1
230.18 305.972 m 17
 175.906 311.642 109.288 318.675 61.9268 292.656 c 0
 38.3262 279.687 39.6396 262.687 31.2793 242.206 c 0
 28.7852 237.003 22.542 229.126 14.0469 233.018 c 0
 5.89551 236.754 6.00391 249.291 4.89941 256.376 c 0
 1.41797 277.164 9.10059 296.801 -9.78027 313.057 c 1
 -9.78027 316.599 l 1
 15.9297 339.352 -15.8477 378.146 20.2148 394.534 c 1
 45.9248 342.521 l 1
 93.0596 334.312 l 1
 184.869 333.457 l 1
 230.062 338.979 l 1
 315.88 334.312 l 1
 423.005 340.843 l 1
 474.425 344.687 l 1
 508.705 373.21 l 1
 529.385 387.449 l 1
 542.801 366.19 l 1
 532.239 302.429 l 1
 520.974 276.753 l 1
 493.306 291.729 l 1
 453 318 l 1
 410.149 314.824 l 1
 315.88 305.972 l 1
 294 300 230.18 305.972 230.18 305.972 c 17
EndSplineSet
EndChar
StartChar: question
Encoding: 63 63
Width: 538
Flags: W
HStem: -177.673 120.792<245 255> -0.320814 25.6832<235.045 255.728>
VStem: 8.58946 174.02<597 602> 194.733 133.039<-120 -112.62> 272.665 174.389<174 177>
DStem: 310.341 186.297 310.341 186.297 272.665 177.992 336.713 183.715
Fore
242.198 -58.1201 m 0
 223.637 -67.5635 197.315 -91.0645 195.233 -112.607 c 0
 193.548 -125.651 195.914 -148.933 203.875 -159.83 c 0
 218.479 -179.248 251.595 -182.26 272.665 -171.568 c 0
 289.232 -163.463 328.089 -140.206 327.772 -119.872 c 0
 327.375 -94.4453 294.038 -71.3379 272.665 -61.7529 c 0
 264.063 -58.1201 251.576 -52.873 242.198 -58.1201 c 0
24.0107 602.995 m 1
 12.708 610.26 l 1
 7.97266 598.767 5.17285 592.098 16.4756 584.832 c 1
 18.4141 570.008 40.9609 574.765 54.1504 574.861 c 0
 84.0254 575.084 114.427 586.159 144.062 588.465 c 0
 155.134 589.834 171.727 584.832 180.361 593.811 c 0
 185.49 599.079 183.81 605.411 177.639 608.745 c 0
 165.354 615.393 144.57 610.26 141.862 628.423 c 0
 140.299 638.284 146.344 648.473 149.383 657.482 c 0
 157.609 681.867 165.59 709.114 186.013 726.5 c 1
 178.478 737.397 l 1
 253.828 769.558 l 1
 317.875 773.723 l 1
 326.117 767.664 337.989 764.844 344.248 757.33 c 0
 363.086 736.83 366.625 706.05 366.853 680.316 c 0
 367.758 667.869 370.462 655.354 370.131 642.952 c 0
 369.642 624.364 363.086 606.326 358.921 588.465 c 0
 352.666 564.332 347.868 538.73 337.464 515.815 c 0
 323.744 485.599 291.102 461.058 269.538 435.9 c 0
 238.758 400.427 210.929 363.25 182.099 326.925 c 0
 159.235 297.829 136.031 272.055 117.896 239.745 c 0
 102.135 211.671 85.1074 181.625 84.29 148.933 c 0
 83.9629 120.688 100.409 90.6709 112.425 65.3848 c 0
 123.823 41.6777 150.817 27.833 174.711 18.1621 c 0
 193.305 10.6523 214.762 1.9082 234.99 0 c 0
 295.271 -4.37402 356.856 33.335 390.308 79.915 c 0
 402.435 96.8008 401.908 113.548 410.209 130.77 c 0
 420.249 151.607 454.628 159.83 445.971 185.258 c 1
 336.713 183.715 l 1
 310.341 186.297 l 1
 272.665 177.992 l 1
 272.665 167.095 l 1
 253.828 156.197 l 1
 295.271 152.565 l 1
 305.149 127.021 321.569 92.8701 311.363 65.3848 c 0
 295.271 23.0547 222.61 10.8975 191.995 45.5127 c 0
 166.267 74.2393 169.214 106.903 170.796 141.668 c 0
 172.4 176.968 173.021 213.146 184.784 247.01 c 0
 190.682 263.991 203.084 277.648 208.618 294.232 c 0
 214.225 308.504 213.894 323.271 219.921 337.822 c 1
 228.15 333.108 230.064 333.424 234.99 341.455 c 1
 223.688 337.822 l 1
 223.688 341.455 l 1
 261.363 377.78 l 1
 276.433 395.942 l 1
 287.286 423.555 308.111 441.075 328.891 461.327 c 0
 338.567 471.239 346.047 483.062 356.676 491.707 c 0
 362.736 496.631 370.48 499.512 376.209 504.79 c 0
 384.55 512.183 383.689 523.08 388.674 532.938 c 0
 400.359 554.918 422.905 573.137 432.107 595.73 c 0
 440.286 615.812 448.082 642.952 449.329 664.747 c 0
 449.738 680.664 445.507 696.794 441.096 711.97 c 0
 437.097 725.727 433.546 740.033 424.69 751.785 c 0
 360.643 836.77 223.052 794.797 148.338 749.022 c 0
 117.23 729.951 92.6426 694.822 74.2871 664.747 c 0
 58.6318 639.104 50.3828 620.157 24.0107 602.995 c 1
EndSplineSet
EndChar
StartChar: at
Encoding: 64 64
Width: 616
Flags: W
HStem: 342.07 22.9118<318 342> 515.08 21.3102<302 334>
VStem: 135.699 51.8257<149 157> 474.811 50.1895<288 325>
Fore
206.878 332.431 m 1
 202.422 315.156 188.515 309.844 180.74 295.048 c 0
 165.752 266.531 145.411 229.905 138.749 197.63 c 0
 132.996 169.766 135.486 141.091 139.341 113.38 c 0
 142.044 93.9932 145.408 76.2344 155.232 59.46 c 0
 184.526 8.91016 229.902 5.2373 278.359 2.16992 c 0
 304.815 1.07812 325.124 1.22559 349.379 16.8125 c 0
 369.489 29.9561 391.826 41.1953 394.858 69.5703 c 1
 376.666 68.2441 371.529 57.5645 358.084 46.7861 c 0
 343.273 34.916 322.092 22.3906 303.9 20.4189 c 0
 295.829 19.0205 287.704 21.8672 279.645 22.2588 c 0
 255.39 23.4238 222.896 21.6729 204.658 43.3672 c 0
 195.589 54.1553 197.223 69.5703 193.563 82.998 c 0
 177.513 141.442 194.751 215.188 211.711 271.771 c 0
 214.366 280.824 217.923 290.4 223.548 297.703 c 0
 233.677 310.861 244.369 313.773 246.294 332.431 c 1
 256.704 334.487 266.679 333.236 276.612 334.85 c 0
 306.678 339.17 338.468 351.357 367.18 333.935 c 0
 373.383 330.173 377.646 323.894 383.515 319.651 c 0
 390.523 314.59 399.37 312.21 403.954 304.542 c 0
 406.985 299.879 407.616 294.143 409.787 288.62 c 0
 411.851 284.361 415.581 279.415 420.798 282.473 c 0
 431.241 288.62 432.888 308.159 429.23 318.938 c 0
 422.08 340.003 408.241 350.376 388.794 354.575 c 0
 369.433 358.755 347.928 364.913 328.152 364.981 c 0
 314.994 365.031 301.818 361.21 288.74 359.977 c 0
 278.614 359.019 268.37 361.668 258.421 358.735 c 0
 240.135 353.342 223.989 340.697 206.878 332.431 c 1
176.56 497.561 m 1
 171.757 522.47 147.729 492.396 140.176 484.08 c 0
 115.921 457.12 92.4199 433.53 72.04 403.2 c 0
 67.0723 395.789 59.7793 390.685 55.2822 382.7 c 0
 45.0254 362.761 38.7637 339.17 28.8359 318.95 c 0
 21.2441 303.407 8.81738 293.28 5.00391 275.141 c 0
 0.707031 255.98 6.64648 236.898 5.8418 217.851 c 0
 4.90527 195.501 1.39453 172.773 0.707031 150.45 c 0
 0.456055 138.069 3.71289 125.886 3.73926 113.38 c 0
 3.73926 72.0879 -1.64648 24.8457 12.835 -14.6797 c 0
 26.9287 -51.8154 47.0684 -97.9492 74.6523 -124.859 c 0
 86.7412 -136.654 104.519 -143.082 118.952 -150.322 c 0
 127.229 -154.476 134.112 -161.449 143.208 -164.645 c 0
 157.095 -169.792 174.19 -170.854 188.687 -173.35 c 0
 195.997 -174.61 202.57 -178.49 209.91 -179.81 c 0
 223.909 -181.508 238.326 -178.395 252.357 -180.09 c 0
 262.939 -181.369 272.589 -185.407 283.349 -186.55 c 0
 297.836 -187.023 310.577 -183.18 325.124 -180.56 c 0
 349.124 -176.604 370.603 -175.041 391.826 -159.59 c 0
 403.954 -149.479 417.944 -140.439 419.113 -122.52 c 1
 391.826 -126.469 370.603 -150.444 343.315 -157.299 c 0
 312.996 -164.819 285.054 -157.361 255.39 -155.542 c 0
 209.91 -152.85 161.251 -153.448 121.984 -122.52 c 0
 105.569 -109.155 103.793 -91.3213 97.4268 -71.9697 c 0
 90.792 -52.9375 84.6152 -38.4541 81.1748 -18.0498 c 0
 76.5059 8.67676 67.2295 35.8701 64.9141 62.8301 c 0
 62.3018 93.1602 67.3682 125.369 69.3584 155.762 c 0
 71.4512 187.521 71.916 217.084 78.6406 248.181 c 0
 83.834 271.771 88.4883 295.36 95.4785 318.95 c 0
 99.5029 332.431 101.524 345.002 112.889 352.65 c 1
 115.067 376.24 126.87 404.589 143.208 420.051 c 1
 146.24 434.797 154.137 440.146 167.463 436.9 c 1
 161.399 443.641 l 1
 161.399 447.011 l 1
 206.878 478.463 l 1
 231.134 494.19 l 1
 243.262 487.45 l 1
 253.577 505.137 273.581 509.572 291.725 513.394 c 0
 328.155 521.15 369.874 510.099 403.954 495.618 c 0
 418.313 489.521 434.273 482.533 444.855 469.333 c 0
 451.295 461.211 453.306 450.067 456.87 440.271 c 0
 466.718 413.172 470.002 388.921 470.656 359.391 c 0
 471.402 343.448 474.564 327.451 474.811 311.249 c 0
 475.098 291.99 472.083 273.689 470.656 254.92 c 0
 468.409 214.062 468.192 173.981 461.561 133.601 c 0
 459.225 116.75 455.496 99.7197 455.496 83.0508 c 0
 455.496 71.2393 459.885 57.0576 453.436 45.9805 c 0
 446.4 35.5117 433.05 31.6611 422.146 29.1299 c 1
 425.177 -2.6084 450.572 14.4062 467.624 2.16992 c 1
 561.614 8.91016 l 1
 540.391 36.792 l 1
 519.856 72.9404 l 1
 521.93 126.86 l 1
 525 201 l 1
 525.23 399.83 l 1
 513.982 401.463 513.104 423.002 507.626 433.53 c 0
 494.343 458.446 474.813 482.04 452.465 497.28 c 0
 405.594 529.236 337.145 543.971 282.677 533.88 c 0
 247.185 527.308 209.91 511.04 176.56 497.561 c 1
EndSplineSet
MinimumDistance: x80,-1 
EndChar
StartChar: A
Encoding: 65 65
Width: 820
Flags: HMW
Fore
397.09 798.875 m 5
 395.59 759.412 l 5
 370.926 702.013 l 5
 344.153 630.263 l 5
 317.002 547.75 l 5
 279.593 465.237 l 5
 232.673 339.675 l 5
 203.798 278.688 l 5
 168.419 181.825 l 5
 134.77 106.487 l 5
 129.305 110.075 l 5
 114.252 75.2793 92.5176 43.5449 60.9922 36.2646 c 4
 53.6436 34.5693 46.4736 37.4248 39.1328 37.0039 c 4
 27.3623 36.335 12.2666 31.8643 0.87793 27.5625 c 5
 13.3203 -1.63867 46.8047 5.23145 69.1904 0.918945 c 4
 108.152 -6.59277 145.041 4.31348 183.955 5.5752 c 4
 195.883 5.96387 207.598 1.00293 219.478 0.208008 c 4
 227.675 -0.345703 235.856 2.13477 244.07 2.39746 c 4
 260.465 2.4502 276.86 0.960938 293.255 6.03711 c 5
 293.255 13.2119 l 5
 277.356 19.4414 257.732 29.1357 241.338 30.3965 c 4
 230.274 31.1494 218.487 23.9746 209.415 35.8828 c 4
 191.533 59.2119 212.742 95.1533 219.472 117.25 c 4
 222.21 127.98 224.689 138.774 227.675 149.537 c 5
 245.978 140.193 250.187 170.842 255 189 c 4
 266.829 233.612 282.325 279.511 306.917 314.51 c 4
 318.507 330.521 328.777 348.521 340.975 363.807 c 4
 348.409 373.455 356.785 375.55 358.835 389.899 c 5
 376.855 392.997 388.791 409.981 405.287 418.207 c 4
 424.329 427.705 466.057 420.288 473.6 450.888 c 5
 421.365 470.152 360.052 424.748 320.58 382.725 c 5
 395.209 583.625 l 5
 424.415 644.612 l 5
 429.88 644.612 l 5
 448.001 592.012 463.403 538.55 476.226 483.175 c 4
 481.798 458.062 484.53 432.606 491.481 407.837 c 4
 506.39 353.485 525.518 300.212 541.912 246.399 c 4
 554.619 204.548 566.505 163.593 577.125 120.837 c 4
 582.241 100.037 590.312 78.793 588.365 56.2627 c 4
 585.062 17.6895 551.879 10.8721 528.25 18.7969 c 4
 517.32 22.3848 509.603 29.8467 498.192 29.791 c 4
 487.263 29.7344 477.002 30.7256 466.684 26.5215 c 4
 462.454 24.7979 456.607 21.2383 457.675 13.9551 c 4
 458.635 7.38574 464.252 7.18262 468.135 7.22168 c 4
 481.798 7.35156 492.728 4.43652 506.39 0.691406 c 4
 525.518 -4.72559 549.542 -12.0752 569.237 -11.9004 c 4
 582.9 -10.9854 596.549 -4.77051 610.225 -2.21289 c 4
 621.094 -0.177734 632.085 -1.91504 643.015 -0.52832 c 4
 653.945 0.866211 664.779 5.21094 675.805 5.5752 c 4
 691.231 6.03711 706.649 0.389648 722.244 0.649414 c 4
 727.45 0.729492 737.462 2.4502 735.92 12.6025 c 4
 733.996 28.7783 705.862 24.7881 697.665 25.7646 c 4
 685.35 27.1768 671.373 25.1797 659.41 29.0654 c 4
 642.286 34.625 620.059 58.7773 610.225 77.7871 c 4
 605.387 88.5498 603.167 101.846 599.81 113.662 c 4
 590.98 144.759 583.586 176.079 574.155 206.938 c 4
 550.11 284.479 523.551 361.035 502.827 440.125 c 4
 488.602 493.938 479.064 551.337 462.638 605.149 c 4
 449.008 647.856 431.329 687.589 426.451 734.16 c 4
 424.968 748.324 414.037 764.037 424.415 773.763 c 5
 418.95 795.287 l 5
 397.09 798.875 l 5
EndSplineSet
EndChar
StartChar: B
Encoding: 66 66
Width: 559
Flags: W
HStem: 71.8642 20.804<286.4 313.474> 425.908 20.7139<351.246 376.026> 737.25 20.2348<337 368>
VStem: 112.119 60.1816<233 283 284.707 308.673> 116.617 57.7995<123 176> 444.195 20.1321<283 315> 478.918 18.6835<576.254 596.717>
DStem: 207.025 401.31 218.855 391.02 227.728 380.73 227.728 380.73
Fore
165.62 391.02 m 1
 166.646 388.639 168.577 383.664 168.577 391.02 c 1
 165.62 391.02 l 1
44.3623 771.75 m 1
 8.87207 768.32 l 1
 8.87207 751.17 l 1
 40.3594 744.986 88.6904 734.743 103.247 696.273 c 0
 110.819 675.71 105.779 649.054 106.47 627.689 c 0
 107.322 608.215 111.591 588.854 112.004 569.38 c 0
 112.385 541.94 107.874 514.088 106.47 487.06 c 0
 105.459 454.727 101.898 419.934 103.513 387.59 c 0
 105.312 361.208 110.56 335.115 112.119 308.7 c 0
 113.59 283.822 111.646 258.737 112.385 233.823 c 0
 114.698 191.108 121.258 148.99 114.673 106.33 c 0
 112.385 94.1543 106.155 83.9814 103.513 72.0303 c 1
 86.498 70.0537 65.6572 61.7402 50.2773 51.4502 c 0
 34.7676 41.1602 52.2881 32.7021 62.1074 30.8701 c 1
 58.3125 0 87.3506 14.9463 103.513 13.4482 c 0
 109.977 12.8594 117.023 10.29 123.372 12.6016 c 0
 134.243 16.2793 141.923 24.0098 153.79 26.4482 c 0
 168.052 28.7861 183.365 31.8076 198.152 30.5488 c 0
 206.055 29.8555 213.786 25.6953 221.65 25.6309 c 0
 230.373 25.5645 236.6 34.2998 236.6 44.4062 c 0
 236.6 56.6318 224.357 60.0518 215.897 62.4062 c 0
 198.687 67.4307 179.258 66.7578 175.165 92.6104 c 0
 171.09 118.382 173.984 148.77 174.417 174.93 c 0
 175.029 211.692 173.189 248.105 172.301 284.69 c 0
 171.535 302.892 174.492 321.277 174.189 339.57 c 0
 170.446 428.462 162.662 517.93 168.312 607.11 c 0
 169.99 635.564 165.21 668.85 173.58 696.29 c 0
 180.404 718.652 197.8 740.88 215.897 751.17 c 0
 225.394 757.29 235.91 759.453 245.473 764.89 c 1
 238.74 778.61 228.519 777.364 215.897 778.61 c 1
 224.77 788.9 l 1
 211.877 804.168 194.259 798.54 177.45 795.76 c 0
 144.868 791.82 112.382 799.189 79.8525 795.164 c 0
 64.71 793.284 47.1787 791.328 44.3623 771.75 c 1
201.11 624.26 m 1
 205.069 640.204 206.092 657.957 215.317 671.604 c 0
 254.342 729.337 328.282 746.48 387.433 733.621 c 0
 404.568 729.887 419.965 728.624 434.697 716.002 c 0
 462.034 692.09 466.04 660.563 472.619 624.26 c 0
 475.531 608.215 480.29 592.895 478.566 576.24 c 0
 473.2 525.949 428.838 464.209 387.433 450.361 c 0
 367.495 443.76 334.125 444.027 322.367 466.48 c 1
 337.155 483.63 l 1
 312.889 488.855 315.26 462.148 300.741 448.827 c 0
 280.553 430.314 245.473 443.254 230.685 415.03 c 1
 218.739 417.234 211.632 414.735 207.025 401.31 c 1
 227.728 380.73 l 1
 218.855 391.02 l 1
 238.33 409.242 262.983 416.333 286.878 423.173 c 0
 296.446 425.913 306.534 430.214 316.452 430.519 c 0
 324.883 430.78 333.03 427.159 341.366 426.117 c 0
 354.363 424.492 368.982 428.08 381.518 423.384 c 0
 411.869 411.6 432.806 380.73 440.668 346.43 c 0
 446.436 322.42 445.314 298.41 443.625 274.4 c 0
 442.796 255.877 443.622 237.561 438.825 219.52 c 0
 427.312 176.206 399.263 137.056 366.73 113.19 c 0
 315.881 76.917 225.671 84.8418 212.94 168.02 c 0
 210.826 184.355 227.728 190.432 229.308 205.612 c 0
 231.404 229.003 203.992 211.934 199.094 201.733 c 0
 190.071 182.959 195.805 155.063 203.504 137.2 c 0
 210.95 119.937 222.817 99.4697 236.6 88.6406 c 0
 256.364 73.5908 290.73 70.0869 313.495 72.6133 c 0
 376.957 79.6436 432.621 128.498 454.331 198.94 c 0
 463.862 229.81 464.327 262.569 464.327 294.98 c 0
 464.327 334.767 461.37 382.197 435.792 412.846 c 0
 427.891 421.89 415.39 427.249 405.178 432.18 c 1
 441.557 465.643 478.19 498.78 493.591 552.23 c 0
 501.088 578.246 496.86 608.802 490.945 634.55 c 0
 485.03 659.752 485.03 684.768 471.387 706.566 c 0
 432.777 766.756 349.689 764.16 292.79 750.051 c 0
 279.013 746.635 266.175 736.884 254.345 729.184 c 0
 233.262 715.932 212.818 704.517 197.217 682.266 c 0
 183.888 663.246 181.055 637.311 201.11 624.26 c 1
EndSplineSet
EndChar
StartChar: C
Encoding: 67 67
Width: 544
Flags: W
HStem: 775.59 19.0903<331 373>
VStem: 265.111 222.511<248 253> 437.79 23.65<710 722>
Fore
75.8721 56.9541 m 1
 151.291 13.3057 l 1
 187.361 10.4033 l 1
 249.666 7.95312 l 1
 260.973 -10.6377 277.742 3.85352 292.294 10.6836 c 0
 305.41 17.0781 318.229 18.4541 330.254 28.9521 c 0
 351.318 47.0713 380.132 63.4512 394.793 88.4531 c 0
 403.785 103.961 401.651 126.855 404.803 144.454 c 0
 409.414 170.209 420.081 194.224 430.018 217.954 c 1
 446.413 216.286 468.048 229.607 481.937 239.874 c 0
 491.09 246.646 489.042 256.456 479 260.807 c 0
 461.089 268.441 435.191 260.892 416.9 258.851 c 0
 398.93 256.456 379.297 259.686 361.156 259.917 c 0
 346.697 259.955 332.854 257.422 318.527 256.456 c 0
 304.207 256.227 280.605 270.455 268.104 259.33 c 0
 258.718 250.869 271.729 233.141 275.898 224.955 c 1
 289.015 227.662 305.41 231.507 318.479 224.329 c 0
 348.039 207.454 346.066 167.133 344.761 137.455 c 0
 344.434 125.895 345.884 113.736 342.63 102.454 c 0
 337.677 84.9531 325.015 81.0869 314.841 69.0469 c 0
 305.039 56.9541 299.513 45.082 285.736 37.5391 c 0
 257.472 21.9531 220.153 28.4746 190.628 31.8486 c 0
 178.467 33.2217 167.19 31.6533 156.911 40.0654 c 0
 131.617 60.3477 118.375 103.543 108.074 133.953 c 0
 102.104 150.31 108.663 164.06 106.745 180.452 c 0
 101.294 217.333 96.7051 253.833 98.8262 291.454 c 0
 100.874 318.803 107.875 344.957 111.513 371.955 c 0
 116.973 412.489 121.155 451.318 131.617 490.956 c 1
 138.175 490.845 142.841 490.316 144.733 497.957 c 0
 147.506 507.086 145.793 517.047 147.696 525.957 c 0
 152.738 549.593 160.97 572.838 167.688 595.957 c 0
 182.3 644.958 200.479 683.458 229.396 725.147 c 0
 242.179 742.958 250.341 763.717 272.616 770.293 c 0
 282.398 773.178 292.294 771.623 302.689 772.74 c 0
 334.654 776.312 377.285 781.46 407.051 766.313 c 0
 436.172 751.36 449.147 704.458 425.707 677.207 c 0
 413.622 663.107 375.596 650.769 379.213 683.406 c 0
 380.831 700.514 399.884 699.803 397.226 718.459 c 1
 389.05 716.814 379.245 716.295 371.691 712.412 c 0
 351.258 701.915 354.559 669.004 366.266 652.689 c 0
 372.892 643.468 381.4 637.449 387.389 627.458 c 1
 415.841 633.811 437.805 648.457 452.271 676.458 c 0
 463.813 698.562 466.875 741.396 452.267 762.595 c 0
 446.236 770.959 435.842 776.109 426.739 780.28 c 0
 386.223 798.84 347.787 796.681 305.41 792.554 c 0
 279.993 790.082 251.193 793.959 226.712 784.493 c 0
 208.43 777.429 193.22 763.252 177.524 751.493 c 0
 145.357 727.39 123.182 702.92 98.8262 669.458 c 0
 91.7451 658.958 83.1982 649.822 77.5693 637.944 c 0
 63.6553 608.58 59.0127 574.716 49.6387 543.458 c 0
 28.8369 469.856 8.98828 396.456 3.73047 319.456 c 0
 1.88574 286.215 5.40234 251.174 7.00977 217.954 c 0
 9.39941 175.209 34.4336 132.04 46.9355 91.9531 c 0
 51.252 77.9541 49.2197 55.709 58.6172 44.6279 c 0
 69.3125 31.793 75.1094 46.4531 75.8721 56.9541 c 1
EndSplineSet
EndChar
StartChar: D
Encoding: 68 68
Width: 715
Flags: W
HStem: 763.213 20.7352<379 398> 768.723 21.5133<35 40>
VStem: 91.1816 85.6699<285.238 471> 625.787 23.27<439 471>
Fore
268.015 726.022 m 1
 270.209 726.022 l 1
 268.015 726.022 l 1
251.54 715.867 m 1
 253.734 715.867 l 1
 251.54 715.867 l 1
48.3467 767.77 m 1
 46.0879 740.689 74.5176 733.768 81.2969 710.211 c 0
 90.252 680.579 86.0078 645.625 84.5918 615.444 c 0
 83.8066 594.011 85.9209 572.461 83.1953 551.13 c 0
 80.9043 533.216 73.9316 500.354 94.4766 493.585 c 1
 91.1816 236.324 l 1
 85.1484 165.239 l 1
 79.4404 124.619 l 1
 31.8594 83.999 l 1
 0 72 l 1
 5.51172 57.627 l 1
 38.4619 33.2246 l 1
 71.4121 39.9941 l 1
 74.707 39.9941 l 2
 82.665 35.3174 92.4434 37.8818 100.018 33.0127 c 0
 107.657 27.9756 105.694 18.1641 110.952 11.6387 c 0
 124.132 -4.92285 127.372 29.8398 127.427 36.6094 c 1
 149.913 20.2666 178.307 41.6006 203.212 45.7861 c 0
 211.864 46.7646 220.62 43.3799 229.086 45.0322 c 0
 236.812 46.4902 240.722 54.8271 237.404 62.2383 c 0
 230.914 76.7402 201.925 67.9736 190.032 77.2295 c 1
 168.785 83.9463 174.528 113.75 175.848 131.39 c 0
 176.788 143.975 169.814 153.193 168.904 165.239 c 0
 168.142 175.352 172.022 185.55 172.994 195.704 c 0
 174.416 210.325 172.759 225.082 174.117 239.71 c 0
 180.147 310.067 177.569 379.165 176.852 449.579 c 0
 176.572 478.769 181.939 508.446 179.97 537.457 c 0
 179.407 545.755 175.706 553.345 175.355 561.284 c 0
 174.88 572.726 178.419 584.034 179.204 595.135 c 0
 181.119 622.142 181.579 649.295 181.512 676.374 c 0
 181.489 685.931 185.463 694.357 187.722 703.454 c 0
 194.038 728.852 198.292 763.366 229.572 768.487 c 0
 240.249 770.235 249.342 764.385 259.227 760.999 c 1
 265.817 784.694 l 1
 234.27 801.554 209.605 789.838 176.852 789.584 c 0
 165.19 789.491 157.86 797.547 147.197 791.465 c 1
 131.375 802.406 114.247 791.465 97.7725 787.353 c 0
 87.1465 784.397 75.7588 784.179 64.8223 784.694 c 0
 53.9746 785.815 39.7012 792.981 28.5771 789.117 c 0
 21.1436 786.208 19.9053 777.224 26.7686 772.226 c 0
 32.8506 767.77 41.29 767.77 48.3467 767.77 c 1
216.392 686.529 m 1
 238.836 685.574 l 1
 262.522 723.765 l 1
 278.997 723.765 l 1
 272.407 730.534 l 1
 292.177 727.149 l 1
 310.109 760.299 367.853 766.361 400.912 761.955 c 0
 431.388 757.614 465.541 752.623 493.172 737.305 c 0
 515.851 725.761 533.442 705.663 550.046 686.229 c 0
 569.584 662.835 588.672 640.727 599.832 612.06 c 0
 605.202 597.759 606.489 582.751 610.453 568.055 c 0
 634.316 479.602 632.286 377.721 592.871 293.869 c 0
 582.137 271.143 571.644 248.912 554.705 230.13 c 0
 516.173 187.388 468.939 171.557 417.387 153.359 c 0
 383.941 141.545 354.782 126.891 318.537 128.93 c 0
 296.276 130.17 265.038 145.736 257.625 168.624 c 0
 253.232 182.164 261.917 213.277 242.752 217.344 c 0
 214.986 222.784 222.982 181.986 229.572 168.624 c 0
 235.258 157.623 242.568 144.926 251.086 136.094 c 0
 286.819 99.0439 353.774 103.833 397.617 119.704 c 0
 412.467 124.619 425.802 134.087 440.452 139.975 c 0
 458.661 147.293 478.702 149.699 496.467 158.182 c 0
 520.397 169.606 542.317 188.168 562.071 205.859 c 0
 588.495 229.531 601.907 261.824 616.603 293.869 c 0
 657.034 384.339 657.922 490.199 630.642 584.979 c 0
 626.445 599.511 624.271 614.979 618.382 628.984 c 0
 605.202 660.408 581.461 685.396 559.632 710.225 c 0
 545.892 725.51 533.97 742.019 516.237 752.428 c 0
 501.68 760.973 485.867 762.424 470.107 767.029 c 0
 456.812 770.906 443.747 777.207 430.567 780.05 c 0
 390.357 788.079 353.09 784.661 315.242 769.125 c 0
 275.174 752.673 220.961 738.653 216.392 686.529 c 1
EndSplineSet
EndChar
StartChar: E
Encoding: 69 69
Width: 640
Flags: W
HStem: 770.144 21.9818<412.748 440.498> 770.144 25.582<371.343 394.188>
VStem: 81.3623 79.1288<159.119 194.425 194.472 222.576> 84.6094 69.2432<285.908 317.563>
Fore
97.8379 785.352 m 5
 79.0586 785.352 21.9854 809.974 38.5273 771.284 c 5
 30.5703 773.016 3.99121 776.752 11.042 758.62 c 4
 16.2354 745.262 41.4072 751.892 51.6592 749.061 c 4
 67.4102 744.712 84.207 720.292 89.3076 704.457 c 4
 97.0361 680.455 89.0889 647.928 86.0547 623.56 c 4
 82.2383 592.916 82.0771 559.43 81.3623 528.459 c 4
 80.7734 495.688 82.0674 462.879 81.3145 430.114 c 4
 81.0439 418.33 78.0674 406.708 78.0674 394.943 c 4
 79.3291 358.684 83.7793 322.166 84.6094 285.908 c 4
 85.3145 255.166 81.3623 225.017 81.3623 194.447 c 4
 81.2627 166.323 83.29 137.911 80.8027 110.048 c 4
 79.8604 99.4961 79.709 84.8613 74.6826 75.5205 c 4
 63.8135 55.3242 39.7441 51.2793 21.1611 44.8555 c 4
 12.168 41.8975 -1.0127 31.2168 3.29004 19.7129 c 4
 7.37598 8.64551 26.6514 11.2432 35.2324 11.5654 c 4
 45.8643 12.668 57.2617 17.7168 67.8896 16.4775 c 4
 76.5107 15.083 82.4922 7.05176 91.248 7.54688 c 4
 101.831 8.04883 142.751 18.0176 153.853 15.083 c 4
 187.366 4.21484 218.807 22.8428 252.703 25.3184 c 4
 290.286 28.0654 330.547 36.1865 368.027 34.1836 c 4
 382.054 33.2705 397.377 33.9971 410.862 30.1406 c 4
 419.857 27.5645 427.892 21.3818 437.223 20.2451 c 4
 466.064 16.7383 494.731 25.25 519.598 39.7041 c 5
 525.129 30.7393 534.734 23.4502 541.369 36.1865 c 4
 548.021 50.1143 541.797 67.2021 541.408 81.2607 c 4
 540.607 110.048 567.954 159.123 532.777 173.356 c 5
 517.036 138.185 519.389 92.0908 486.648 67.793 c 4
 474.812 58.9277 462.138 62.3379 448.508 63.3066 c 4
 431.666 64.3232 414.157 64.3232 397.683 64.3232 c 4
 346.26 64.3203 294.488 49.2793 242.817 46.5996 c 4
 211.091 44.958 184.653 41.623 162 72.0938 c 4
 148.453 90.3145 156.385 134.166 159.046 155.771 c 4
 161.772 177.936 159.657 200.327 160.442 222.599 c 4
 161.209 238.082 163.737 252.705 162.705 268.322 c 4
 161.16 285.32 153.853 299.977 153.853 317.563 c 5
 176.918 321.081 l 5
 176.709 331.632 175.785 342.805 181.555 352.68 c 4
 188.502 364.585 203.277 369.566 196.688 384.39 c 5
 249.407 440.666 l 5
 260.815 464.479 294.891 476.947 318.555 481.814 c 4
 336.269 485.454 358.113 482.147 364.732 503.975 c 5
 272.473 522.966 185.657 441.785 157.148 352.735 c 5
 153.853 352.735 l 5
 160.395 451.218 l 5
 157.148 521.562 l 5
 173.623 750.18 l 5
 202.158 752.835 230.909 770.414 259.293 757.215 c 5
 308.718 760.731 l 5
 308.718 767.766 l 5
 368.027 770.144 l 5
 440.518 771.284 l 5
 449 741.436 480.058 754.988 499.815 743.146 c 4
 521.158 731.412 527.887 702.877 533.582 679.835 c 4
 535.619 671.593 536.072 645.639 549.204 647.903 c 4
 559.138 649.679 559.076 664.754 559.038 672.802 c 4
 558.929 696.741 555.125 721.352 559.138 745.173 c 4
 561.358 757.073 570.062 771.888 562.34 783.546 c 4
 555.534 793.815 539.368 792.329 529.482 792.384 c 4
 500.726 792.386 472.406 795.197 443.812 792.386 c 4
 419.65 790.952 395.633 795.903 371.322 795.726 c 4
 315.002 794.24 259.293 784.315 203.277 781.835 c 4
 184.39 781.189 166.032 786.551 147.263 787.551 c 4
 137.378 788.073 107.7 785.352 97.8379 785.352 c 5
EndSplineSet
MinimumDistance: x18,-1 
EndChar
StartChar: F
Encoding: 70 70
Width: 742
Flags: W
HStem: 762.217 19.6526<262 266>
VStem: 106.521 81.783<135 167> 106.521 75.5902<313.581 339.182>
DStem: 370.38 788.596 370.38 788.596 266.84 781.87 423.768 782.446
Fore
6.32031 768.149 m 1
 9.66016 739.33 33.04 752.165 53.0801 743.855 c 0
 76.46 733.85 88.4404 720.13 95.1982 696.12 c 0
 101.295 673.955 97.2402 656.514 96.5 634.38 c 0
 95.6719 602.913 95.6426 570.04 96.5 538.34 c 0
 96.5 520.011 101.135 501.682 102.903 483.46 c 0
 105.196 459.45 102.958 435.179 103.18 411.43 c 0
 103.18 393.141 107.981 374.734 109.583 356.55 c 0
 109.86 347.057 106.521 338.429 106.521 329.109 c 0
 106.521 308.53 113.011 287.759 113.011 267.37 c 0
 113.011 226.21 106.521 184.654 106.521 143.89 c 0
 106.481 128.15 112.222 103.839 104.106 89.0098 c 0
 94.0508 71.2705 66.2383 63.5762 49.7402 53.8525 c 0
 42.0459 49.3174 31.3896 41.8438 34.8018 30.7002 c 0
 36.3799 24.8887 44.0908 22.5967 49.7402 22.0273 c 0
 57.8457 21.2168 65.1709 25.1426 73.1201 25.8398 c 0
 83.1396 26.7676 95.2314 23.6318 105.408 25.2705 c 0
 109.814 25.9766 109.221 30.7002 109.86 34.1299 c 2
 113.2 34.1299 l 1
 114.4 25.2266 115.559 8.87695 126.561 7.29297 c 0
 139.392 5.54395 146.202 26.2412 156.503 31.376 c 0
 165.395 35.8047 174.015 33.416 183.34 34.0156 c 0
 198.348 34.9707 212.457 37.5596 226.76 42.3125 c 0
 238.806 45.873 251.295 47.8496 263.301 51.2803 c 0
 268.188 53.2158 274.733 55.3936 274.733 61.5693 c 0
 274.733 75.9062 248.085 68.333 240.12 70.4395 c 0
 222.168 75.1895 199.137 95.2002 192.496 113.02 c 0
 183.138 138.139 191.912 172.221 189.449 198.77 c 0
 186.396 231.74 183.996 264.801 183.072 297.935 c 0
 182.606 314.465 180.643 333.494 184.188 349.689 c 0
 187.629 365.433 199.697 377.887 208.36 390.85 c 0
 234.217 429.518 259.521 462.159 300.24 485.128 c 0
 326.383 499.876 353.507 497.971 380.4 507.47 c 1
 372.761 531.479 339.286 522.299 320.28 517.622 c 0
 258.992 502.553 225.781 446.312 180 408 c 1
 179.746 420.661 176.66 433.115 176.66 445.729 c 0
 176.66 465.295 181.021 484.243 179.703 504.04 c 0
 177.7 534.016 169.645 563.147 168.043 593.22 c 0
 166.64 611.281 169.589 629.981 169.98 648.1 c 0
 170.629 672.971 167.671 719.092 196.7 726.989 c 1
 203.38 737.28 l 1
 200.04 730.42 l 1
 209.604 734.781 220.08 738.127 229.402 743.067 c 0
 236.411 746.816 240.12 753.978 247.498 757.819 c 0
 261.925 765.882 294.229 764.301 306.92 754.43 c 2
 310.26 754.43 l 1
 319.472 769.074 343.66 771.52 357.021 761.29 c 2
 360.36 761.29 l 2
 375.84 772.869 395.884 761.062 413.8 762.007 c 0
 447.2 763.782 487.186 771.027 520.68 764.72 c 0
 528.955 763.443 536.029 758.442 544.061 756.128 c 0
 557.42 752.139 571.462 752.731 583.054 742.428 c 0
 609.043 719.322 607.521 685.83 617.077 654.96 c 0
 619.468 647.182 626.787 637.81 635.577 644.67 c 0
 644.028 651.302 640.92 669.647 640.917 678.97 c 0
 640.832 696.786 635.029 715.937 638.493 733.545 c 0
 640.617 744.14 647.358 754.306 650.94 764.72 c 1
 645.525 788.633 l 1
 610.86 789.434 l 1
 537.38 786.891 l 1
 480.601 785.3 l 1
 423.768 782.446 l 1
 370.38 788.596 l 1
 266.84 781.87 l 1
 166.64 781.87 l 1
 156.62 795.59 144.581 785.3 129.884 786.204 c 0
 115.232 786.684 104.009 780.828 89.8203 778.439 c 0
 61.9385 774.923 33.8818 774.893 6.32031 768.149 c 1
EndSplineSet
MinimumDistance: x61,-1 
EndChar
StartChar: G
Encoding: 71 71
Width: 583
Flags: W
HStem: -3.26111 31.4949<201 209> 172.2 213.595<408 411.18>
VStem: 413.593 19.2371<118 156>
Fore
252.315 739.025 m 1
 253.395 736.534 255.43 731.331 255.43 739.025 c 1
 252.315 739.025 l 1
46.7246 64.5752 m 1
 65.415 62.9385 74.1514 49.29 84.1055 32.2871 c 0
 90.3291 22.8076 95.9141 10.2158 105.91 6.50977 c 0
 117.232 2.5293 128.896 9.77832 140.175 7.1748 c 0
 157.286 4.45605 172.384 -3.58789 190.015 -3.58789 c 0
 278.851 -3.58789 394.023 62.2842 408.065 172.2 c 1
 411.18 172.2 l 1
 417.304 134.178 411.755 92.0947 408.595 53.8125 c 0
 405.729 19.1533 401.835 -15.5234 399.249 -50.2246 c 0
 394.814 -104.037 391.121 -165.999 357.2 -207.409 c 0
 349.528 -216.777 339.535 -222.923 330.19 -229.6 c 1
 351.995 -186.55 l 1
 305.27 -200.9 l 1
 308.385 -192.772 318.943 -181.6 317.66 -172.399 c 0
 316.151 -161.592 305.228 -162.853 299.04 -167.26 c 0
 290.514 -173.562 284.119 -185.387 284.393 -197.312 c 0
 285.123 -229.6 319.397 -260.63 345.765 -245.481 c 0
 375.352 -228.493 391.896 -195.635 403.505 -161.438 c 0
 416.105 -124.322 417.41 -82.5127 421.055 -43.0498 c 0
 425.903 14.3496 431.47 71.3721 432.83 129.15 c 0
 433.611 162.898 428.282 200.669 435.872 233.188 c 0
 438.169 243.015 442.33 252.074 444.642 261.888 c 0
 451.675 292.567 455.797 328.067 479.71 349.231 c 0
 488.681 356.784 497.597 356.119 507.268 359.833 c 0
 513.032 362.043 516.972 367.943 511.912 374.095 c 0
 503.565 383.862 481.496 381.669 470.365 382.086 c 0
 446.023 382.99 419.841 387.45 395.605 385.166 c 0
 384.922 383.862 375.175 378.212 364.455 376.688 c 0
 352.904 375.818 341.716 378.089 330.19 378.362 c 0
 325.381 378.478 318.844 378.155 316.957 371.74 c 0
 312.729 357.377 341.533 353.954 348.88 351.575 c 1
 349.665 331.574 368.103 314.26 373.709 294.175 c 0
 383.948 257.48 380.715 217.104 377.441 179.375 c 0
 376.066 163.557 376.191 147.088 370.463 132.737 c 0
 360.731 107.506 342.468 93.1279 323.96 77.2256 c 0
 282.521 41.6035 219.727 12.8467 168.21 36.625 c 0
 149.52 45.1377 137.06 58.668 124.074 75.3379 c 0
 117.713 83.4512 110.382 91.001 105.466 100.45 c 0
 97.5996 115.557 95.71 137.109 93.2031 154.263 c 0
 83.9473 217.53 95.376 278.073 99.6797 340.812 c 1
 118.37 326.463 l 1
 126.769 358.75 116.134 394.047 120.983 426.912 c 0
 130.374 490.591 153.398 548.103 176.594 606.287 c 0
 194.565 651.377 217.149 703.15 255.43 729.818 c 0
 267.89 738.443 279.397 742.612 292.81 749.409 c 0
 314.113 759.247 322.436 768.854 345.765 760.55 c 1
 345.765 767.725 l 1
 355.11 764.138 l 1
 363.375 778.487 378.811 773.219 392.49 774.9 c 1
 389.375 764.138 l 1
 418.594 756.129 473.48 763.398 485.94 721.088 c 1
 520.205 724.675 l 1
 500.934 772.815 445.146 794.099 401.835 796.285 c 0
 383.145 797.224 354.715 786.84 339.535 800.013 c 1
 306.682 788.354 274.783 776.203 242.97 761.296 c 0
 233.406 756.818 224.04 754.384 214.935 747.854 c 0
 184.436 724.675 154.566 693.897 132.731 660.1 c 0
 123.243 645.417 116.201 628.702 107.419 613.463 c 0
 94.2285 590.582 78.5352 569.701 67.377 545.3 c 0
 57.874 524.524 52.5781 502.25 46.0166 480.725 c 0
 38.2861 454.803 28.0352 428.482 23.1377 401.8 c 0
 17.8174 375.304 17.2607 349.666 15.0459 322.875 c 0
 12.46 295.289 8.4082 268.204 9.34473 240.362 c 0
 10.4102 215.25 12.46 185.197 18.6904 161.438 c 0
 26.9707 128.484 40.4951 98.3936 46.7246 64.5752 c 1
EndSplineSet
MinimumDistance: x21,-1 
EndChar
StartChar: H
Encoding: 72 72
Width: 706
Flags: W
HStem: 30.3975 22.1012<156 171> 492.996 2.81741<347.908 349.219> 532.348 28.5651<444 449> 535.511 24.4912<432 432 434 435>
VStem: 54.289 73.0772<334.021 351.359> 67.9568 67.5842<633.294 661.017> 499.055 82.1799<333 398> 506.612 93.675<688 694>
Fore
562.964 474.353 m 1
 563.388 471.729 563.9 471.118 563.9 474.353 c 2
 562.964 474.353 l 1
347.503 495.813 m 1
 347.946 492.239 348.707 491.879 349.839 495.813 c 1
 347.503 495.813 l 1
522.77 772.324 m 0
 521.847 769.64 522.438 765.27 524.404 769.714 c 0
 524.938 770.917 523.26 773.432 522.77 772.324 c 0
556.421 761.987 m 1
 557.394 759.568 559.226 754.519 559.226 761.987 c 1
 556.421 761.987 l 1
458.271 20.876 m 1
 458.271 10.4385 l 1
 470.915 11.1719 482.39 19.1162 494.727 18.8984 c 0
 500.336 18.79 508.015 18.5996 513.631 15.8545 c 0
 519.016 13.2246 522.526 6.95898 528.378 6.95898 c 0
 536.394 6.95898 543.251 13.5371 550.81 14.7744 c 0
 563.73 16.8877 579.86 16.1123 592.877 15.0801 c 0
 605.431 13.918 616.85 15.3857 629.318 17.1523 c 0
 633.648 17.3975 640.289 17.3975 642.86 22.9082 c 0
 646.985 31.3145 637.061 36.7236 632.085 38.2734 c 0
 615.311 43.7783 595.495 39.2861 582.407 55.6699 c 0
 565.872 77.2197 571.535 113.121 574.046 139.176 c 0
 578.855 191.054 582.996 243.408 584.344 295.749 c 0
 584.464 315.442 581.235 335.089 581.235 354.898 c 0
 581.232 386.213 583.259 417.527 584.354 448.842 c 0
 586.518 510.662 586.392 571.844 594.065 633.25 c 0
 596.604 653.542 600.805 675.003 600.287 695.879 c 0
 599.939 709.742 593.739 720.234 600.879 733.704 c 0
 608.577 747.689 623.724 758.467 634.94 768.016 c 0
 638.967 771.413 646.158 776.979 642.86 784.312 c 0
 640.55 788.804 635.751 789.197 632.085 789.612 c 0
 620.919 790.869 609.552 789.639 598.485 789.034 c 0
 575.769 787.791 556.081 795.028 533.987 799.228 c 0
 522.77 801.294 512.369 799.859 501.524 800.988 c 0
 490.523 802.123 477.901 805.989 466.685 804.664 c 0
 455.467 803.318 460.106 787.845 464.847 780.566 c 0
 473.876 766.717 490.053 765.249 498.673 750.891 c 0
 505.673 739.235 505.196 720.234 505.881 706.317 c 0
 507.354 676.484 507.447 649.227 505.183 619.332 c 0
 503.14 595.941 508.521 572.999 508.022 549.744 c 0
 507.417 521.651 502.135 494.074 500.336 466.239 c 0
 497.531 412.621 497.531 356.128 500.336 302.707 c 0
 502.598 266.235 505.944 227.859 505.583 191.367 c 0
 505.284 177.266 501.385 163.531 500.336 149.614 c 0
 499.213 125.258 501.655 95.9014 494.311 73.0674 c 0
 488.286 54.3584 471.586 48.7119 456.655 46.5508 c 0
 449.746 45.2324 438.162 49.541 433.95 39.8428 c 0
 426.844 23.4727 451.25 20.876 458.271 20.876 c 1
65.6729 765.467 m 1
 65.6729 721.75 69.1562 676.668 67.7812 633.25 c 0
 64.8047 539.272 57.7559 445.24 54.4551 351.419 c 0
 52.834 300.451 62.6523 249.775 59.8125 198.325 c 0
 58.333 171.51 54.0342 145.034 52.1357 118.3 c 0
 51.1914 105 55.1396 89.1396 50.7451 76.5469 c 0
 44.5283 58.8574 33.5059 59.1494 20.5439 58.3682 c 0
 14.0234 57.7432 2.9541 56.6289 0.226562 47.6309 c 0
 -3.14453 36.5068 6.40723 27.835 10.792 20.2988 c 0
 14.2207 13.918 15.916 6.94531 18 0 c 1
 32.6123 5.32812 44.7695 16.2354 60.0645 19.3408 c 0
 68.4766 20.876 78.8857 22.9697 87.6299 21.7734 c 0
 96.4131 20.5703 104.265 14.7197 113.337 14.9912 c 0
 127.366 15.4199 141.388 26.626 155.409 30.3975 c 0
 165.95 33.2783 175.729 29.4727 186.204 29.0312 c 0
 190.269 28.8613 196.759 29.0996 197.474 35.5752 c 0
 199.023 44.7568 188.943 49.751 183.438 51.2188 c 0
 166.418 55.6699 142.409 45.9932 129.327 64.083 c 0
 117.858 79.9443 120.46 99.2031 121.506 118.3 c 0
 123.092 147.201 121.522 176.328 122.938 205.284 c 0
 123.858 224.115 123.793 238.216 132.976 253.996 c 1
 132.976 257.476 l 1
 128.808 276.429 140.539 288.79 149.801 302.707 c 0
 167.785 327.063 185.566 349.108 205.887 370.338 c 0
 216.832 381.775 224.955 393.858 239.538 396.651 c 1
 244.04 415.692 258.611 426.368 270.385 438.404 c 0
 304.001 474.496 348.406 507.143 390.969 522.874 c 0
 406.217 528.515 429.245 541.474 444.25 532.348 c 2
 447.055 532.348 l 1
 449.858 532.348 l 1
 469.488 556.703 l 1
 435.571 569.173 397.394 551.43 365.73 536.418 c 0
 308.517 509.283 259.168 471.764 208.69 428.985 c 0
 180.453 405.092 146.115 372.152 130.171 334.021 c 1
 127.366 334.021 l 1
 127.366 396.651 l 1
 135.541 438.404 l 1
 135.67 661.085 l 1
 144.192 768.946 l 1
 161.585 762.681 190.471 758.358 197.474 782.864 c 1
 146.997 792.548 l 1
 54.4551 794.763 l 1
 29.2168 790.931 l 1
 14.5 787.424 l 1
 20.8037 771.046 l 1
 65.6729 765.467 l 1
EndSplineSet
MinimumDistance: x24,-1 
EndChar
StartChar: I
Encoding: 73 73
Width: 292
Flags: W
Fore
117 776.18 m 5
 117 776.18 l 5
 92.835 776.18 67.8789 778.815 44.0156 782.589 c 4
 38.1025 783.525 22.2275 788.004 20.5303 778.541 c 4
 18.6416 768.045 38.3555 753.537 44.0156 745.819 c 4
 62.1709 721.52 85.0049 694.189 83.6953 662.62 c 4
 81.1172 600.448 83.0869 537.836 80.3779 475.58 c 4
 76.4512 385.292 63.9199 295.777 67.2383 205.04 c 4
 67.2383 192.361 72.8428 180.87 73.6943 168.3 c 4
 75.5576 140.784 69.5996 111.52 73.873 84.7998 c 5
 63.9199 81.46 l 5
 70.5557 50.1641 43.6621 56.8242 23.1777 47.5938 c 4
 18.1748 45.3398 8.40723 43.8135 7.26074 37.1758 c 4
 5.92578 29.458 14.7217 26.2939 20.5596 25.4434 c 4
 36.0361 23.1826 55.4844 28.9883 70.0693 22.6641 c 4
 78.0713 19.1934 79.708 5.89258 87.752 4.37598 c 4
 95.3525 2.94336 107.838 16.5381 117 18 c 5
 143.54 21.3398 l 5
 143.54 21.3398 139.205 5.81445 143.54 21.3398 c 5
 158.288 18 177.921 22.4424 192.94 24.6797 c 4
 198.247 26.1348 203.894 28.0195 204.078 34.7002 c 4
 204.412 46.1582 187.335 54.7402 180.033 61.4199 c 4
 163.445 77.3926 148.682 97.7588 147.729 121.54 c 4
 143.54 212.764 161.174 303.965 163.396 395.42 c 4
 165.272 472.24 162.233 549.06 169.517 625.88 c 4
 171.843 650.355 168.862 679.043 175.286 702.7 c 4
 179.32 717.563 190.662 734.547 203.255 742.779 c 4
 217.484 752.659 228.098 751.208 233.113 769.5 c 5
 219.843 772.84 207.604 770.371 194.382 772.553 c 4
 186.668 773.815 180.882 779.52 173.09 780.463 c 4
 164.284 781.376 155.773 776.18 146.857 777.82 c 4
 130.141 780.427 146.857 764.46 146.857 777.82 c 5
 117 776.18 l 5
EndSplineSet
EndChar
StartChar: J
Encoding: 74 74
Width: 325
Flags: W
HStem: -372.169 30.1635<58 65>
VStem: 80.344 122.593<906 915> 108.366 59.0727<380.747 428.493 592.052 621.134> 110.524 45.745<-53 -25>
Fore
201.656 792.664 m 0
 193.943 800.225 184.032 797.399 175.557 798.787 c 0
 159.929 801.343 143.135 806.271 127.454 805.235 c 0
 119.294 804.693 111.591 799.237 103.403 798.089 c 0
 95.6104 798.089 74.9873 803.045 70.708 788.196 c 0
 69.1621 782.842 70.7129 777.448 73.2832 774.105 c 0
 82.4756 762.149 91.7959 763.183 99.1465 744.585 c 0
 106.795 725.249 105.695 703.369 106.349 681.152 c 0
 106.928 661.382 108.214 640.936 107.969 621.187 c 0
 106.663 563.466 110.407 505.994 109.187 448.398 c 0
 106.649 328.225 102.849 206.694 105.809 86.3662 c 0
 106.842 49.3379 109.576 12.2979 110.524 -24.7119 c 0
 111.116 -47.9854 109.904 -71.4004 110.618 -94.6504 c 0
 111.75 -117.586 116.236 -141.584 115.133 -164.588 c 0
 114.476 -178.256 109.679 -189.271 107.884 -201.613 c 0
 101.604 -247.041 104.295 -315.823 74.541 -338.168 c 0
 58.7246 -350.045 30.4648 -334.849 22.0557 -308.578 c 0
 17.96 -295.46 20.3184 -277.068 14.207 -265.887 c 0
 9.60352 -257.977 4.68945 -263.324 3.14844 -272.166 c 0
 -9.91113 -348.406 47.2764 -389.524 81.7568 -365.234 c 0
 99.9414 -352.418 116.021 -329.739 126.013 -300.352 c 0
 129.859 -288.909 131.269 -275.666 135.328 -264.244 c 0
 138.893 -255.096 146.235 -249.926 147.842 -238.641 c 0
 149.734 -224.101 146.625 -207.986 147.716 -193.386 c 0
 150.492 -156.368 149.1 -119.334 151.505 -82.4688 c 0
 152.698 -69.9658 155.982 -58.3672 156.269 -45.2812 c 0
 156.818 -20.5986 153.91 3.9375 153.91 28.7695 c 0
 153.638 55.6787 155.451 84.1309 156.316 111.048 c 0
 158.397 157.727 161.126 204.264 163.314 250.926 c 0
 164.138 271.451 162.912 292.066 163.531 312.62 c 0
 165.729 349.662 172.55 390.802 169.498 428.527 c 0
 164.964 483.539 165.584 536.523 167.439 592.021 c 0
 168.342 627.2 168.021 659.156 177.168 691.124 c 0
 183.736 714.712 188.16 743.951 202.013 756.948 c 1
 201.656 792.664 l 0
EndSplineSet
MinimumDistance: x25,-1 
Ref: 135 N 1 0 0 1 78 6
Ref: 160 N 1 0 0 1 80 -8
EndChar
StartChar: K
Encoding: 75 75
Width: 589
Flags: W
VStem: 60.6056 89.2733<230.511 256.646> 80.5264 84.1074<475.6 660>
Fore
268.897 450.843 m 1
 268.897 467.348 268.33 480.107 282.107 489.678 c 1
 289.525 473.201 287.693 457.904 289.273 440.252 c 0
 292.625 402.592 296.162 365.008 298.62 327.272 c 0
 300.578 304.26 308.521 282.222 314.458 260.197 c 0
 323.476 226.751 331.562 192.822 346.087 161.344 c 0
 362.348 126.039 388.581 85.2109 420.812 65.0459 c 0
 443.93 50.3721 476.707 54.0752 490.165 27.1865 c 1
 478.048 22.2969 463.567 16.1357 450.535 15.4502 c 0
 441.602 14.9814 433.062 19.2598 424.115 17.5908 c 0
 417.271 16.3086 410.905 12.1055 404.3 10.6748 c 0
 377.119 4.96875 346.193 6.78223 318.435 6.00293 c 0
 307.485 5.76562 267.062 0.832031 266.736 20.125 c 0
 266.533 32.2988 284.349 33.3711 292.015 35.2676 c 0
 311.83 40.2285 336.309 58.5674 329.752 83.6738 c 0
 321.415 115.448 298.62 143.351 290.989 175.466 c 0
 287.877 188.381 291.608 201.282 290.773 214.301 c 0
 289.441 235.104 284.648 257.832 278.805 277.85 c 0
 273.387 299.971 270.143 322.56 265.153 344.877 c 0
 261.251 362.315 256.326 369.384 262.293 387.295 c 1
 268.897 450.843 l 1
196.242 472.025 m 1
 281.295 595.593 l 1
 338.25 648.55 l 1
 374.577 680.324 l 1
 388.616 657.841 425.079 692.663 447.232 687.385 c 0
 460.056 684.558 473.018 671.897 477.819 659.127 c 0
 480.258 651.884 479.577 642.551 484.146 636.151 c 0
 489.823 628.208 499.285 632.376 506.678 634.428 c 1
 503.375 645.019 l 1
 508.055 680.324 l 1
 515.485 708.567 l 1
 512.731 732.498 l 1
 520.713 750.934 l 1
 523.19 779.177 l 1
 500.072 775.646 l 1
 495.957 789.769 491.014 796.829 476.955 800.359 c 1
 474.678 789.769 474.353 777.836 468.356 769.341 c 0
 459.739 757.122 442.931 752.864 430.72 746.041 c 0
 406.315 732.398 383.756 717.128 361.367 700.021 c 0
 296.53 650.467 236.485 594.972 195.224 521.452 c 0
 186.335 506.021 175.824 492.478 169.822 475.557 c 1
 166.52 475.557 l 1
 166.269 523.79 164.634 572 164.634 620.306 c 0
 164.634 651.708 160.973 688.268 167.52 719.159 c 0
 170.829 734.767 181.895 745.758 196.242 749.23 c 0
 205.621 750.934 219.36 749.402 225.707 759.511 c 0
 229.961 766.834 225.965 778.14 225.965 786.238 c 1
 169.822 789.596 l 1
 113.68 800.039 l 1
 70.7471 796.829 l 1
 19.9619 797.685 l 1
 21.21 761.524 l 1
 85.041 753.926 80.6553 663.927 81.4971 613.245 c 0
 81.5674 601.525 80.6553 589.648 80.5264 577.94 c 0
 78.6748 535.574 79.7686 492.926 77.0586 450.843 c 0
 75.3076 423.679 68.8027 396.928 67.4453 369.642 c 0
 66.5645 347.28 69.6123 324.697 68.4414 302.563 c 0
 67.4453 290.352 61.6689 279.632 60.8398 267.259 c 0
 58.3789 220.245 72.3145 172.846 66.0322 126.039 c 0
 63.1367 104.491 59.1982 74.1855 47.3457 55.4297 c 0
 37.2803 40.4941 21.21 49.1963 17.9072 27.1865 c 1
 7.68066 25.4004 -8.5127 12.6572 8 4.60352 c 0
 25.4482 -3.43652 46.1016 10.3994 64.0137 4.77246 c 0
 71.9961 2.26562 80.6553 -8.2666 89.6396 -5.49512 c 0
 96.126 -3.4502 96.2646 3.7627 97.168 9.53418 c 1
 104.756 10.5303 112.684 12.5537 120.285 10.8271 c 0
 133.085 7.91992 141.332 -1.05762 150.008 13.0645 c 1
 179.73 9.53418 l 1
 186.335 29.6133 l 1
 169.822 41.3076 l 1
 153.31 58.96 l 1
 143.402 115.444 l 1
 149.879 200.18 l 1
 150.614 256.667 l 1
 156.306 288.441 l 1
 161.624 380.233 l 1
 196.242 472.025 l 1
EndSplineSet
MinimumDistance: x42,-1 
EndChar
StartChar: L
Encoding: 76 76
Width: 646
Flags: W
VStem: 73.3408 85.9381<491 534.7> 74.7588 80.9668<163 182 656.411 680> 79.5957 87.4094<332.844 405.945>
DStem: 75.2168 220.763 76.3057 186.463 61.8662 176.173 65.4756 176.173
Fore
162.946 237.912 m 1
 164.197 235.531 166.556 230.557 166.556 237.912 c 1
 162.946 237.912 l 1
7.71582 766.133 m 1
 47.4258 755.843 l 1
 75.7275 680.383 l 1
 74.7588 622.072 l 1
 73.3408 491.732 l 1
 79.5957 426.562 l 1
 79.5957 275.643 l 1
 75.2168 220.763 l 1
 61.8662 176.173 l 1
 65.4756 176.173 l 1
 76.3057 186.463 l 1
 76.3057 149.482 77.1133 115.229 63.001 80.1328 c 0
 53.3906 56.1221 32.7256 35.2949 4.10645 35.542 c 1
 -4.7002 -1.53125 54.6465 14.416 76.3057 14.8115 c 0
 91.3945 14.9629 102.327 3.8584 112.406 18.3926 c 1
 135 0 l 1
 184.606 3.70117 l 1
 213.486 11.5322 l 1
 321.786 4.67285 l 1
 383.156 10.3799 l 1
 430.086 0.914062 l 1
 502.286 10.0322 l 1
 537.632 14.46 l 1
 567.266 32.1123 l 1
 558.445 38.5068 544.594 38.3828 537.582 46.9248 c 0
 532.354 53.292 532.784 61.9375 531.801 69.5381 c 0
 528.938 91.6885 527.556 112.765 529.309 135.013 c 0
 529.837 143.266 529.802 163.702 516.726 163.702 c 0
 505.621 163.702 503.763 145.886 501.796 138.442 c 0
 499.646 130.293 500.686 121.292 498.087 113.418 c 0
 495.718 106.229 488.686 101.744 486.376 94.4385 c 0
 481.916 80.1328 484.997 69.7549 472.581 58.2461 c 0
 451.746 38.9727 427.53 42.4023 401.206 42.4023 c 0
 366.354 42.4023 331.312 43.8359 296.516 43.3975 c 0
 259.429 42.4023 224.316 38.6514 197.734 67.7119 c 0
 189.115 76.7021 184.606 89.6123 179.889 100.713 c 0
 172.214 116.888 160.658 134.631 157.263 152.162 c 0
 149.99 189.722 161.063 231.053 162.805 268.782 c 0
 164.906 314.424 168.526 360.173 166.415 405.982 c 0
 165.146 433.412 160.098 460.849 159.336 488.303 c 0
 158.296 530.698 164.173 573.128 162.89 615.212 c 0
 162.322 633.896 155.726 651.147 155.726 670.093 c 0
 155.688 691.296 151.915 716.729 165.484 735.115 c 0
 172.638 744.812 205.067 758.113 198.408 772.222 c 0
 192.527 784.692 171.661 786.712 159.336 786.062 c 0
 121.139 782.392 82.0596 786.615 43.8164 781.829 c 0
 28.2871 779.853 13.2471 781.966 7.71582 766.133 c 1
EndSplineSet
MinimumDistance: x1,-1 
EndChar
StartChar: M
Encoding: 77 77
Width: 1150
Flags: W
HStem: 27.3503 30.0951<1028 1042> 32.8165 53.2685<522 525> 32.9941 46.3213<520 521> 722.465 60.0679<771 774>
Fore
409.115 800.32 m 1
 405.798 780.01 l 1
 380.864 780.962 377.45 751.677 369.176 732.62 c 0
 362.557 717.374 352.718 703.781 346.083 688.615 c 0
 332.252 657.509 321.7 625.021 308.133 593.835 c 0
 286.368 544.921 261.707 497.551 241.04 448.28 c 0
 217.264 391.588 198.081 332.804 175.387 275.646 c 0
 168.017 257.077 157.827 239.799 149.894 221.485 c 0
 133.328 183.259 118.947 144.265 101.683 106.396 c 0
 89.8545 80.4717 58.6914 65.6797 34.2373 54.1162 c 0
 24.2852 49.6465 4.37988 47.1904 2.30957 34.877 c 0
 0.145508 23.9883 8.81543 19.1357 17.6504 17.1592 c 0
 32.4043 13.8994 45.4766 19.5889 54.1426 4.84473 c 1
 84 15 l 1
 84.8848 9.57227 85.627 -0.245117 93.752 1.18945 c 0
 105.425 3.25195 109.271 19.7969 122.414 21.6475 c 0
 128.392 22.4912 134.407 20.3486 140.397 21.0459 c 0
 146.9 21.7705 152.758 24.8613 159.344 24.7715 c 0
 186.57 24.415 229.332 3.41699 246.558 35.3105 c 1
 224.657 48.8506 180.998 41.6934 170.255 69.1602 c 0
 158.825 98.9375 193.15 132.526 204.516 157.17 c 0
 213.376 176.379 214.77 200.95 220.957 221.485 c 0
 272.554 392.735 372.218 545.083 425.703 715.695 c 1
 455.359 664.381 465.399 610.033 479.939 553.215 c 0
 485.418 531.375 493.987 511.429 497.858 488.9 c 0
 501.778 466.088 508.641 444.068 511.958 421.2 c 0
 513.808 411.045 514.462 397.38 523.346 391.356 c 0
 532.971 384.831 547.607 390.735 558.402 390.735 c 1
 510.859 543.061 l 1
 495.283 634.455 l 1
 468.83 698.771 l 1
 448.925 746.16 l 1
 455.561 783.396 l 1
 435.655 780.01 l 1
 430.329 793.55 424.407 802.574 409.115 800.32 c 1
392.527 25.1553 m 1
 389.21 18.3848 383.871 7.53906 393.633 3.85645 c 0
 405.597 -0.655273 418.051 13.3242 429.021 15.9326 c 0
 436.848 17.79 444.486 16.3291 452.243 19.2285 c 0
 465.513 24.2822 477.383 33.1387 492.053 34.8701 c 0
 513.072 37.3525 543.655 21.5879 551.768 48.8506 c 1
 536.6 57.9932 527.605 67.9375 525.228 86.085 c 1
 521.91 86.085 l 1
 521.91 79.3154 l 1
 518.593 79.3154 l 1
 533.003 130.09 l 1
 604.142 289.186 l 1
 616.511 339.96 l 1
 642.021 407.657 l 1
 643.2 435.709 l 1
 657.928 468.59 l 1
 693.694 549.83 l 1
 738.416 647.995 l 1
 770.723 722.465 l 1
 774.04 722.465 l 1
 781.806 687.904 794.791 654.765 804.662 620.915 c 0
 811.174 598.52 813.766 575.234 821.713 553.215 c 0
 833.755 519.358 850.343 485.515 861.044 451.665 c 0
 874.395 407.326 877.485 359.92 892.459 316.265 c 0
 903.387 284.412 917.707 253.438 927.98 221.485 c 0
 935.036 199.529 938.917 176.111 944.855 153.785 c 0
 949.404 136.695 959.642 120.643 961.987 103.01 c 0
 965.12 79.3154 942.64 63.1074 923.328 55.6035 c 0
 915.649 52.2354 891.915 53.458 895.962 39.2705 c 0
 898.439 30.583 909.475 28.54 916.692 26.6787 c 0
 937.81 20.4053 955.79 27.2148 976.392 24.249 c 0
 993.64 21.7666 991.978 5.7373 1004.31 -1.9248 c 0
 1016.06 -8.69531 1019 6.57031 1018.52 14.8643 c 0
 1018.26 19.377 1017.02 24.124 1016.22 28.54 c 1
 1033.5 25.1123 1052.67 29.5713 1069.23 35.3105 c 0
 1074.33 37.3164 1084.2 40.8535 1082.57 48.2285 c 0
 1080.97 58.2119 1059.35 56.6943 1052.71 56.6016 c 0
 1028.39 56.2842 1007.52 55.6201 996.312 82.7002 c 0
 976.408 132.629 963.863 183.744 947.383 235.025 c 0
 937.168 266.799 921.772 297.757 913.113 329.805 c 0
 905.609 357.572 904.621 386.771 896.668 414.43 c 0
 882.04 465.205 858.05 512.595 843.419 563.37 c 0
 827.062 619.891 812.12 676.397 794.59 732.62 c 0
 790.628 743.688 790.54 783.038 776.865 783.396 c 0
 770.224 783.396 764 779.478 757.453 778.668 c 0
 750.183 777.759 742.653 780.01 735.938 776.47 c 0
 722.768 768.52 716.071 749.383 709.987 736.005 c 0
 696.494 706.337 681.15 677.555 667.485 647.995 c 0
 647.976 606.625 635.998 562.21 620.029 519.365 c 0
 592.171 444.638 559.161 372.944 528.545 299.34 c 0
 513.098 260.479 502.005 221.485 483.296 184.25 c 0
 468.402 154.608 458.651 115.366 437.664 89.4697 c 0
 427.08 76.8652 411.344 64.7441 398.217 54.5127 c 0
 392.365 49.9512 383.424 46.999 379.258 40.2588 c 0
 373.511 29.7764 385.145 26.4082 392.527 25.1553 c 1
EndSplineSet
MinimumDistance: x40,-1 x40,42 y42,40 y42,41 
EndChar
StartChar: N
Encoding: 78 78
Width: 697
Flags: W
HStem: 2.74379 781.103<89.7288 114.657>
VStem: 478.552 97.9789<590 627> 489.893 68.4208<290 334>
Fore
202.706 733.513 m 1
 195.436 716.922 204.069 709.184 212.676 695.28 c 0
 222.046 681.378 233.529 678.595 245.911 668.697 c 0
 260.006 657.048 272.002 643.146 283.118 629.242 c 0
 314.554 588.59 344.761 547.33 367.554 500.643 c 0
 383.038 468.927 389.588 434.146 397.128 399.849 c 0
 403.105 372.644 411.252 347.713 414.459 319.908 c 0
 418.039 288.627 418.571 257.203 423.004 226.064 c 0
 424.15 218.01 426.549 199.515 438.105 201.46 c 0
 453.207 204.009 446.298 230.131 445.317 239.967 c 0
 442.955 278.081 439.693 317.213 431.975 354.664 c 0
 421.118 406.8 408.76 461.915 387.79 511.069 c 0
 369.524 552.777 344.212 587.158 317.102 622.882 c 0
 292.438 654.913 267.747 684.748 236.907 710.232 c 0
 225.97 718.822 213.624 725.184 202.706 733.513 c 1
122.943 796.075 m 1
 117.279 777.183 104.888 786.283 89.709 784.538 c 0
 74.2598 782.767 57.834 776.976 43.1807 771.745 c 1
 56.4482 742.688 92.7949 738.217 103.003 705.707 c 0
 110.999 681.378 106.108 653.453 106.903 628.652 c 0
 108.754 570.801 103.769 513.361 99.6787 455.459 c 0
 98.8574 438.081 96.3555 420.363 96.3555 403.324 c 0
 96.3555 392.806 99.501 382.47 99.251 372.043 c 0
 98.2383 329.19 94.0801 286.274 93.0322 243.443 c 0
 92.1172 201.734 93.5908 160.658 87.3232 119.792 c 0
 82.3408 87.0371 70.751 61.0586 43.1768 43.001 c 0
 34.6709 37.4346 1.15332 34.0537 3.03613 20.6875 c 0
 6.04199 -0.665039 39.1104 3.62109 53.1504 3.62109 c 0
 93.0322 3.62109 132.913 1.05176 172.795 3.62109 c 0
 190.489 5.17969 206.89 2.89844 216 21 c 1
 154.37 45.3291 l 1
 145.655 100.94 l 1
 149.232 187.832 l 1
 155.227 271.248 l 1
 156.178 344.237 l 1
 160.465 403.324 l 1
 156.178 462.41 l 1
 176.118 688.329 l 1
 186.089 684.854 l 1
 184.421 695.162 180.155 705.603 180.37 716.135 c 0
 180.837 739.589 198.136 754.041 219.323 754.367 c 1
 229.293 768.27 l 1
 229.293 775.221 l 1
 179.441 776.766 l 1
 122.943 796.075 l 1
451.965 782.172 m 1
 451.965 773.68 450.894 763.708 455.288 756.152 c 0
 464.009 741.608 480.499 734.976 483.242 716.135 c 0
 485.199 702.231 479.736 687.936 478.552 674.427 c 0
 477.053 646.621 477.656 618.276 478.552 590.959 c 0
 485.046 478.702 495.169 366.374 488.224 253.87 c 0
 485.199 212.066 482.862 170.454 478.387 128.746 c 0
 476.715 113.18 478.552 91.335 473.223 76.6104 c 0
 464.661 54.2939 434.672 47.9326 425.338 26.8213 c 0
 422.054 19.5674 424.708 11.1738 425.377 3.62109 c 1
 448.641 7.09668 l 1
 448.641 7.09668 l 1
 463.204 10.5723 476.965 17.1172 491.846 19.4551 c 0
 502.913 21 514.003 19.6045 525.08 21 c 0
 537.303 23.3584 549.175 27.9512 561.638 27.9512 c 0
 583.201 27.4756 609.241 14.0488 621.46 38.3779 c 1
 610.627 43.1602 598.956 43.4189 588.226 47.8955 c 0
 574.348 53.7031 556.065 75.1172 552.762 90.5137 c 0
 550.185 102.753 554.634 116.473 554.942 128.746 c 0
 555.839 164.674 558.993 200.655 561.34 236.491 c 0
 562.729 257.346 558.314 278.081 558.314 299.054 c 0
 558.314 325.227 560.396 352.727 561.638 378.994 c 0
 563.864 420.702 571.608 462.312 574.634 504.118 c 0
 577.759 551.82 576.802 602.323 574.802 650.097 c 0
 573.835 673.171 568.285 696.387 571.608 719.606 c 0
 576.753 748.719 610.536 736.15 618.137 761.318 c 1
 485.15 770.486 l 1
 451.965 782.172 l 1
EndSplineSet
MinimumDistance: x63,-1 
EndChar
StartChar: O
Encoding: 79 79
Width: 529
Flags: W
HStem: 0.898434 28.3104<177 194>
VStem: 3.18066 71.9951<270 296> 367.025 55.3203<272.907 305.794> 373.294 74.5952<555 578>
Fore
401.363 737.332 m 1
 410.363 716.332 423.01 715.465 426.644 695.507 c 0
 431.878 665.266 436.528 634.666 443.134 604.694 c 0
 453.034 559.768 444.92 513.052 441.695 466.659 c 0
 438.423 412.172 431.006 360.32 423.499 306.829 c 0
 421.463 292.3 423.02 277.737 421.46 263.239 c 0
 419.485 244.949 413.985 226.269 408.971 208.752 c 1
 415.516 201.487 l 1
 387 147 l 1
 356.61 88.8799 l 1
 346.793 92.5117 l 1
 332.377 68 306.677 49.582 284.616 33.6963 c 0
 278.049 28.5674 272.59 20.8555 264.559 17.585 c 0
 255.163 13.7998 245.064 16.0986 235.528 13.3174 c 0
 225.452 10.373 216.484 4.22168 206.076 2.47266 c 0
 174.952 -2.74902 129.131 4.17578 101.355 20.8623 c 0
 76.3486 35.8857 59.7783 67.085 44.3271 92.459 c 0
 39.1787 99.7773 33.2627 107.042 29.2715 115.347 c 0
 23.6846 126.836 22.8154 141.807 19.46 154.265 c 0
 12.417 179.561 3.18066 207.805 1.02051 234.18 c 0
 -0.616211 251.735 3.18066 270.505 3.18066 288.667 c 0
 3.18066 326.907 1.92773 367.439 7.94531 404.907 c 0
 10.4707 421.09 16.2168 436.553 19.543 452.13 c 0
 32.2305 503.86 44.8154 552.885 66.1572 601.062 c 0
 84.124 641.63 99.7607 674.868 128.338 707.944 c 0
 137.354 718.586 144.652 731.484 154.316 741.534 c 0
 176.623 764.524 218.584 787.979 248.618 795.55 c 0
 272.245 801.502 310.796 800.85 333.703 789.952 c 0
 346.793 784.142 356.422 770.615 369.701 763.851 c 0
 382.251 757.26 388.926 743.583 401.363 737.332 c 1
238.801 757.26 m 1
 242.073 768.157 l 1
 192.985 742.729 l 1
 186.44 713.262 154.78 700.424 142.396 673.57 c 0
 114.375 612.811 101.355 540.14 88.2305 473.925 c 0
 81.7207 444.283 75.0674 414.134 72.8369 383.729 c 0
 70.2412 348.284 74.4443 313.115 75.1758 277.77 c 0
 75.1758 264.347 78.1035 251.239 78.4004 237.812 c 0
 78.4482 218.497 76.8857 198.617 81.2578 179.692 c 0
 85.9395 159.419 97.5244 141.544 103.452 121.572 c 0
 109.482 101.264 111.173 77.9824 122.378 59.8193 c 0
 144.493 22.3096 195.235 23.3594 228.983 40.582 c 0
 243.477 47.9785 256.7 58.7695 268.253 70.7168 c 0
 283.459 86.8076 300.979 102.877 313.774 121.572 c 0
 323.828 137.166 335.112 154.18 340.248 172.427 c 0
 343.521 184.289 344.399 196.875 348.049 208.752 c 0
 354.256 228.976 363.037 248.71 365.744 270.505 c 0
 369.209 297.88 364.731 326.485 365.556 354.052 c 0
 366.429 397.642 369.685 440.983 369.701 484.822 c 0
 369.701 529.479 378.186 571.023 370.963 615.592 c 0
 364.987 651.917 359.883 685.773 347.803 720.935 c 0
 343.463 733.123 342.118 748.842 332.713 757.26 c 0
 323.147 766.887 303.727 773.045 291.161 770.356 c 0
 284.175 768.866 278.07 763.737 271.398 761.963 c 0
 260.944 759.303 249.462 758.757 238.801 757.26 c 1
EndSplineSet
EndChar
StartChar: P
Encoding: 80 80
Width: 460
Flags: W
VStem: 79.3682 91.6885<452.391 508.655> 367.754 20.9318<585 621>
Fore
150.235 14.6553 m 0
 171.057 21.2881 194.852 -7.34668 214.67 4.29785 c 0
 224.496 10.165 215.204 22.7412 209.549 26.7842 c 0
 199.87 35.1963 187.555 37.1104 177.005 43.084 c 0
 168.082 47.8896 161.64 56.4424 153.21 61.959 c 1
 159.159 111.204 l 1
 156.185 213.212 l 1
 173.69 452.351 l 1
 171.057 603.654 l 1
 173.723 649.382 l 1
 169.671 681.04 l 1
 180.865 705.662 l 1
 221.62 755.625 l 1
 245.415 751.39 l 1
 248.39 761.942 l 1
 280.036 749.765 310.776 735.877 333.072 705.064 c 0
 347.906 684.557 363.789 651.735 367.158 624.76 c 0
 376.288 551.552 339.213 476.447 287.057 440.001 c 0
 280.01 434.814 271.72 429.848 263.262 430.6 c 0
 242.441 432.438 231.938 452.402 209.723 445.367 c 1
 209.723 438.332 l 1
 225.574 427.697 241.312 410.116 260.287 408.43 c 0
 285.438 406.2 311.427 429.318 329.2 447.72 c 0
 371.207 491.095 399.252 572.67 386.61 638.83 c 0
 381.202 666.97 365.581 696.766 350.61 719.42 c 0
 319.708 766.167 260.886 786.386 212.697 789.172 c 0
 199.513 789.931 181.104 781.089 168.759 785.781 c 0
 163.408 775.229 123.467 785.28 112.713 783.023 c 0
 103.674 781.179 93.7227 784.284 84.7998 785.276 c 0
 69.0156 786.564 52.8721 787.207 37.21 789.529 c 0
 30.3662 790.082 13.1826 796.551 9.70215 785.297 c 0
 7.46582 779.323 12.9414 775.658 16.3887 773.865 c 0
 23.6533 770.726 30.6826 770.266 37.0381 765.429 c 0
 47.4922 757.47 55.7793 740.837 63.9795 730.284 c 2
 66.9531 730.284 l 2
 77.875 735.069 86.4639 720.423 87.7744 707.688 c 0
 89.2578 693.354 85.4678 677.354 84.7998 662.854 c 0
 84.2793 636.954 85.3018 611.782 87.2656 586.067 c 0
 89.2695 559.826 81.6973 534.432 79.3682 508.682 c 0
 77.0732 483.324 78.8506 456.785 78.8506 431.297 c 0
 78.8506 328.575 87.7744 223.765 78.0029 121.757 c 0
 75.877 103.107 78.5605 81.1504 66.5117 67.0225 c 0
 51.1953 49.0645 29.6572 47.7451 14.7363 29.2812 c 0
 9.82422 23.208 1.33105 12.7139 3.75098 3.33301 c 0
 5.8916 -5.02441 14.4922 -2.18066 19.3633 0.166016 c 0
 37.9443 9.07617 52.082 17.7705 72.9023 19.749 c 1
 75.458 5.67871 83.0273 -1.41113 90.748 12.7139 c 1
 102.501 3.1543 108.226 4.90234 120.492 12.7139 c 1
 120.492 -0.0400391 149.437 27.4268 150.235 14.6553 c 0
EndSplineSet
EndChar
StartChar: Q
Encoding: 81 81
Width: 544
Flags: W
HStem: -78.7578 24.9229<354.767 365.693> 150.313 20.2421<214 221> 767.483 28.5075<300 326>
Fore
321 171 m 1
 299.203 136.067 l 1
 292.163 110.325 l 1
 276.488 119.784 272.487 139.745 259.425 153.248 c 0
 242.884 169.165 211.203 176.074 190.083 165.487 c 0
 177.846 159.993 168.86 148.3 158.403 139.745 c 1
 158.403 136.067 l 1
 165.443 121.357 l 1
 176.004 121.357 l 1
 179.523 143.423 l 1
 204.163 143.423 l 1
 216.429 158.09 236.455 150.584 239.363 132.39 c 1
 249.924 136.067 l 1
 256.2 124.547 262.35 112.293 265.361 99.293 c 0
 275.368 56.1318 239.04 38.8438 204.163 34.1533 c 0
 156.389 27.7178 88.0039 52.6846 70.4033 102.97 c 1
 84.4834 119.526 74.5254 135.206 70.0527 154.455 c 0
 64.3535 178.962 62.0293 205.94 63.3633 231.683 c 0
 67.5127 290.199 80.9639 345.656 91.5234 402.967 c 0
 101.458 457.784 109.123 513.457 127.535 566.335 c 0
 144.949 617.82 171.635 658.086 198.887 703.961 c 0
 205.126 714.47 203.435 727.534 212.324 736.534 c 0
 225.283 749.715 247.473 753.22 264.004 759.461 c 0
 290.902 769.56 362.563 779.63 371.955 739.127 c 0
 374.1 729.696 371.728 719.368 372.277 709.758 c 0
 373.959 680.295 374.443 650.803 376.603 621.354 c 0
 378.225 599.246 385.457 577.267 386.278 555.303 c 0
 388.757 488.827 382.25 422.424 371.236 356.718 c 0
 368.981 343.257 369.604 329.625 366.967 316.265 c 0
 358.597 279.49 347.432 240.352 332.324 205.94 c 0
 321.987 182.646 333 183 321 171 c 1
422.403 7.35547 m 1
 406.01 2.67871 395.199 -11.0322 386.413 -25.7422 c 0
 380.947 -34.9941 376.644 -49.7471 365.712 -53.1016 c 0
 346.091 -58.9473 328.982 -28.4502 320.323 -14.71 c 0
 313.283 -3.69141 300.949 11.6504 302.724 25.7422 c 0
 305.264 40.4521 322.252 54.7246 330.884 66.1953 c 0
 348.483 88.2598 369.397 116.811 380.163 143.423 c 1
 387.203 136.067 l 1
 404.804 185.534 428.227 231.683 442.018 283.168 c 0
 454.774 330.666 455.878 381.728 458.339 430.268 c 0
 459.521 453.568 464.045 476.804 464.592 500.14 c 0
 465.266 529.058 459.906 556.344 455.63 584.723 c 0
 449.842 623.121 446.112 658.955 430.605 695.048 c 0
 421.96 715.173 407.512 735.5 394.243 753.564 c 0
 356.559 806.644 303.981 803.312 249.924 783.308 c 0
 220.897 772.275 200.644 754.648 175.405 737.834 c 0
 160.445 728.016 146.905 722.7 134.365 708.694 c 0
 110.251 681.767 91.5059 646.185 74.8066 614.143 c 0
 65.708 596.688 54.6904 581.914 48.8877 562.657 c 0
 42.0098 539.816 39.7822 515.992 34.3613 492.785 c 0
 27.0879 461.663 16.002 432.968 11.6191 400.848 c 0
 3.06641 338.129 6.19141 275.812 10.5635 213.295 c 0
 13.7607 171.032 23.9014 138.775 37.3623 99.293 c 0
 42.2432 83.7705 43.876 65.9434 53.5566 52.3252 c 0
 62.6279 39.5615 78.7871 41.1562 91.5234 34.5703 c 0
 117.497 21.1309 146.107 5.75293 176.004 4.97754 c 0
 205.607 3.67773 237.916 15.9961 267.159 11.9805 c 0
 279.74 10.2568 285.996 -4.54688 291.943 -14.71 c 0
 298.904 -26.5977 304.153 -40.4521 312.541 -50.8457 c 0
 330.884 -75.2305 369.28 -93.2451 390.342 -62.5176 c 0
 396.45 -53.3457 399.781 -43.0889 403.917 -33.0977 c 0
 409.675 -19.1846 417.986 -7.35547 422.403 7.35547 c 1
EndSplineSet
EndChar
StartChar: R
Encoding: 82 82
Width: 484
Flags: W
HStem: 775.114 24.3674<219.37 248.431>
VStem: 387.906 26.1245<604 630>
DStem: 79.5449 578.736 160.382 557.049 83.2334 264.271 157.76 463.071 79.5449 578.736 160.681 365.479 83.2334 264.271 153.305 184.752 83.2334 264.271 160.681 365.479 80.7441 119.69 153.305 184.752 83.2334 264.271 153.305 184.752 80.7441 119.69 160.681 54.6279
Fore
153.305 798.676 m 1
 196.307 795.609 244.712 806.452 286.071 790.724 c 0
 319.025 777.535 350.071 764.906 373.463 737.776 c 0
 428.087 674.419 427.324 560.544 375.372 495.603 c 0
 349.714 464.027 298.472 439.097 260.256 424.988 c 0
 246.984 419.696 226.361 413.311 212.928 420.9 c 0
 192.536 432.418 217.801 450.099 230.752 452.228 c 1
 227.063 441.384 l 1
 259.456 446.054 284.836 461.204 311.888 478.281 c 0
 328.462 488.373 345.079 497.784 357.482 513.675 c 0
 398.904 569.029 398.537 663.509 355.743 718.158 c 0
 336.485 742.75 306.982 754.822 278.695 766.491 c 0
 256.567 775.4 215.719 781.15 196.21 764.528 c 0
 191.279 760.236 188.239 754.021 184.843 748.602 c 0
 176.25 734.906 153.305 702.887 171.744 690.787 c 1
 158.019 654.642 l 1
 166.519 628.257 l 1
 160.382 557.049 l 1
 157.76 463.071 l 1
 165.435 408.854 l 1
 160.681 365.479 l 1
 153.305 184.752 l 1
 160.681 54.6279 l 1
 216 43.7852 l 1
 210.558 11.1055 170.675 19.1475 145.929 16.8779 c 0
 136.893 16.0508 91.3018 11.2539 83.2334 7.63965 c 0
 42.665 -0.299805 l 1
 19.0752 -3.2041 l 1
 2.09766 25.7129 l 1
 38.9775 42.8535 l 1
 80.4414 83.5449 l 1
 80.7441 119.69 l 1
 83.2334 264.271 l 1
 79.5449 578.736 l 1
 78.5225 698.017 l 1
 79.5449 726.919 l 1
 53.7295 754.238 l 1
 5.78516 791.994 l 1
 15.4951 809.241 28.7236 804.338 46.3535 802.838 c 0
 61.0264 802.185 75.8574 802.838 90.6094 802.838 c 1
 153.305 798.676 l 1
238.128 367.474 m 1
 278.479 366.696 286.071 315.616 295 285.959 c 0
 312.91 223.471 298.979 157.282 316.663 94.3887 c 0
 324.233 67.4561 340.66 35.3848 370.895 27.2793 c 0
 378.271 25.1826 410.573 21.7305 407.774 36.5557 c 0
 406.003 48.8145 387.285 49.916 378.271 54.2617 c 0
 363.519 61.293 350.957 75.3623 346.649 90.7744 c 0
 327.399 159.45 334.869 231.151 318.82 300.418 c 0
 314.312 319.898 310.569 340.837 299.995 358.25 c 0
 284.278 383.552 255.606 394.395 225.516 392.888 c 0
 208.624 391.818 202.029 378.87 216 369.094 c 1
 238.128 367.474 l 1
EndSplineSet
EndChar
StartChar: S
Encoding: 83 83
Width: 514
Flags: W
HStem: 10.625 23.4684<184 203>
VStem: 90.0368 74.3008<621 622> 261.428 6.45508<757 758>
Fore
174.285 181.815 m 1
 165.86 203.205 150.907 198.334 132.327 199.64 c 0
 122.065 200.663 112.963 206.77 103.28 208.075 c 0
 95.5107 208.747 88.293 204.458 80.6875 203.205 c 0
 72.042 202.32 63.4092 204.006 54.8672 205.259 c 0
 45.7617 206.589 15.6865 212.612 12.4814 198.509 c 0
 6.16504 170.695 47.4824 179.531 54.3945 160.049 c 0
 67.5312 122.992 58.0947 79.4678 82.7803 46.3447 c 0
 88.8984 38.6855 97.4492 35.6504 105.584 30.9844 c 0
 117.3 23.9102 128.729 15.2275 142.01 12.084 c 0
 161.006 7.12988 183.753 11.6211 203.332 10.625 c 0
 214.54 10.0615 227.633 -0.146484 238.286 2.64551 c 0
 248.017 5.19824 254.762 16.0078 264.655 19.3643 c 0
 285.64 26.4727 318.867 33.4668 332.433 53.4746 c 0
 358.905 91.8018 370.778 148.821 367.645 196.075 c 0
 366.368 215.282 360.513 233.891 358.801 253.115 c 0
 356.22 281.635 357.814 312.776 344.183 338.675 c 0
 328.512 368.462 311.454 397.595 291.727 424.235 c 0
 279.551 440.702 263.962 455.244 264.655 477.71 c 1
 235.607 488.405 205.939 505.439 185.947 531.84 c 0
 151.469 577.363 161.375 643.9 184.724 691.61 c 0
 202.324 727.26 220.774 766.071 261.428 766.475 c 1
 261.428 755.78 l 1
 267.883 755.78 l 1
 267.883 766.475 l 1
 289.936 756.49 307.7 714.671 301.384 688.045 c 0
 300.154 682.864 296.93 678.21 293.702 673.785 c 0
 289.842 668.406 284.02 663.09 280.241 657.408 c 0
 271.11 643.765 267.136 614.109 287.247 612.358 c 0
 293.589 611.809 300.157 612.937 306.612 613.18 c 1
 306.612 603.645 309.059 595.355 319.522 595.236 c 0
 335.66 594.711 345.166 613.18 358.253 620.198 c 0
 379.928 631.768 411.796 606.05 426.03 634.57 c 1
 366.737 655.96 363.071 749.538 306.612 778.42 c 0
 285.388 789.278 264.198 785.174 242.062 789.021 c 0
 226.744 791.43 205.69 800.308 190.423 794.995 c 0
 172.29 789.181 161.041 770.04 148.178 756.386 c 0
 110.473 716.001 78.2539 668.215 92.6553 606.05 c 0
 96.8252 587.688 107.106 574.627 116.023 559.1 c 0
 122.645 546.643 128.29 534.75 138.782 525.033 c 0
 151.207 513.36 166.995 506.992 180.74 497.86 c 0
 194.491 488.405 205.675 476.119 218.103 465.072 c 0
 226.997 457.166 236.862 451.32 244.679 441.903 c 0
 264.655 417.749 272.481 376.679 278.813 345.805 c 0
 280.793 333.551 286.668 322.729 288.404 310.155 c 0
 292.628 279.55 289.716 249.083 287.985 218.485 c 0
 286.818 197.878 287.834 177.358 285.388 156.86 c 0
 282.378 131.578 286.995 88.9443 269.724 69.4131 c 0
 261.008 59.5566 247.956 55.2227 236.976 49.4258 c 0
 228.903 45.165 221.721 37.9131 213.012 35.3154 c 0
 196.792 30.4727 169.072 34.3096 154.92 44.002 c 0
 128.788 62.0254 125.872 100.75 125.872 131.905 c 0
 125.774 142.43 123.953 156.86 131.048 165.543 c 0
 140.459 176.669 161.375 176.613 174.285 181.815 c 1
EndSplineSet
MinimumDistance: x23,-1 
EndChar
StartChar: T
Encoding: 84 84
Width: 664
Flags: W
HStem: 661.611 3.01324<572 573> 760.648 26.3887<145 226 347 363> 762.555 28.2316<253 256 258 260 364 381 417 436 436.287 475.866>
VStem: 11.5755 33.3748<674.397 692.546> 253.865 89.3398<682 705.158>
Fore
276 0 m 0
 253.832 10.5918 211.285 -4.9834 193.665 19.1924 c 0
 188.914 25.7129 194.08 32.2256 200.03 35.8975 c 0
 216.582 45.5664 235.253 46.6533 248.041 63.0547 c 0
 257.588 75.9307 257.438 92.0859 257.588 107.039 c 0
 259.202 128.636 261.311 149.781 261.311 171.477 c 0
 261.311 194.6 263.012 218.396 260.678 241.427 c 0
 257.588 271.579 251.749 302.08 250.79 332.362 c 0
 250.143 351.38 254.687 370.243 253.865 389.322 c 0
 253.563 440.528 248.772 494.723 253.865 545.695 c 0
 255.33 555.594 260.536 564.396 261.311 574.283 c 0
 264.363 610.758 254.988 645.989 253.865 682.112 c 0
 253.356 709.75 259.987 735.415 261.311 762.555 c 1
 245.185 762.555 228.935 760.307 212.918 760.648 c 0
 173.824 761.488 132.273 768.344 97.5205 746.942 c 0
 77.2939 734.482 52.6396 715.338 45.4053 692.553 c 0
 43.2383 683.362 50.1123 656.335 33.6992 656.762 c 0
 -2.24219 657.629 17.3994 708.883 13.251 727.528 c 0
 11.1279 737.054 1.66895 746.327 1.80371 755.56 c 0
 1.90527 763.183 7.54395 770.69 13.1318 775.38 c 0
 26.7705 786.832 54.1992 782.515 71.4629 784.13 c 0
 121.989 788.86 173.265 786.729 224.085 787.037 c 0
 247.435 787.037 261.311 797.529 283.646 787.037 c 1
 292.544 796.088 301.614 789.363 313.425 788.246 c 0
 324.593 787.037 337.312 789.551 349.015 789.715 c 0
 407.738 790.534 471.726 797.529 529.33 787.642 c 0
 543.839 785.138 567.987 789.062 579.144 777.948 c 0
 587.182 769.55 582.146 757.838 580.198 748.564 c 0
 575.621 726.828 581.136 703.097 573.942 682.112 c 0
 571.364 674.492 565.497 663.351 555.388 663.351 c 0
 543.58 663.351 542.202 677.446 541.94 685.609 c 0
 541.61 695.924 545.805 706.595 543.497 717.087 c 0
 540.418 730.656 525.607 742.219 514.44 749.78 c 0
 492.887 763.832 461.456 763.312 436.268 762.555 c 0
 406.411 762.042 376.708 762.479 346.928 762.555 c 1
 343.205 710.092 l 1
 343.147 629.649 l 1
 335.76 479.257 l 1
 339.468 409.307 l 1
 332.038 339.356 l 1
 331.893 258.914 l 1
 328.315 199.457 l 1
 331.838 157.487 l 1
 324.593 101.527 l 1
 328.315 45.5664 l 1
 348.323 45.5664 396.971 51.2197 373.813 20.292 c 0
 371.149 16.7334 367.819 12.9414 363.831 10.5918 c 0
 352.134 3.59668 288.439 6.48926 276 0 c 0
570.277 664.624 m 1
 571.568 662.196 574 657.124 574 664.624 c 1
 570.277 664.624 l 1
EndSplineSet
MinimumDistance: x35,-1 
EndChar
StartChar: U
Encoding: 85 85
Width: 628
Flags: W
VStem: 39.1357 78.876<459 496 535 549> 49.4258 77.1445<640 672> 421.734 63.3008<477 592 640 640>
Fore
42.5654 756.14 m 1
 49.4258 730.555 l 1
 28.8457 723.245 l 1
 28.8457 715.935 l 1
 50.1797 697.66 49.4258 681.002 49.4258 653.8 c 0
 49.3682 614.626 40.0869 576.006 39.1357 536.84 c 0
 37.042 443.627 43.9756 351.609 52.2725 259.06 c 0
 57.5117 200.58 55.6152 146.79 84.9316 94.585 c 0
 101.512 65.0625 136.207 36.0264 166.046 22.9092 c 0
 181.019 16.3271 198.376 14.1748 214.065 10.0557 c 0
 234.646 4.35938 253.731 -2.80762 275.806 0.654297 c 0
 320.396 7.71387 355.553 32.4502 390.145 61.6895 c 0
 396.83 67.6074 407.646 68.6074 413.006 75.4033 c 0
 421.165 85.6826 425.165 104.29 430.729 116.515 c 0
 436.372 128.922 443.876 140.083 448.819 153.064 c 0
 456.685 175.641 460.299 200.138 465.038 223.556 c 0
 474.592 270.768 477.841 317.215 482.188 365.055 c 0
 483.636 380.984 487.742 396.54 488.328 412.57 c 0
 488.466 428.225 484.979 443.038 484.566 458.536 c 0
 483.783 488.176 485.035 518.126 485.035 547.805 c 0
 485.035 588.01 488.043 628.058 488.466 668.42 c 0
 488.466 691.285 484.898 728.885 500.625 746.753 c 0
 510.539 758.014 526.949 764.553 539.715 770.76 c 0
 544.541 773.562 551.481 777.331 549.02 784.448 c 0
 545.087 795.81 524.775 795.816 515.905 794.321 c 0
 486.764 789.035 456.51 783.109 426.726 786.286 c 0
 407.298 788.356 388.744 800 368.416 790.541 c 0
 360.336 786.254 359.084 777.738 366.007 770.76 c 0
 375.979 761.147 390.988 759.788 401.067 750.429 c 0
 424.337 728.806 421.192 683.04 420.867 653.8 c 0
 419.865 595.32 423.001 536.551 421.734 478.359 c 0
 421.135 450.887 411.934 424.955 409.575 397.95 c 0
 404.447 325.71 404.021 253.984 394.389 182.305 c 0
 391.887 163.698 390.777 141.054 382.946 123.825 c 0
 378.705 115.412 371.745 109.205 367.692 100.949 c 0
 362.976 90.9297 362.933 79.1943 357.562 69.6777 c 0
 347.836 52.4668 327.256 46.5273 310.105 47.0703 c 1
 313.535 36.1045 l 1
 301.577 32.2646 291.224 34.8125 279.235 32.4502 c 0
 268.725 31.165 258.655 25.8252 248.365 25.8252 c 0
 237.616 25.8252 227.719 30.4727 217.495 33.3418 c 0
 192.675 39.7598 162.615 44.5713 147 69 c 0
 139.721 79.9648 146.148 93.2646 141.513 105.55 c 0
 136.08 119.991 124.886 130.913 120.213 145.755 c 0
 110.194 177.529 118.025 211.545 118.016 244.437 c 0
 117.812 274.876 119.412 305.426 119.021 335.814 c 0
 118.676 362.734 114.485 389.302 114.596 416.225 c 0
 114.596 438.155 118.025 459.863 118.012 482.015 c 0
 117.536 525.125 111.146 566.808 118.025 609.939 c 0
 120.511 623.172 126.574 636.692 126.57 650.145 c 0
 126.567 658.775 123.656 667.081 123.465 675.729 c 0
 123.194 687.912 125.739 700.083 125.877 712.28 c 0
 125.978 721.014 123.211 731.286 125.867 739.757 c 0
 130.861 755.687 168.115 763.45 154.951 787.45 c 0
 149.519 797.312 134.188 797.091 124.886 798.447 c 0
 95.7979 802.684 64.8066 797.654 35.7051 794.938 c 0
 27.0029 794.125 10.8145 798.833 3.67676 792.59 c 0
 -3.0498 786.711 4.44727 779.022 8.26562 774.415 c 0
 18.5557 765.234 28.8457 756.778 42.5654 756.14 c 1
EndSplineSet
MinimumDistance: x18,-1 
EndChar
StartChar: V
Encoding: 86 86
Width: 736
Flags: W
VStem: 46.4443 90.75<737 747> 555.331 35.7457<729 739>
Fore
560.694 799.189 m 1
 550.588 797.13 512.294 789.644 517.476 772.638 c 0
 520.141 763.684 533.47 757.846 539.52 751.17 c 1
 560.694 757.983 556.216 729.779 552.774 713.439 c 0
 548.03 690.91 536.494 672.28 528.386 651.7 c 0
 520.932 633.743 515.319 614.787 508.105 596.82 c 0
 495.412 565.95 486.009 534.195 472.494 504.21 c 0
 443.845 440.651 411.746 378.808 383.776 314.978 c 0
 363.635 269.018 342.434 223.988 321.551 178.36 c 0
 313.814 161.21 309.362 143.143 300.544 126.91 c 1
 248.274 277.83 l 1
 239.657 329.28 l 1
 220.618 397.88 l 1
 215.845 432.18 l 1
 207.525 439.04 l 1
 203.159 466.48 l 1
 185.595 507.64 l 1
 184.59 528.22 l 1
 165.598 572.81 l 1
 128.119 730.59 l 1
 137.194 732.834 137.002 737.45 137.194 747.74 c 1
 170.47 758.03 l 1
 170.47 764.89 l 1
 161.395 768.32 l 1
 174.856 804.037 130.736 788.25 116.02 783.183 c 0
 112.152 781.853 107.996 781.152 103.919 781.812 c 0
 86.4756 784.68 81.3115 803.454 61.5693 799.189 c 1
 43.4189 788.9 l 1
 30.3418 792.33 -2.37793 782.947 13.1689 760.576 c 0
 19.2197 751.17 37.2334 751.997 46.4443 751.17 c 1
 46.4443 730.59 l 1
 62.6953 725.113 63.7227 699.261 68.627 682.57 c 0
 82.7441 633.408 100.578 585.029 110.977 535.08 c 0
 114.705 517.183 124.128 500.546 130.14 483.63 c 0
 140.14 455.477 147.41 425.902 157.365 397.88 c 0
 177.518 341.141 193.391 281.26 207.776 222.95 c 0
 213.779 198.454 223.457 174.93 229.965 150.92 c 0
 239.521 115.444 254.224 80.8926 262.227 44.5898 c 0
 264.244 35.04 255.066 22.1104 259.707 13.7197 c 0
 269.198 -1.68848 285.271 33.4756 287.44 41.1602 c 0
 289.159 47.2764 288.294 52.8867 291.47 58.3096 c 0
 295.614 63.6758 302.249 65.8838 305.082 72.0303 c 0
 308.001 78.3506 304.73 85.75 306.595 92.6104 c 0
 309.365 98.9941 314.484 103.637 317.182 109.76 c 0
 321.72 120.05 321.622 133.174 325.752 144.06 c 0
 329.32 153.449 336.117 175.854 345.919 168.07 c 1
 352.93 210.309 374.713 239.651 390.225 277.83 c 0
 421.013 353.29 457.845 425.32 490.34 500.78 c 0
 504.679 534.387 516.069 569.38 529.747 603.68 c 0
 539.52 628.893 547.283 656.202 561.365 679.127 c 0
 574.738 700.896 596.994 718.002 590.944 747.74 c 1
 602.982 752.349 614.666 757.996 627.244 760.479 c 0
 635.472 762.104 646.712 761.46 652.47 770.065 c 0
 658.206 778.208 652.177 785.34 645.217 788.116 c 0
 631.439 793.613 617 791.834 603.044 788.9 c 1
 560.694 799.189 l 1
246.095 370.44 m 1
 247.146 368.059 249.119 363.084 249.119 370.44 c 1
 246.095 370.44 l 1
EndSplineSet
MinimumDistance: x50,-1 
EndChar
StartChar: W
Encoding: 87 87
Width: 1210
Flags: W
VStem: 956.396 154.264<772 778>
Fore
480.145 218.128 m 1
 481.492 225.628 491.862 244.912 499.562 249.792 c 1
 498.229 284.489 522.217 325.986 538.398 355.338 c 1
 567.525 256.66 612.835 165.355 649.727 70.3643 c 0
 655.966 54.0615 661.38 27.9639 672.738 15.207 c 0
 687.271 -1.69727 707.668 14.6641 713.161 31.6641 c 1
 720.664 87.9551 l 1
 737.746 117.599 751.943 148.609 767.013 179.428 c 0
 832.665 313.707 893.495 450.329 960.693 584.021 c 0
 978.541 619.918 992.333 657.601 1011.76 693.085 c 0
 1021.75 711.318 1028.97 728.267 1049.74 731.785 c 1
 1056.21 755.877 1079.58 753.777 1098.22 761.137 c 0
 1104.63 763.449 1115.15 770.44 1110.66 779.662 c 0
 1106.55 788.076 1086.43 786.983 1078.87 787.169 c 0
 1048.69 787.901 1018.53 787.087 988.25 788.076 c 0
 978.541 788.076 962.091 792.453 956.945 780.253 c 0
 949.076 761.587 985.014 759.471 992.722 750.424 c 0
 1001.01 740.529 994.723 718.489 991.486 707.158 c 0
 984.764 680.688 968.832 657.903 958.45 633.275 c 0
 939.187 587.381 920.044 540.346 897.544 496.066 c 0
 886.649 474.623 873.724 453.848 863.076 432.738 c 0
 846.79 399.721 834.95 364.188 819.571 330.711 c 0
 812.324 314.938 802.631 300.665 795.232 284.974 c 0
 764.942 221.646 736.855 157.557 700.216 98.5098 c 0
 691.196 115.908 670.64 189.828 662.214 207.573 c 0
 635.489 263.652 610.438 319.688 593.416 379.966 c 0
 588.748 397.557 578.916 417.439 577.234 436.257 c 0
 576.065 455.961 590.18 475.727 597.939 492.548 c 0
 615.748 531.248 636.728 569.433 653.231 608.648 c 0
 669.853 648.139 685.57 717.713 729.343 731.785 c 1
 734.34 750.568 745.524 752.895 761.514 759.591 c 0
 766.684 761.748 774.582 765.559 772.218 773.269 c 0
 768.179 784.559 747.431 780.882 739.052 781.04 c 0
 712.453 781.755 684.034 791.595 657.916 787.379 c 0
 649.404 786.015 640.34 778.456 647.338 768.743 c 0
 651.671 762.318 661.158 759.883 667.846 757.097 c 0
 675.353 753.963 682.694 751.39 690.507 749.376 c 1
 649.524 657.903 l 1
 631.422 608.648 l 1
 605.948 562.912 l 1
 564.289 474.957 l 1
 561.053 485.412 561.053 496.066 557.816 506.62 c 0
 546.098 545.32 527.858 584.794 512.508 622.721 c 0
 499.562 655.505 484.414 686.049 476.555 721.23 c 0
 470.436 747.617 489.127 750.943 505.539 761.89 c 0
 511.054 765.572 515.744 772.481 510.365 778.917 c 0
 503.371 786.97 486.165 782.043 476.908 783.115 c 0
 460.714 784.559 444.545 783.826 428.363 784.559 c 0
 415.418 785.664 401.995 790.588 389.527 789.685 c 0
 382.552 789.176 376.582 784.559 370.109 782.957 c 0
 359.645 779.755 333.688 783.346 331.017 766.747 c 0
 329.917 759.91 336.573 758.636 340.982 758.374 c 0
 355.04 757.591 373.346 759.876 384.385 747.569 c 0
 392.764 737.499 394.006 719.447 399.236 707.158 c 0
 413.006 675.494 431.145 647.349 443.982 615.685 c 0
 455.013 588.199 461.573 558.964 471.898 531.248 c 0
 481.633 505.126 493.833 480.234 502.799 453.848 c 0
 509.895 434.48 525.453 409.513 525.299 388.493 c 0
 524.913 365.782 505.504 341.015 498.036 320.156 c 0
 472.019 247.463 445.445 170.832 405.709 105.546 c 1
 399.236 122.415 390.223 137.21 384.735 154.801 c 0
 367.779 207.573 358.956 263.645 341.968 316.638 c 0
 335.331 337.338 330.218 378.776 305.382 376.447 c 1
 286.805 431.43 248.237 482.601 230.946 538.284 c 0
 216.36 587 199.25 634.986 181.753 682.53 c 0
 176.959 695.562 141.887 742.237 153.274 752.895 c 1
 192.11 774.004 l 1
 182.401 813.745 142.275 794.357 114.438 795.113 c 0
 104.729 795.824 97.5645 801.785 88.5479 802.826 c 0
 79.6729 803.85 70.9785 798.294 62.6562 795.707 c 0
 52.1641 792.446 17.3477 789.784 20.3281 771.121 c 0
 21.2891 764.318 28.4033 761.161 33.5293 759.192 c 0
 46.4746 754.241 63.6934 757.814 74.6318 747.518 c 0
 83.9238 738.777 86.082 723.817 90.9619 712.171 c 0
 99.0811 692.786 111.777 676.865 120.522 657.903 c 0
 129.309 638.845 133.856 617.814 141.789 598.094 c 0
 166.22 532.729 188.874 466.367 213.839 401.074 c 0
 219.356 386.394 227.536 372.929 233.595 358.856 c 0
 256.505 304.578 277.696 248.93 298.259 193.501 c 0
 314.563 149.548 326.819 103.921 342.926 59.8096 c 0
 347.455 45.7363 354.73 18.6084 370.788 15.5088 c 0
 389.527 11.8291 395.64 32.2549 405.206 44.6855 c 0
 409.542 50.3203 417.108 53.6074 419.413 60.8604 c 0
 422.927 71.9414 420.152 83.5088 424.82 94.9912 c 0
 434.197 118.049 448.802 138.351 457.49 161.837 c 1
 460.727 154.801 l 1
 480.145 218.128 l 1
EndSplineSet
MinimumDistance: x12,-1 
EndChar
StartChar: X
Encoding: 88 88
Width: 841
Flags: W
HStem: 18.1323 31.861<636 646> 700.017 67.1917<39.6646 51.0874> 753.663 19.9901<515 526>
Fore
642.257 716.468 m 2
 639.115 711.198 640.155 708.264 644.152 714.72 c 1
 642.257 716.468 l 2
43.4375 760.771 m 1
 44.751 758.346 47.2275 753.271 47.2275 760.771 c 1
 43.4375 760.771 l 1
604.357 778.259 m 1
 585.329 781.756 573.53 772.849 555.083 770.946 c 0
 539.927 769.426 508.89 782.477 502.027 764.152 c 0
 500.954 759.965 501.909 754.596 502.027 750.278 c 1
 509.159 751.542 516.82 753.633 524.123 753.663 c 0
 537.092 753.715 543.717 744.295 541.611 732.777 c 0
 538.358 717.087 524.768 701.313 517.188 687.323 c 0
 486.73 630.506 445.825 575.403 407.277 522.941 c 1
 380.747 581.06 342.848 644.141 297.082 690.821 c 0
 278.417 709.597 261.559 729.28 232.938 732.791 c 1
 229.147 752.355 213.551 755.925 195.037 761.974 c 0
 162.374 772.65 124.597 787.002 88.917 783.317 c 0
 71.04 781.469 56.0986 763.865 39.6475 767.766 c 1
 41.6865 748.636 25.7197 736.2 26.1855 718.719 c 0
 26.8965 692.054 56.2061 697.816 69.9668 711.806 c 1
 47.2275 718.801 l 1
 56.5762 730.318 64.4521 749.001 78.2656 756.16 c 0
 88.2656 760.771 100.287 760.604 111.602 760.771 c 0
 139.598 761.495 181.698 762.564 191.247 732.791 c 1
 226.815 725.687 254.404 702.024 276.811 676.831 c 0
 307.505 641.856 334.183 604.404 356.801 564.911 c 0
 367.593 546.058 390.796 517.329 386.081 494.961 c 0
 382.646 478.659 367.216 462.893 357.285 449.493 c 0
 328.712 410.933 293.577 378.058 263.257 341.071 c 0
 221.567 291.156 189.126 235.839 159.08 179.592 c 0
 145.768 155.188 136.155 130.022 120.437 106.738 c 0
 109.337 90.3027 97.8818 71.7637 81 60 c 0
 68.4941 50.7783 53.8594 47.2812 39.6475 42.1104 c 0
 32.0674 39.1553 3.47559 29.7939 3.00195 21.7051 c 0
 1.74707 -0.533203 32.0674 1.7793 47.2275 1.71094 c 0
 57.2051 1.66699 67.6387 -0.935547 77.5469 0.362305 c 0
 88.7061 1.81348 97.4443 8.6377 107.867 11.9375 c 0
 116.684 14.7246 125.151 12.3057 134.061 14.1406 c 0
 141.978 15.4453 149.113 20.6572 157.137 21.6514 c 0
 167.938 22.7988 177.172 17.4326 187.457 17.668 c 0
 198.021 17.9111 226.856 25.7188 228.922 36.7881 c 0
 230.479 45.7676 221.394 50.6006 213.913 52.8145 c 0
 200.022 56.9229 179.877 57.3906 179.222 75.2607 c 0
 178.434 89.251 194.094 105.39 201.544 117.231 c 0
 223.329 151.868 248.098 185.275 272.1 218.658 c 0
 320.107 285.746 355.55 362.715 411.067 425.011 c 1
 418.036 391.874 430.721 362.056 443.115 330.578 c 0
 454.853 300.737 463.328 269.762 474.153 239.644 c 0
 491.716 190.679 502.727 138.216 537.47 96.2461 c 0
 555.087 74.7656 577.827 59.5049 600.079 42.042 c 0
 608.147 35.5654 614.28 27.1055 623.308 22.2383 c 0
 648.108 9.80566 664.527 25.7568 668.787 47.2812 c 1
 649.837 50.7783 l 1
 634.273 42.9326 609.454 64.7686 596.777 74.4648 c 0
 551.297 107.938 526.437 161.831 509.174 211.663 c 0
 497.604 245.067 489.555 279.64 477.984 313.091 c 0
 469.068 338.864 456.247 363.805 448.967 390.036 c 0
 444.56 406.731 429.614 434.004 434.54 450.976 c 0
 439.06 466.554 456.547 480.971 465.907 494.961 c 0
 495.357 537.963 528.38 578.901 560.473 620.871 c 0
 574.037 638.358 589.197 655.378 602.392 673.333 c 0
 621.594 699.503 638.467 729.034 676.367 732.791 c 1
 684.854 746.781 698.793 751.819 714.249 758.674 c 0
 720.804 761.58 731.685 764.269 734.157 771.93 c 0
 738.991 785.961 714.067 782.344 706.688 783.242 c 0
 696.275 784.513 687.053 790.015 676.367 790.562 c 0
 662.573 791.285 647.742 785.254 634.677 781.756 c 1
 629.052 805.521 611.911 795.449 604.357 778.259 c 1
EndSplineSet
EndChar
StartChar: Y
Encoding: 89 89
Width: 715
Flags: W
VStem: 426.357 154.938<753 766.655>
Fore
564.812 787.876 m 1
 584.592 795.855 624.711 808.801 637.337 784.389 c 1
 581.296 770.438 l 1
 581.296 753.001 l 1
 555.645 740.079 536.132 707.057 519.537 683.25 c 0
 487.321 637.04 458.345 588.913 429.489 540.262 c 0
 416.468 518.338 404.64 487.751 386.799 470.511 c 1
 386.799 467.023 l 1
 393.392 456.176 390.095 446.857 383.502 435.636 c 0
 372.351 414.71 353.781 399.228 340.646 379.524 c 0
 284.022 292.646 227.945 207.134 180.123 114.782 c 0
 177.196 109.129 174.328 103.522 172.5 97.3447 c 0
 171.215 93.0088 169.953 87.9893 170.159 83.3945 c 0
 171.614 50.8896 202.191 61.0938 220.394 47.416 c 0
 227.108 42.2285 225.268 33.043 217.869 29.832 c 0
 211.15 26.9404 202.191 29.4844 195.598 29.8047 c 0
 182.412 30.4072 168.949 29.7529 156.039 31.9844 c 0
 148.213 33.3428 141.012 36.7041 132.964 36.6094 c 0
 109.327 36.3369 94.6279 20.6191 73.625 13.6436 c 0
 62.8408 10.041 51.6211 13.123 40.6602 10.7695 c 0
 30.7705 8.76367 18.3691 -0.619141 8.79199 4.3291 c 0
 -2.69434 10.1562 6.54785 26.9023 12.2881 33.4209 c 0
 25.3936 48.2949 45.5527 51.8633 60.3105 64.3252 c 0
 71.9639 74.1719 78.4834 90.3701 93.4043 93.8574 c 1
 127.313 156.633 l 1
 187.492 250.796 l 1
 251.64 369.372 l 1
 311.641 460.048 l 1
 373.612 571.649 l 1
 426.357 669.3 l 1
 462.619 749.513 l 1
 426.357 753.001 l 1
 426.357 756.488 425.646 762.734 426.357 766.661 c 0
 432.639 787.876 451.297 780.901 466.646 784.099 c 0
 478.288 786.282 492.037 798.339 495.585 780.901 c 1
 564.812 787.876 l 1
53.8457 753.001 m 1
 59.2061 735.495 72.376 738.076 86.8115 732.773 c 0
 99.5605 728.091 112.237 720.41 123.074 711.975 c 0
 160.987 682.46 193.017 633.141 214.147 589.087 c 0
 230.479 555.035 245.703 512.361 241.142 473.998 c 0
 238.428 450.896 227.826 426.991 221.971 404.247 c 0
 218.207 386.81 210.664 372.859 201.136 358.909 c 0
 196.976 352.718 189.005 344.139 191.483 335.672 c 0
 195.598 320.547 215.378 341.063 219.727 345.971 c 0
 228.563 357.043 234.751 370.7 242.423 382.999 c 0
 251.64 397.913 261.088 407.136 264.826 425.173 c 1
 255.577 439.123 264.141 454.834 266.58 470.511 c 0
 268.122 482.516 265.55 493.462 264.826 505.386 c 0
 264.826 513.12 267.314 521.141 265.924 528.801 c 0
 264.61 536.004 260.154 542.277 258.127 549.293 c 0
 241.628 606.483 208.784 656.133 172.094 700.688 c 0
 158.189 717.376 142.608 740.109 123.074 749.513 c 0
 104.083 758.736 74.4111 753.001 53.8457 753.001 c 1
268.122 425.173 m 1
 269.266 422.751 271.419 417.693 271.419 425.173 c 1
 268.122 425.173 l 1
EndSplineSet
MinimumDistance: x2,-1 
EndChar
StartChar: Z
Encoding: 90 90
Width: 823
Flags: W
HStem: 23.6398 22.4161<143 172> 422.455 49.9532<537 542> 766.085 23.865<252.734 276.52> 766.66 28.2453<433 465> 773.562 21.2751<353.925 395.644>
Fore
41.125 12.3799 m 0
 3 2 l 1
 -0.894531 17.8574 6.8125 26.835 16.5967 40.0596 c 0
 33.418 64.1689 52.5176 86.2432 71.0479 109.26 c 0
 117.021 166.354 157.466 227.657 207.032 282.26 c 0
 237.021 315.296 279.063 344.168 292.75 386.06 c 1
 261.517 384.847 220.312 381.573 194.44 401.664 c 0
 175.929 415.896 176.941 442.38 193.625 457.064 c 0
 208.309 469.083 224.125 472.202 243.188 472.56 c 1
 237.23 455.26 204.575 450.188 207.281 430.955 c 0
 208.875 415.639 228.697 409.186 243.188 407.455 c 0
 273.215 403.36 303.61 402.329 325.387 424.12 c 0
 343.869 442.894 365.188 463.924 379.682 485.41 c 0
 387.403 496.78 387.857 509.731 397.53 521 c 0
 424.214 552.079 455.25 579.82 482.728 610.96 c 0
 528.872 662.303 572.936 719.771 609.188 777.04 c 1
 553.456 781.102 500.081 766.66 444.896 766.66 c 0
 428.287 766.66 412.293 772.448 395.673 773.307 c 0
 359.797 775.161 324.653 769.16 288.938 766.66 c 0
 248.407 764.812 210.081 767.701 170.75 755.517 c 0
 153.653 750.215 147.518 738.98 135.54 728.198 c 0
 110.968 705.542 94.5 691.665 89.0684 659.4 c 0
 87.5752 651.139 84.0674 628.074 68.9521 632.916 c 0
 56.375 636.806 60.1875 657.549 60.1875 666.32 c 0
 60.1357 690.53 60.0391 714.76 59.7109 738.98 c 0
 59.5469 751.11 56.1143 764.781 71.3945 770.12 c 0
 78.6836 773.506 86.875 771.597 94.5 772.895 c 0
 103.964 774.482 111.786 779.814 121.039 781.389 c 0
 128.812 782.73 136.438 780.186 144.71 781.361 c 0
 170.411 785.17 197.438 797.8 223.786 798.638 c 0
 231.263 798.767 236.97 794.34 243.832 792.759 c 0
 253.888 789.934 266.029 789.829 276.528 790.002 c 0
 294.712 790.303 312.65 793.854 330.875 794.249 c 0
 414.75 796.09 498.625 793.238 582.5 796.672 c 0
 620.625 797.8 658.668 797.8 696.875 794.928 c 0
 716.842 793.201 735.707 797.732 742.625 777.04 c 1
 725.339 765.403 704.18 752.164 700.688 732.06 c 1
 657.864 721.258 649.301 684.424 626.27 655.94 c 0
 606.801 631.72 584.396 609.736 564.748 585.75 c 0
 530.559 544.011 498.305 500.24 464.312 458.72 c 1
 487.917 464.799 511.995 471.844 536.75 472.408 c 0
 545.112 472.56 558.277 472.56 562.339 464.538 c 0
 566.938 455.064 555.105 429.452 546.166 423.741 c 0
 534.739 416.439 530.425 430.191 530.439 437.825 c 0
 530.446 442.343 532.059 447.407 532.938 451.8 c 1
 503.99 449.654 469.115 441.17 445.25 425.333 c 0
 432.662 416.825 424.136 404.1 414.444 392.98 c 2
 351.776 320.32 l 2
 302.676 263.673 251.807 210.182 206.615 150.78 c 0
 180.561 116.18 139.077 83.6074 125 43.5195 c 1
 166.647 51.7852 211.44 42.3311 253.687 42.959 c 0
 286.309 43.4453 317.907 52.0518 349.938 56.3262 c 0
 366.424 58.5225 382.991 57.3604 399.5 58.6104 c 0
 416.235 59.8066 432.432 64.2803 449.062 66.084 c 0
 479.406 69.1689 506.25 62.3916 536.75 71.2002 c 0
 572.213 81.5801 609.188 94.8828 627.204 126.56 c 0
 635.875 142.144 642.446 158.73 649.673 174.933 c 0
 652.029 180.214 654.938 188.124 662.562 188.124 c 0
 674 188.124 681.625 172.912 684.928 164.62 c 0
 694.176 138.565 682.638 111.696 687.705 85.04 c 0
 689.25 75.501 703.171 53.9004 694.354 46.3984 c 0
 684.466 37.4756 659.446 46.291 647.312 46.8555 c 0
 600.899 49.0137 555.812 46.9805 510.062 46.9766 c 0
 478.899 46.8486 449.062 43.3574 418.562 40.6475 c 0
 403.312 39.3135 387.973 40.9854 372.812 39.0225 c 0
 355.913 36.5996 339.903 31.1162 323.25 28.001 c 0
 297.836 22.7598 269.111 21.7695 243.188 20.5977 c 0
 197.438 18.5332 151.688 28.3691 105.934 20.6416 c 0
 94.5 18.7695 50.0498 19.29 41.125 12.3799 c 0
EndSplineSet
EndChar
StartChar: bracketleft
Encoding: 91 91
Width: 340
Flags: W
VStem: 6.32602 78.3175<-55.4136 -6>
Fore
52.9941 800.2 m 1
 23.4121 795.804 25.3018 757.793 22.4775 735.22 c 0
 18.6328 706.34 22.5703 677.302 21.1904 648.58 c 0
 20.0283 624.371 13.4336 600.698 13.4336 576.38 c 0
 13.4336 560.649 17.3896 545.103 16.9834 529.45 c 0
 11.3164 402.674 1.56445 277.55 1.56445 150.4 c 0
 1.56445 101.641 -0.208984 54.4775 4.84863 6 c 0
 8.44141 -28.418 4.97656 -64.3916 1.56055 -98.6904 c 0
 0.552734 -108.847 -8.1709 -127.57 -2.3916 -136.362 c 0
 5.52051 -147.626 25.3018 -143.508 37.1699 -143.945 c 0
 68.6953 -145.62 107.066 -134.79 136.073 -149.23 c 1
 175.635 -145.62 l 1
 180.928 -102.3 l 1
 190.675 -73.4199 l 1
 179.591 -30.0996 l 1
 148.606 -40.0273 159.811 -64.5928 150.303 -87.8604 c 0
 139.16 -114.301 108.381 -121.915 80.6875 -120.35 c 1
 84.6436 -87.8604 83.8242 -55.6133 84.6436 -22.8799 c 0
 84.6436 -5.8916 88.0664 10.5654 87.1475 27.6602 c 0
 86.1035 47.1904 79.4551 65.6182 80.6875 85.4199 c 0
 82.5498 107.993 106.329 144.699 80.6875 161.23 c 1
 84.6436 269.53 l 1
 103.806 547.176 l 1
 100.468 601.65 l 1
 104.27 637.75 l 1
 124.205 785.76 l 1
 135.846 784.512 147.941 785.76 159.811 782.15 c 0
 199.371 770.121 210.927 737.12 211.24 702.73 c 1
 227.064 699.12 l 1
 242.889 760.49 l 1
 245.431 785.742 l 1
 231.021 807.42 l 1
 76.7314 800.2 l 1
 68.8193 818.25 l 1
 52.9941 800.2 l 1
EndSplineSet
MinimumDistance: x17,-1 
EndChar
StartChar: asciicircum
Encoding: 94 94
Width: 352
Flags: W
VStem: 0.98697 35.6722<647 653>
Fore
33.3193 649.88 m 1
 34.4775 647.357 36.6592 642.09 36.6592 649.88 c 1
 33.3193 649.88 l 1
36.6592 653.513 m 1
 70.0596 683.611 l 1
 116.819 744.325 l 1
 143.54 723.448 160.239 693.307 183.62 668.042 c 0
 193.513 657.9 205.988 652.331 215.604 642.107 c 0
 220.359 636.872 246.9 605.666 250.42 628.085 c 0
 252.178 637.336 245.063 646.971 240.399 653.509 c 0
 228.146 672.924 208.765 682.572 207 708 c 1
 179.849 721.526 163.4 747.957 142.601 769.752 c 0
 135.982 777.018 126.129 792.477 116.438 793.502 c 0
 101.725 795.056 94.3818 773.385 86.6289 763.526 c 0
 64.1758 734.517 36.542 709.309 15.8203 678.939 c 0
 9.39844 669.528 -2.70898 653.225 2.0791 640.504 c 0
 10.6797 617.188 36.6592 634.811 36.6592 653.513 c 1
EndSplineSet
MinimumDistance: x1,-1 
EndChar
StartChar: underscore
Encoding: 95 95
Width: 568
Flags: W
HStem: 7.43825 32.6672<312 330.994 414.481 423.479> 7.61099 26.1574<68 100> 12.3388 27.7666<372 388>
Fore
5.41016 -3.12305 m 0
 5.06348 15.7031 3.3623 35.8438 4.87207 54.5703 c 0
 5.41016 61.4697 9.11035 72.6875 18.9717 69.9727 c 0
 27.5527 67.2305 32.4521 50.2275 38.7109 43.8076 c 1
 35.0107 36.5869 l 1
 42.4102 29.3672 l 1
 68.3105 36.5869 100.609 35.0322 127.511 31.9443 c 0
 139.395 30.584 237.802 24.6084 245.91 36.5869 c 0
 312.366 40.1055 l 1
 423.511 40.1973 l 1
 424.573 52.0742 426.058 69.0664 434.365 78.5605 c 0
 442.011 87.127 454.313 80.8945 459 72 c 0
 464.211 61.1455 459.116 47.417 456.811 36.5869 c 0
 453.11 20.7549 451.033 15.9805 450 0 c 0
 445.585 13.4775 428.363 2.10156 412.197 7.70703 c 0
 387.432 16.8662 356.308 10.6689 331.011 8.32031 c 0
 317.465 7.0625 303.843 7.70703 290.311 6.6748 c 0
 278.213 5.22559 260.711 4.09766 250.788 -3.12305 c 0
 245.87 6.13086 140.608 6.15625 131.211 7.09082 c 0
 106.388 9.56152 27.6104 9.32129 5.41016 -3.12305 c 0
EndSplineSet
EndChar
StartChar: grave
Encoding: 96 96
Width: 190
Flags: W
HStem: 704.695 94.0698<46 63>
Fore
24 705 m 1
 40.5488 705 62.7021 702.691 77.8203 710.592 c 0
 92.9414 718.499 100.067 744.231 98 759.15 c 1
 101.7 762.761 l 1
 112.801 759.15 l 1
 112.801 773.591 l 1
 101.7 769.98 l 1
 97.6426 797.003 54.2539 806.768 31.4004 793.868 c 0
 8.81348 780.726 0.463867 747.315 -1.11133 723.051 c 0
 -3.49609 686.252 9.2002 641.021 31.4004 611.141 c 0
 36.5713 603.921 64.7002 569.22 73.9756 590.961 c 0
 78.1924 601.252 60.0645 614.75 54.7275 621.971 c 0
 37.6768 645.068 29.8184 677.499 24 705 c 1
EndSplineSet
EndChar
StartChar: a
Encoding: 97 97
Width: 376
Flags: W
HStem: 10.5977 21.2935<104 113> 334.271 27.2742<160 177>
VStem: 251.774 47.8499<157.932 274>
Fore
193.772 334.271 m 5
 160.64 335.212 l 5
 160.64 344.76 l 5
 152.957 338.967 136.818 320.027 133.8 338.395 c 5
 114.279 328.599 91.2852 325.665 80.1191 300.205 c 5
 50.8398 258.832 l 5
 33.7598 214.277 l 5
 24 192 l 5
 21.5596 121.984 l 5
 16.6797 99.707 39.1426 60.6904 53.2793 50.1885 c 4
 82.2217 28.71 121.6 23.915 150.87 47.7178 c 4
 157.613 53.2314 169.899 64.665 171.038 75.9658 c 4
 171.855 83.7949 159.152 95.9775 168.781 102.212 c 4
 177.72 108.036 186.212 93.3418 187.479 83.7793 c 4
 190.911 59.0371 168.998 42.1982 155.76 30.708 c 4
 146.755 22.8984 137.286 13.7793 126.479 10.5977 c 4
 119.159 8.93164 111.615 10.373 104.52 10.5977 c 4
 78.3584 11.6289 45.96 20.1445 27.5811 46.2012 c 4
 -1.88965 86.9775 -4.32715 163.357 10.3418 214.277 c 4
 13.4512 224.993 19.1055 233.319 23.6875 242.92 c 4
 31.0928 258.44 36.1992 273.297 45.6357 287.475 c 4
 54.3398 300.932 61.7168 315.894 72.7998 326.336 c 4
 93.1963 345.524 121.188 356.737 146 360.132 c 4
 166.013 362.866 193.37 363.854 211.663 350.684 c 4
 219.841 344.629 244.7 310.548 228.598 299.654 c 4
 221.527 294.871 211.872 302.726 204.56 303.387 c 5
 209.439 319.3 l 5
 193.772 334.271 l 5
333.88 16.9619 m 5
 332.755 35.8027 325.221 33.5801 314.359 42.2236 c 4
 306.827 48.5195 300.938 59.8916 298.108 71.0645 c 4
 291.666 96.5244 295.571 124.611 296.9 150.627 c 4
 298.73 186.48 298.409 222.973 299.624 258.832 c 4
 299.72 272.728 301.273 286.359 301.934 300.201 c 4
 302.159 307.368 300.613 316.779 303.294 323.371 c 4
 307.983 334.914 320.755 332.972 329 332.029 c 5
 331.439 351.125 l 5
 309.479 359.562 285.08 352.434 263.119 354.033 c 4
 256.588 354.308 243.366 357.226 238.72 349.217 c 4
 232.224 337.53 246.04 328.089 249.909 319.3 c 4
 253.305 311.819 251.453 298.871 251.401 290.113 c 4
 250.92 222.733 254.182 153.81 247.445 86.9775 c 4
 246.04 75.3135 248.01 59.9883 244.569 48.7871 c 4
 241.141 38.3291 218.659 30.6709 228.224 15.2842 c 4
 233.84 5.92871 245.625 12.8066 253.359 11.4678 c 4
 260.68 10.1406 267.651 3.25 275.311 2.7002 c 4
 283.778 2.09375 291.766 10.0098 299.72 12.5586 c 4
 310.845 16.0488 322.616 13.7793 333.88 16.9619 c 5
EndSplineSet
MinimumDistance: x29,-1 
EndChar
StartChar: b
Encoding: 98 98
Width: 454
Flags: W
HStem: 31.6451 22.796<264.411 275.051> 341.22 24.0383<272 296>
VStem: 65.8408 78.9502<80 96 112 204 224 234 297.64 354.122 360.911 391.177 391.249 423.23> 73.7354 85.6885<672 704> 385.374 25.0694<192 210>
Fore
6.62793 792.052 m 1
 13.0273 772.419 29.542 774.696 45.0195 762.899 c 0
 56.9551 754.591 67.5293 736.214 71.4883 722.816 c 0
 75.5859 708.97 73.7354 693.294 73.7354 679.088 c 0
 73.7354 652.399 72.9648 625.593 73.7354 598.921 c 0
 75.9404 553.646 71.0449 509.185 69.7881 464.094 c 0
 67.8145 387.528 68.6514 310.934 65.8408 234.524 c 0
 64.7109 195.768 65.8408 156.724 65.8408 117.917 c 0
 65.8408 101.771 69.5342 81.1533 59.5146 66.9014 c 0
 46.1035 48.1123 28.2734 47.4502 6.62793 45.0381 c 1
 18.4707 30.4619 l 1
 18.4707 23.1738 l 1
 7.35645 15.7822 5.76465 3.76562 22.418 0.804688 c 0
 35.0352 -1.36621 49.2451 4.57324 61.8936 4.89746 c 0
 77.6836 4.9541 93.3496 2.13867 109.264 1.30957 c 0
 122.482 1.30957 135.551 4.69043 148.738 4.9541 c 0
 160.581 5.89746 179.748 3.1748 189 12 c 0
 194.065 16.8291 192.161 23.0352 186.783 26.7998 c 0
 170.272 37.75 149.425 35.8955 144.791 59.6133 c 0
 143.341 71.5352 144.791 84.0391 144.437 96.0527 c 0
 140.153 153.809 144.791 209.682 144.791 267.319 c 1
 148.738 267.319 l 1
 168.476 256.388 l 1
 172.423 260.032 l 1
 178.448 318.332 270.876 362.062 326.318 332.588 c 0
 343.207 323.471 350.809 308.193 359.37 292.827 c 0
 382.767 250.826 394.216 204.586 378.499 158.001 c 0
 367.658 125.885 343.245 92.4092 314.533 72.4707 c 0
 303.666 64.7305 289.194 55.4717 275.059 54.5107 c 0
 265.482 53.8633 256.315 57.873 247.426 60.5527 c 0
 231.636 65.1865 219.793 68.126 211.898 81.4775 c 1
 225.499 85.0039 226.026 91.0537 223.74 103.341 c 1
 211.289 95.9932 188.213 79.7588 192.161 63.2578 c 0
 195.16 52.2861 209.87 50.1191 219.793 46.7031 c 0
 246.138 37.6318 266.227 24.7861 294.796 36.042 c 0
 391.417 74.1182 429.011 174.929 403.194 263.676 c 0
 394.42 293.656 377.693 329.268 350.003 348.256 c 0
 280.154 395.481 167.165 342.58 148.738 270.964 c 1
 136.896 307.269 144.791 353.43 144.791 391.215 c 0
 144.791 431.067 138.261 471.382 140.843 511.466 c 0
 145.801 573.413 158.657 635.172 159.424 697.309 c 0
 159.698 719.172 176.371 751.847 192.971 768.088 c 0
 199.273 774.504 215.248 786.454 207.611 796.581 c 0
 200.056 806.364 171.621 799.34 160.581 799.34 c 0
 125.921 799.187 92.4512 795.695 57.9453 793.806 c 0
 40.7871 792.745 23.5674 794.55 6.62793 792.052 c 1
EndSplineSet
EndChar
StartChar: c
Encoding: 99 99
Width: 253
Flags: W
HStem: 2.13142 28.6562<106 113>
VStem: 2.49791 59.3094<161 193> 123.617 88.4388<108 112>
Fore
147.518 92.7324 m 1
 142.025 73.4941 134.845 47.8496 120.182 35.6748 c 0
 103.576 21.3389 76.9414 40.9453 73.0967 61.6602 c 0
 60.4453 128.849 56.1289 188.421 72 255 c 0
 78.46 282.62 88.4844 315.415 111.487 330.786 c 0
 132.13 344.226 173.602 343.021 190.585 322.293 c 0
 197.431 313.692 194.209 303.065 199.094 294.451 c 0
 202.794 287.923 209.462 291.13 211.708 297.286 c 0
 217.451 313.024 204.14 335.268 193.771 344.026 c 0
 172.736 361.798 153.247 358.204 129.502 360.591 c 0
 114.211 362.027 108.411 368.933 93.9824 358.025 c 0
 28.6836 306.787 -5.83594 231.662 3.95117 141.067 c 0
 11.7598 68.5645 62.582 -9.62207 132.502 2.42773 c 0
 150.024 5.44922 165.321 15.7891 174.123 34.04 c 0
 181.099 48.5244 182.562 65.1123 191.47 78.7744 c 0
 199.126 90.4668 224.727 105.652 204.345 119.253 c 0
 189.468 129.183 166.919 122.015 150.508 122.503 c 0
 143.4 122.713 134.211 123.292 127.937 118.579 c 0
 111.487 106.438 140.542 94.9102 147.518 92.7324 c 1
EndSplineSet
MinimumDistance: x7,-1 
EndChar
StartChar: d
Encoding: 100 100
Width: 466
Flags: W
HStem: 53.4207 22.9494<109.315 129.392>
VStem: 4.05421 25.0396<199 219> 275.809 54.0241<126.653 165.649> 279.819 71.7978<641 705>
Fore
181.279 376.154 m 0
 192.649 371.11 207.68 368.555 218.047 361.895 c 0
 225.85 356.985 228.892 346.214 238.13 343.676 c 0
 252.275 340.049 257.809 355.673 253.016 365.31 c 0
 245.71 379.72 225.982 386.269 211.6 392.326 c 0
 190.943 401.022 162.33 410.252 139.59 406.21 c 0
 125.78 403.783 114.089 396.034 101.689 390.345 c 0
 91.3818 385.613 80.7705 382.442 72.0137 375.162 c 0
 27.6221 338.252 12.3252 289.968 6.31055 237.12 c 0
 2.40918 202.834 2.49805 166.753 15.2227 133.734 c 0
 23.8721 111.283 37.2598 79.2676 60 66 c 0
 106.135 39.7178 197.191 54.3262 204.02 112.345 c 1
 170.994 98.085 148.739 73.1299 109.27 76.6943 c 0
 77.6953 79.9395 59.6846 101.354 47.4746 126.604 c 0
 25.8896 171.143 23.791 228.781 35.4756 276.335 c 0
 40.3164 296.029 53.7812 313.697 67.0693 329.204 c 0
 76.3291 340.014 84.25 343.676 82.7393 358.33 c 1
 86.5293 361.895 l 1
 97.8994 358.33 l 1
 107.764 368.119 168.366 392.305 181.279 376.154 c 0
238.13 789.694 m 1
 245.71 764.739 274.571 750.479 279.819 725.524 c 0
 282.366 716.515 279.819 706.171 279.819 697.005 c 0
 279.583 676.297 279.819 655.575 280.878 634.889 c 0
 282.825 582.64 288.384 528.27 283.218 475.975 c 0
 279.734 440.324 269.353 405.569 265.833 370.045 c 0
 260.322 314.48 270.378 256.96 272.239 201.47 c 0
 273.527 169.385 281.748 124.673 268.128 94.5166 c 0
 260.529 77.6934 246.487 63.0645 235.457 48.1748 c 0
 230.416 41.0449 221.955 32.585 222.97 23.2197 c 0
 225.571 4.10645 254.463 6.63379 268.449 8.95996 c 1
 279.461 -6.84277 287.399 6.28613 302.56 8.95996 c 0
 311.391 11.2119 320.177 8.68848 328.753 10.4883 c 0
 336.67 12.2148 343.872 17.1025 351.83 18.6768 c 0
 364.225 20.9707 377.497 19.6299 389.729 19.6543 c 0
 399.53 19.6543 420.993 17.2939 423.174 30.3496 c 0
 424.75 39.7842 411.688 41.0449 404.834 42.5029 c 0
 386.676 45.7969 360.775 44.6094 345.397 55.3047 c 0
 327.564 67.9561 330.699 107.771 330.066 126.604 c 0
 328.279 180.08 332.347 233.555 334.419 287.029 c 0
 338.446 390.415 340.46 493.8 351.186 597.185 c 0
 355.127 636.114 346.026 676.875 351.83 715.436 c 0
 355.309 735.022 370.779 746.357 374.569 764.739 c 1
 382.149 765.342 422.418 771.87 403.272 786.046 c 0
 394.482 792.299 377.505 789.694 366.989 792.055 c 0
 326.824 799.359 278.365 796.762 238.13 789.694 c 1
EndSplineSet
MinimumDistance: x32,-1 
EndChar
StartChar: e
Encoding: 101 101
Width: 382
Flags: W
HStem: 183.444 176.948<142 168 170 172>
Fore
181.306 341.481 m 5
 192.384 343.792 205.327 339.938 215.971 336.596 c 4
 253.611 324.553 284.91 287.312 295.748 251.145 c 4
 300.678 234.219 301.214 213.909 301.582 196.984 c 5
 276.628 196.984 251.324 195.226 226.718 197.562 c 4
 204.879 199.635 184.756 203.754 162.548 203.704 c 4
 144.158 203.271 119.768 191.278 101.942 196.221 c 4
 74.7559 203.754 96.8838 245.359 101.804 261.296 c 4
 104.647 270.512 104.94 278.224 112.638 284.994 c 5
 109.072 298.534 l 5
 148.287 332.384 l 5
 181.306 341.481 l 5
112.638 173.289 m 5
 84.1172 183.444 l 5
 71.5742 141.062 63.8135 84.7969 94.8125 48.0439 c 5
 111.819 36.2363 l 5
 130.463 13.7344 178.402 43.1914 194.159 56.2285 c 4
 206.205 66.2021 229.53 103.328 214.049 117.036 c 4
 204.063 125.879 189.052 117.317 176.808 120.253 c 4
 171.168 121.797 165.402 127.532 169.678 133.607 c 4
 175.662 141.125 193.069 140.87 201.763 141.855 c 4
 224.367 144.424 243.898 136.874 265.933 136.054 c 4
 277.898 136.054 288.726 141.476 300.562 141.961 c 4
 308.713 142.309 332.341 144.583 336 135 c 4
 340.471 123.284 308.562 110.918 302.188 102.056 c 4
 294.073 90.7695 284.99 79.8838 277.285 68.3545 c 4
 268.217 54.7773 262.022 39.8164 247.954 29.9326 c 4
 221.314 10.8086 179.558 8.55176 148.287 0.654297 c 5
 148.287 7.42383 l 5
 91.2471 4.03906 l 5
 80.2012 15.751 64.6943 20.9639 52.6943 32.2227 c 4
 40.4746 43.251 33.8037 58.0771 25.5557 71.7393 c 4
 15.0977 88.6641 2.95508 105.589 -1.44238 125.899 c 4
 -10.668 172.053 7.90918 232.643 34.208 271.153 c 4
 44.7109 285.682 58.4414 298.389 69.8086 312.061 c 4
 81.625 326.269 98.1338 355.484 116.202 362.046 c 4
 125.411 365.315 135.434 360.354 144.723 360.393 c 4
 166.847 360.479 186.678 364.225 208.893 359.464 c 4
 267.447 347.372 311.122 292.842 320.361 237.555 c 4
 322.655 223.819 333.006 190.214 317.852 180.833 c 4
 305.819 173.289 283.231 176.674 269.497 176.674 c 4
 226.178 176.661 183.938 183.444 141.157 183.444 c 5
 112.638 173.289 l 5
EndSplineSet
EndChar
StartChar: f
Encoding: 102 102
Width: 340
Flags: W
HStem: 534.484 16.0865<202.238 215.504>
VStem: 5.81543 26.094<522 527> 113.401 62.1712<457.339 492.154>
Fore
134.82 700.28 m 1
 136.118 698.586 138.565 695.045 138.565 700.28 c 1
 134.82 700.28 l 1
33.7051 517.28 m 1
 31.7451 522.16 29.4883 526.659 33.5107 531.617 c 0
 37.417 536.433 56.1201 543.033 48.3633 549.627 c 0
 35.8115 560.295 8.7666 539.207 5.81543 531.885 c 0
 4.55371 528.753 4.6377 525.336 5.47461 522.16 c 0
 14.2705 488.965 77.7266 514.309 108.605 517.28 c 1
 112.35 497.141 115.349 474.115 111.867 453.84 c 0
 110.752 447.328 106.766 441.261 105.778 434.734 c 0
 103.551 419.68 105.555 405.04 104.725 390.4 c 0
 103.438 367.635 99.5127 344.857 97.3701 322.08 c 0
 95.8408 294.335 102.3 266.599 100.954 239.12 c 0
 99.7656 214.72 90.7285 190.036 91.1895 165.92 c 0
 91.5811 145.511 102.907 125.229 103.887 104.92 c 0
 104.205 98.3652 101.115 91.9551 101.115 85.4004 c 0
 101.115 66.5664 104.86 55.3906 78.6309 42.5381 c 0
 63.1055 35.0703 32.3193 36.3096 22.4697 23.4756 c 0
 14.4385 11.4922 37.4502 -0.416992 52.4297 -2.44043 c 1
 63.665 10.8037 81.0332 9.75293 101.115 14.6396 c 1
 107.969 -0.0576172 124.788 3 134.82 14.6396 c 1
 151.512 12.8076 166.77 16.4434 183.505 16.7676 c 0
 199.739 17.0801 215.868 15.2861 232.19 16.0625 c 0
 241.125 16.4893 256.613 16.918 261.492 22.877 c 0
 267.973 30.8027 242.972 35.1582 235.935 37.7314 c 0
 207.808 48.0186 190.995 53.2344 190.995 75.6396 c 0
 190.867 116.202 189.543 157.289 184.39 197.64 c 0
 182.803 209.84 173.897 221.514 173.229 234.237 c 0
 170.785 280.519 181.578 326.927 178.882 373.32 c 0
 176.015 414.735 174.815 456.28 176.015 497.76 c 0
 176.015 510.384 176.947 532.761 202.23 534.36 c 0
 209.64 534.994 217.21 533.045 224.7 531.92 c 1
 220.955 514.84 l 1
 232.19 517.137 257.63 522.084 257.63 531.92 c 0
 257.63 541.68 228.445 547.206 217.21 549.45 c 0
 202.23 552.343 186.778 549 172.27 546.56 c 1
 179.372 675.88 l 1
 175.021 723.646 l 1
 190.995 758.84 l 1
 198.485 756.4 l 1
 205.953 765.583 220.783 778.288 238.093 779.697 c 0
 261.229 781.579 276.157 768.6 299.6 775.92 c 1
 293.547 787.15 282.057 790.56 265.895 795.44 c 0
 221.781 808.965 159.514 794.482 133.28 768.598 c 0
 119.84 755.418 118.088 735.076 115.038 719.8 c 0
 106.579 677.396 112.072 635.446 108.605 592.92 c 0
 107.917 579.919 109.337 566.878 108.319 553.88 c 0
 107.866 548.049 108.082 540.379 102.109 535.604 c 0
 89.0791 525.177 52.4297 521.569 33.7051 517.28 c 1
EndSplineSet
MinimumDistance: x37,-1 
EndChar
StartChar: g
Encoding: 103 103
Width: 424
Flags: W
HStem: -4.62467 22.9134<106 117> 308.812 45.9799<336 352.55>
VStem: 12.7398 21.3907<134 159> 269.142 62.7648<150 160 212 213 214.349 236.363> 269.22 50.8418<-356.036 -316.464 -298 -216>
Fore
243.58 331.688 m 1
 217.94 339.223 194.006 351.685 166.66 349.265 c 0
 147.43 347.601 131.396 337.47 115.38 326.542 c 0
 79.2705 301.895 39.8125 260.68 23.9434 213.5 c 0
 7.40234 163.938 9.29297 100.976 28.1475 53.375 c 0
 39.6934 24.2227 58.3506 0 86.5352 -3.14941 c 0
 120.178 -7.625 152.845 -3.15332 176.819 26.6875 c 0
 184.312 36.2109 194.043 45.5527 198.71 57.1172 c 0
 201.608 62.5527 203.136 70.5723 197.239 73.7256 c 0
 191.73 76.25 186.535 72.084 182.685 67.7539 c 0
 173.07 56.9385 165.712 44.6035 155.674 34.3125 c 0
 130.341 9.11035 83.3301 13.9355 60.8945 41.9375 c 0
 51.2803 54.3613 47.3828 68.4316 42.6445 83.875 c 0
 21.1982 153.751 41.665 218.414 83.3301 270.632 c 0
 104.403 296.519 132.26 321.218 163.455 320.25 c 1
 163.455 337.25 184.016 323.526 192.3 322.156 c 0
 201.255 320.25 211.017 326.93 220.078 324.699 c 0
 231.749 321.825 243.58 300.752 249.99 324.062 c 1
 249.99 331.688 l 1
 274.459 312.625 272.425 291.272 272.425 259.25 c 0
 272.425 225.831 271.048 193.373 269.142 160.125 c 0
 267.868 137.916 269.195 117.443 269.195 95.3125 c 0
 269.195 83.875 266.741 72.3105 267.393 61 c 0
 267.99 50.583 271.915 41.0518 272.128 30.5 c 0
 272.425 3.8125 264.641 -22.875 264.641 -49.5625 c 0
 264.641 -105.425 268.443 -161.428 269.22 -217.312 c 0
 269.22 -250.333 269.22 -283.387 269.22 -316.438 c 0
 269.22 -340.34 270.663 -363.338 260.731 -385.062 c 0
 243.58 -422.119 208.322 -433.664 176.275 -413.962 c 0
 167.232 -408.313 159.104 -368.982 147.414 -383.625 c 0
 123.442 -413.652 169.865 -439.316 182.685 -453.688 c 1
 202.882 -453.688 223.94 -461.312 244.125 -454.38 c 0
 269.16 -446.469 288.985 -413.607 302.053 -389.366 c 0
 305.921 -382.188 312.081 -376.7 314.976 -368.826 c 0
 320.5 -352.794 317.116 -333.314 318.7 -316.438 c 0
 321.521 -286.406 319.339 -256.651 320.062 -226.554 c 0
 320.422 -211.739 324.998 -198.25 325.98 -183 c 0
 326.91 -165.055 323.705 -147.525 323.705 -129.625 c 0
 323.02 -59.835 328.131 10.3242 330.006 80.0625 c 0
 331.029 118.188 332.303 156.982 332.747 195.085 c 0
 332.907 208.898 330.115 222.604 330.781 236.375 c 0
 331.896 260.553 335.655 284.616 336.525 308.812 c 1
 352.55 308.812 l 1
 349.345 327.875 l 1
 381.395 335.5 l 1
 371.78 363.521 343.905 351.644 323.705 355.817 c 0
 305.596 359.556 291.442 369.057 272.425 363.982 c 0
 256.297 359.678 239.305 354.057 243.58 331.688 c 1
EndSplineSet
MinimumDistance: x35,-1 
EndChar
StartChar: h
Encoding: 104 104
Width: 388
Flags: W
VStem: 36.4121 62.2588<440.087 460.493> 51.46 55.4443<617 665> 114.568 20.0652<238 250> 284.589 23.1451<217 266>
Fore
8.71777 775.863 m 1
 11.6064 795.465 l 1
 75 801 l 1
 139.584 794.333 l 1
 106.904 683.626 l 1
 107.393 612.456 l 1
 98.6709 491.735 l 1
 101.059 367.324 l 1
 98.6709 281.393 l 1
 105.533 126.076 l 1
 101.621 67.3604 l 1
 115.236 33.918 l 1
 139.584 15.5537 l 1
 126.857 0.936523 l 1
 86.082 4.62695 l 0
 84.085 12.0283 66.9775 -3.03516 67.1982 4.62695 c 1
 52.8887 -2.75391 8.61035 -18.4336 3.33594 9.44141 c 0
 -2.65137 41.0713 32.5801 39.5469 41.9316 57.1328 c 0
 46.7051 66.2861 45.125 79.2812 45.168 89.502 c 0
 45.168 103.254 47.2363 116.439 48.0361 130.094 c 0
 50.5957 173.987 48.3154 218.659 48.3154 262.941 c 0
 48.3154 296.81 51.1465 332.609 47.9102 366.268 c 0
 45.168 390.838 37.3125 415.159 36.4121 440.072 c 0
 35.7266 456.865 39.6396 475.115 41.6123 491.735 c 0
 44.9287 519.718 47.252 548.4 48.3154 576.61 c 0
 49.6865 602.441 51.4629 628.14 51.46 654.104 c 0
 51.4102 666.296 48.9609 678.924 49.665 691.007 c 0
 51.4629 722.316 60.9043 756.753 26.2852 768.501 c 1
 8.71777 775.863 l 1
136.437 226.04 m 1
 132.401 246.148 132.324 269.991 149.025 281.393 c 1
 151.297 332.612 221.411 383.173 257.705 342.688 c 0
 289.358 306.875 286.218 257.464 284.354 211.279 c 0
 283.251 178.067 283.604 147.641 279.443 115.333 c 0
 276.757 94.4785 282.649 71.9268 272.614 52.5996 c 0
 262.177 32.6094 236.142 23.0781 218.264 15.6973 c 1
 234 0 l 1
 259.178 7.11328 l 1
 305.851 8.31738 l 1
 350.445 8.31738 l 1
 345.812 26.6777 334.528 32.2676 318.974 34.1484 c 1
 314.893 61 305.35 83.6064 303.807 111.643 c 0
 302.869 128.757 306.385 146.069 306.382 163.306 c 0
 306.25 218.659 314.551 269.05 295.674 321.932 c 0
 284.354 352.185 266.6 376.841 237.146 380.29 c 0
 226.728 381.028 215.691 378.736 205.675 375.529 c 0
 191.451 370.978 176.831 363.227 164.762 353.287 c 0
 138.994 332.064 123.848 301.978 116.38 266.632 c 0
 111.26 244.491 111.26 221.275 136.437 226.04 c 1
EndSplineSet
MinimumDistance: x41,-1 
EndChar
StartChar: i
Encoding: 105 105
Width: 139
Flags: W
HStem: 19.0176 342.907<78 86>
VStem: 43.9141 52.2627<187 233 266 266> 47.0579 49.5742<271 290>
Fore
68.4531 485.958 m 0
 57.3887 488.089 36.2051 471.78 32.2803 459.521 c 0
 25.208 437.458 54.4248 419.96 71.3838 426.716 c 0
 82.4297 431.116 98.8486 441.206 102 454 c 0
 106.563 473.383 95.2744 480.796 68.4531 485.958 c 0
EndSplineSet
Ref: 305 S 1 0 0 1 0 0
EndChar
StartChar: j
Encoding: 106 106
Width: 205
Flags: W
HStem: -370.332 31.095<58 69>
DStem: 99.0127 312.772 149.619 272.02 99.3916 248.218 144.402 176.812 99.3916 248.218 149.619 272.02 102.006 88.4062 144.402 176.812 102.006 88.4062 148.888 136.01 104.584 23.8008 154.085 40.8018 102.006 -17.001 154.317 -23.8008 104.619 -108.808 160.506 -129.21 102.006 -197.215 157.599 -180.214 103.735 -261.819 156.933 -295.821 143.855 361.701 143.855 361.701 81.082 360.427 167.171 358.389
Fore
81.082 360.427 m 5
 99.0127 312.772 l 5
 99.3916 248.218 l 5
 102.006 88.4062 l 5
 104.584 23.8008 l 5
 102.006 -17.001 l 5
 104.619 -108.808 l 5
 102.006 -197.215 l 5
 103.735 -261.819 l 5
 88.9287 -326.424 l 5
 80.8398 -328.259 77.6006 -335.643 70.1748 -339.237 c 4
 60.1572 -343.994 41.8486 -333.225 35.0342 -324.254 c 4
 25.4502 -312.823 28.2969 -300.592 27.4307 -285.82 c 4
 27.1133 -280.433 25.498 -274.18 20.4873 -274.18 c 4
 8.38574 -274.18 10.1396 -302.857 10.4619 -312.823 c 4
 12.3926 -341.968 28.0996 -362.856 49.6953 -368.867 c 4
 64.2803 -372.925 77.335 -368.455 91.5439 -364.876 c 4
 98.7705 -363.063 105.289 -362.437 110.916 -355.551 c 4
 126.312 -336.704 135.421 -303.838 156.933 -295.821 c 5
 157.599 -180.214 l 5
 160.506 -129.21 l 5
 154.317 -23.8008 l 5
 154.085 40.8018 l 5
 148.888 136.01 l 5
 144.402 176.812 l 5
 149.619 272.02 l 5
 152.25 313.795 l 5
 167.171 358.389 l 5
 143.855 361.701 l 5
 81.082 360.427 l 5
133.394 516.838 m 0
 121.894 508.006 110.834 496.437 106.727 479.436 c 0
 101.049 455.534 112.468 441.401 130.333 450.869 c 0
 135.613 453.681 141.197 457.646 146.017 461.62 c 0
 155.73 469.234 160.348 488.644 157.817 503.17 c 0
 155.391 516.838 143.208 524.45 133.394 516.838 c 0
EndSplineSet
MinimumDistance: x27,-1 
EndChar
StartChar: k
Encoding: 107 107
Width: 427
Flags: W
VStem: 48.1104 70.5684<67.3572 129>
DStem: 59.0986 242.14 118.679 169.64 48.1104 129.765 118.679 97.1396
Fore
63.2695 2.88965 m 1
 64.6416 0.373047 67.2266 -4.88379 67.2266 2.88965 c 1
 63.2695 2.88965 l 1
209.709 -0.735352 m 1
 245.329 -17.4482 l 1
 280.95 -12.6436 l 1
 368.022 17.3896 l 1
 365.379 45.5967 351.611 37.2842 328.444 47.4834 c 0
 315.441 53.208 306.946 63.4102 292.823 57.2646 c 2
 288.865 57.2646 l 1
 258.988 97.1396 l 1
 245.229 147.89 l 1
 247.22 202.265 l 1
 257.203 253.015 l 1
 223.36 247.396 223.913 229.18 219.329 202.265 c 0
 213.269 166.651 218.39 135.786 227.233 100.765 c 0
 231.06 85.6064 241.372 69.4463 240.417 53.6396 c 0
 238.828 31.8896 214.467 19.8496 209.709 -0.735352 c 1
114.721 800.39 m 1
 108.691 794.266 104.05 788.938 94.7539 787.153 c 0
 77.3691 783.822 11.3418 802.064 27.6484 764.14 c 0
 29.4805 760.515 33.334 756.458 35.5645 753.265 c 2
 43.4795 756.89 l 1
 57 738 l 1
 63.2695 655.39 l 1
 59.3115 524.89 l 1
 51.3955 372.64 l 1
 59.0986 242.14 l 1
 48.1104 129.765 l 1
 49.0068 53.6396 l 1
 10.2441 21.0146 l 1
 3.90137 -0.735352 l 1
 55.3535 -0.735352 l 1
 55.3535 15.3643 75.1426 -0.735352 87.0156 -0.735352 c 0
 113.066 -1.07129 132.113 -2.36426 154.299 10.1396 c 0
 161.453 13.7646 175.681 19.6055 177.382 28.2646 c 0
 178.808 35.4932 172.658 38.1807 166.173 39.1396 c 0
 146.384 42.0107 132.798 36.959 122.637 57.2646 c 0
 116.545 69.4355 118.679 84.1406 118.679 97.1396 c 2
 118.679 169.64 l 1
 149.839 177.679 163.958 214.475 185.962 234.89 c 0
 220.94 267.312 254.722 300.14 292.823 329.14 c 0
 309.915 342.74 327.605 358.883 348.233 367.206 c 0
 360.106 372.158 374.855 372.64 387.812 376.265 c 1
 382.404 391.593 368.761 395.522 352.191 398.659 c 0
 334.604 401.64 317.421 399.795 299.703 400.11 c 0
 272.821 400.585 241.372 408.89 229.498 379.89 c 1
 276.992 358.14 l 1
 276.992 350.89 l 1
 233.456 311.015 l 1
 159.305 241.103 l 1
 122.637 202.265 l 1
 123.746 225.973 124.218 251.22 126.595 274.765 c 0
 128.624 287.155 133.935 298.405 134.433 311.015 c 0
 135.453 336.39 130.553 361.608 130.553 387.14 c 0
 130.553 459.53 133.528 532.026 134.433 604.64 c 0
 134.51 633.618 130.135 662.544 130.553 691.64 c 0
 130.553 712.562 138.112 732.318 153.692 748.032 c 0
 161.117 755.523 184.315 766.225 182.004 778.021 c 0
 181.131 784.979 172.465 788.279 166.096 790.148 c 0
 149.89 794.909 131.445 796.765 114.721 800.39 c 1
EndSplineSet
MinimumDistance: x36,-1 
EndChar
StartChar: l
Encoding: 108 108
Width: 235
Flags: W
HStem: 25.0344 770.725<71 75>
VStem: 60.9199 69.5031<129 137>
DStem: 122.905 797.731 122.905 797.731 75.1504 795.76 185.433 795.76
Fore
7.55762 795.76 m 1
 49.501 768.099 l 1
 71.1201 734.9 l 1
 68.6504 656.14 l 1
 64.4775 555.9 l 1
 67.8965 459.24 l 1
 57.3623 250.991 l 1
 60.9199 137.04 l 1
 60.9199 95.5977 l 1
 28.9023 36.7998 l 1
 8.58887 33.2197 1.6582 20.8652 4 1 c 1
 27.1484 2.20996 39.5752 17.792 60.9199 23.4521 c 0
 77.1445 27.8184 94.0488 22.249 110.12 23.9062 c 0
 117.84 24.7178 124.479 29.6396 132.07 31.5947 c 0
 143.906 33.9121 162.823 26.0146 170.896 38.4854 c 0
 178.266 49.8721 147.912 66.1602 142.742 76.1797 c 0
 124.955 109.903 131.239 147.385 132.07 183.58 c 0
 133.046 221.555 139.182 260.109 138.532 298.14 c 0
 137.906 333.94 130.826 369.694 128.513 405.54 c 0
 123.729 482.233 124.031 558.306 134.12 634.66 c 0
 140.182 680.546 135.2 729.446 156.973 770.7 c 1
 167.645 774.28 l 1
 192.548 777.86 l 1
 185.433 795.76 l 1
 122.905 797.731 l 1
 75.1504 795.76 l 1
 7.55762 795.76 l 1
EndSplineSet
MinimumDistance: x23,-1 
EndChar
StartChar: m
Encoding: 109 109
Width: 607
Flags: W
HStem: 344.113 19.0801<411.663 430.167>
VStem: 37.71 58.8848<144.076 203> 42.1826 58.0664<268 268 285 290> 42.1826 54.4121<91 107 130 145 274 284> 281.189 19.3488<103 151> 496.746 22.4626<71 92 124.802 167.281>
DStem: 21.875 57.3594 21.875 57.3594 -0.839844 34.1455 27.6807 54.1494
Fore
526.952 7.48535 m 0
 538.422 12.4111 550.175 12.4111 561.785 18.832 c 1
 553.919 41.3066 526.524 32.917 520.878 60.5703 c 0
 516.58 81.624 518.244 103.409 518.244 124.782 c 0
 518.244 150.468 516.479 176.043 515.342 201.837 c 0
 513.536 249.996 509.156 304.577 476.104 342.211 c 0
 456.623 364.076 430.167 364.568 405.037 362.368 c 0
 394.109 361.822 383.602 362.368 373.107 358.552 c 0
 359.863 352.736 349.332 343.104 337.446 335.494 c 0
 316.515 321.423 294.733 304.577 291.83 275.682 c 1
 273.634 292.938 270.947 322.85 249.919 338.104 c 0
 239.028 346.004 217.827 357.549 204.748 357.495 c 0
 195.476 357.461 186.975 351.921 178.623 348.161 c 0
 146.693 333.473 112.768 302.04 100.249 266.05 c 1
 95.7646 288.523 104.027 310.998 115.809 330.212 c 0
 120.098 336.683 136.718 349.525 135.082 358.518 c 0
 133.971 366.952 120.568 368.188 114.763 369.403 c 0
 105.49 371.335 92.5439 375.21 82.833 374.684 c 0
 69.2969 373.489 62.5137 367.61 48 372 c 1
 32.1025 358.176 1.55566 374.969 7.36133 343.104 c 1
 36.1113 339.894 41.8398 313.463 42.1826 285.313 c 0
 42.1943 246.657 36.9756 208.058 37.71 169.731 c 0
 38.0557 151.797 38.4209 133.038 39.292 115.15 c 0
 40.6895 103.058 42.8721 88.8008 39.292 76.623 c 0
 37.4062 68.7227 31.3203 61.6494 27.6807 54.1494 c 1
 21.875 57.3594 l 1
 -0.839844 34.1455 l 1
 7.36133 20.2246 l 1
 42.1943 22.043 l 1
 49.7715 21.3164 83.9668 15.1953 91.541 15.6221 c 0
 99.2764 16.4053 106.001 20.2031 113.936 20.0078 c 0
 120.568 19.8486 130.771 17.6035 134.342 26.1006 c 0
 137.324 33.1895 130.561 37.877 126.06 41.0713 c 0
 110.043 52.4346 102.074 62.1787 97.125 83.0449 c 0
 92.2383 103.663 96.0879 123.331 96.5947 144.046 c 0
 97.1113 165.226 94.4434 187.079 98.1426 208.259 c 0
 99.6484 217.097 103.668 225.365 106.055 233.943 c 1
 97.3467 233.943 l 1
 97.3467 237.154 l 1
 108.957 237.154 l 1
 108.957 256.041 122.192 274.49 133.053 288.521 c 0
 158.131 320.63 196.644 352.595 233.515 323.841 c 0
 239.221 319.514 243.663 313.867 247.827 307.737 c 0
 263.347 284.893 267.31 261.181 272.089 233.943 c 0
 280.22 185.784 285.226 134.414 279.684 86.2549 c 0
 278.006 71.5537 270.34 59.2158 268.608 44.5176 c 1
 261.45 42.3418 256.903 37.6602 250.248 34.3555 c 0
 243.575 31.0381 234.79 31.6748 229.209 26.0938 c 0
 220.475 16.958 231.743 8.93457 239.513 7.25391 c 0
 250.293 4.92676 301.494 10.0469 312.149 9.2002 c 0
 327.967 9.06934 341.732 5.40332 346.982 25.2539 c 1
 300.538 43.1943 300.538 95.1318 300.538 140.836 c 0
 300.524 179.125 282.861 227.108 299.926 262.839 c 0
 320.857 306.825 360.231 338.392 405.037 343.104 c 0
 423.259 345.77 441.078 343.665 456.414 330.845 c 0
 472.883 317.077 483.006 287.122 489.217 266.05 c 0
 497.397 239.317 496.904 207.259 497.82 179.363 c 0
 498.77 150.468 497.689 121.513 496.746 92.6768 c 0
 496.36 80.8496 499.422 68.917 495.884 57.3594 c 0
 492.703 46.957 486.002 38.0957 477.504 33.0801 c 0
 472.537 29.875 461.63 27.3516 462.862 18.7197 c 0
 464.717 5.77734 518.714 9.19043 526.952 7.48535 c 0
EndSplineSet
MinimumDistance: x3,-1 
EndChar
StartChar: n
Encoding: 110 110
Width: 415
Flags: W
HStem: 348.17 20.0731<237 244>
VStem: 43.3584 52.7727<90 115 161 193 209 209> 43.6532 55.4943<200 203> 317.696 23.7368<74 112>
Fore
36.9365 48.0059 m 1
 18.3633 51.1182 7.14941 44.7598 11.248 25.2852 c 1
 5.97363 21.7949 -0.821289 15.2842 6.82617 9.05566 c 0
 13.3926 3.87012 22.9629 7.82617 30.3887 7.66504 c 0
 38.3877 7.4873 45.0889 0.884766 52.8027 1.32227 c 0
 63.207 1.9082 63.9287 17.5957 65.835 25.2852 c 1
 80.6426 5.38867 97.0107 20.3721 117.211 24.2832 c 0
 123.608 25.2852 139.023 25.2852 139.023 35.0225 c 0
 139.023 47.0137 121.962 46.4619 114.675 49.9141 c 0
 105.486 54.2656 100.939 64.2354 98.7012 73.9727 c 0
 92.8994 98.4678 96.7568 120.859 97.8193 145.38 c 0
 99.2529 178.485 99.8486 212.972 97.9453 246 c 1
 114 246 l 1
 121.438 287.498 162.159 310.809 194.275 331.498 c 0
 216.028 345.508 242.268 357.173 264.792 338.56 c 0
 322.716 290.39 312.029 196.717 316.294 129.151 c 0
 318.185 105.334 323.317 65.6709 307.614 45.4541 c 0
 293.218 26.9238 274.189 35.0225 255.284 31.7764 c 1
 261.706 5.52148 278.831 9.61426 300.784 5.60742 c 0
 321.207 1.87695 328.103 -2.29785 348.403 6.51074 c 0
 355.876 9.75391 381.871 12.9326 379.949 24.9297 c 0
 378.654 33.0039 366.92 33.7988 361.248 37.3877 c 0
 351.301 43.8945 343.069 55.4385 341.433 67.4805 c 0
 339.395 82.4863 341.981 97.8848 341.844 112.922 c 0
 340.658 148.61 336.243 184.33 332.895 220.034 c 0
 329.138 258.131 325.927 294.151 304.256 327.146 c 0
 298.357 336.015 291.9 344.846 283.896 351.892 c 0
 245.651 385.431 203.908 361.448 168.587 337.941 c 0
 143.814 321.291 120.212 307.5 107.578 278.458 c 1
 101.156 297.35 91.417 318.436 103.505 336.883 c 0
 110.789 348.243 121.705 352.709 131.711 360.821 c 0
 135.655 364.016 141.219 369.29 139.688 375.078 c 0
 137.666 385.57 114.906 378.958 107.578 379.078 c 0
 99.8857 379.994 92.7334 383.098 85.1016 383.802 c 0
 69.6611 385.225 51.4229 382.324 36.0205 380.568 c 0
 27.3027 379.078 13.3301 379.078 10.4512 369.05 c 0
 7.3125 357.689 29.8086 346.541 35.958 338.648 c 0
 43.9756 328.359 44.415 313.798 45.6064 301.179 c 0
 49.3379 261.659 43.0889 220.896 43.3584 181.084 c 0
 43.3584 138.093 49.7803 89.2979 36.9365 48.0059 c 1
EndSplineSet
MinimumDistance: x22,-1 
EndChar
StartChar: o
Encoding: 111 111
Width: 298
Flags: W
VStem: 1.21191 48.8008<133.688 147.138> 201.583 49.4248<206 237>
Fore
201.583 207.662 m 1
 201.583 170.412 197.467 134.269 179.708 100.68 c 0
 174.56 90.9434 164.523 85.667 158.748 76.2129 c 0
 153.409 66.4375 155.32 53.8086 148.862 44.7754 c 0
 134.634 24.751 92.8477 22.7246 73.0771 33.8828 c 0
 60.8955 40.9561 52.5801 55.6475 43.4229 66.4375 c 1
 21 114 49.9805 126.207 50.0127 147.138 c 0
 50.0127 199.486 65.8604 269.327 97.2725 311.621 c 0
 108.541 326.795 127.629 324.582 138.978 335.438 c 1
 186.723 319.482 l 1
 198.287 278.275 l 1
 201.007 237.925 l 1
 201.583 207.662 l 1
115.912 -0.8125 m 1
 141.304 22.584 177.104 32.4775 200.508 59.7129 c 0
 242.014 108.377 251.008 165.979 251.008 227.838 c 0
 251.008 246.321 253.469 266.956 249 285 c 0
 242.647 310.665 224.647 326.062 214.763 348.888 c 1
 199.665 350.047 189.368 362.925 175.223 363.864 c 0
 164.305 364.597 158.403 353.721 148.566 351.298 c 0
 139.834 348.888 131.178 354.539 122.503 355.034 c 0
 107.801 355.612 94.292 348.054 82.9629 338.8 c 0
 28.1514 297.038 14.3594 236.182 6.57227 170.675 c 0
 5.10254 158.275 1.23438 146.615 1.21191 133.688 c 0
 1.14453 93.3379 19.1602 47.2803 50.0127 21.1523 c 0
 68.4121 5.91211 93.6943 3.86328 115.912 -0.8125 c 1
EndSplineSet
MinimumDistance: x14,-1 
EndChar
StartChar: p
Encoding: 112 112
Width: 370
Flags: W
VStem: 55.5146 55.6328<-231 -167 -142 -83> 64.1299 53.1143<75 169> 290.019 23.7091<166 205>
Fore
68.6045 4.11523 m 1
 40.6025 -7.92969 52.2422 -56.9082 54.958 -82.1396 c 0
 56.8184 -102.045 54.7861 -122.005 55.5146 -141.854 c 0
 58.1475 -199.833 58.7871 -258.304 42.4248 -314.364 c 1
 52.2422 -314.364 l 1
 42.4248 -321 l 1
 19.5166 -347.54 l 1
 19.5166 -330.952 l 1
 4.89258 -339.094 -11.041 -370.762 16.1807 -374.103 c 0
 26.6377 -375.521 35.6748 -366.596 45.6973 -364.869 c 0
 58.4863 -362.683 71.877 -364.399 84.9668 -364.127 c 0
 99.5977 -364.127 112.841 -361.338 127.51 -363.194 c 0
 137.039 -364.402 156.962 -370.762 163.226 -359.754 c 0
 171.503 -345.527 142.536 -329.293 135 -321 c 0
 107.695 -290.312 111.147 -256.685 111.147 -218.157 c 0
 111.147 -159.722 108.661 -100.71 111.147 -42.3301 c 0
 112.419 -16.8135 120.306 8.19434 120.671 33.9727 c 0
 120.868 48.0459 117.615 61.7178 117.244 75.6943 c 0
 116.337 110.155 116.331 145.495 117.692 179.942 c 0
 119.405 216.436 125.963 252.873 127.51 289.42 c 1
 134.055 286.103 l 1
 139.302 317.36 l 1
 173.324 339.183 l 1
 176.597 329.23 l 1
 215.867 338.25 253.903 310.395 271.499 276.15 c 0
 293.717 234.465 293.915 185.642 286.961 140.133 c 0
 283.854 119.762 279.477 97.0049 267.658 80.418 c 0
 253.833 60.4443 234.844 39.8887 212.595 29.6895 c 0
 200.15 23.9844 187.808 21.5742 179.869 33.9727 c 1
 171.324 31.498 144.99 14.6416 161.417 4.11523 c 0
 166.779 0.797852 174.034 3.11426 179.869 3.56738 c 0
 192.09 4.11523 204.337 3.11719 215.867 8.18164 c 0
 298.906 44.6221 324.562 142.604 310.77 226.388 c 0
 306.251 255.967 299.066 281.72 280.537 305.959 c 0
 259.042 334.067 234.134 342.5 202.777 354.419 c 0
 156.316 371.516 118.555 369.04 70.4902 361.129 c 0
 60.0713 359.088 35.8154 363.225 28.9766 353.771 c 0
 22.7891 345.462 33.3613 335.555 37.6758 329.23 c 0
 47.7422 314.479 59.6182 294.157 61.7207 276.15 c 0
 64.501 252.3 68.2852 227.169 68.5469 203.165 c 0
 68.6045 190.647 64.2266 179.02 64.1299 166.673 c 0
 63.7275 113.302 62.0596 57.124 68.6045 4.11523 c 1
EndSplineSet
EndChar
StartChar: q
Encoding: 113 113
Width: 379
Flags: W
HStem: 343.181 19.033<150 167>
VStem: 7.08833 18.7193<145 177> 237.907 43.6476<-137.272 -85.3076> 240.87 51.502<136.021 237.11>
DStem: 203.593 344.02 217.93 330.66 220.798 320.64 220.798 320.64
Fore
275.28 380.76 m 1
 260.662 355.968 245.426 367.4 223.665 370.57 c 0
 211.282 372.254 199.616 376.898 194.99 360.72 c 1
 165.777 365.019 130.553 363.969 103.23 348.785 c 0
 94.6025 343.994 87.9688 335.855 80.29 329.424 c 0
 2.7334 264.44 -23.0264 120.24 49.2744 36.7402 c 0
 64.3896 19.4072 92.7402 3.33984 114.7 5.00684 c 0
 125.114 5.72461 136.069 10.9951 146.242 13.3604 c 0
 162.174 18.0898 185.1 27.6533 180.652 50.0996 c 1
 154.845 42.376 131.647 21.7686 103.23 27.999 c 0
 74.5547 34.2578 57.0898 58.6816 44.0459 86.8398 c 0
 38.5068 98.791 30.54 110.22 27.4404 123.58 c 0
 24.4629 136.269 25.8076 150.3 25.8076 163.66 c 0
 25.8076 221.748 46.4287 272.229 86.0254 308.901 c 0
 91.5215 313.96 97.3438 318.82 103.23 323.278 c 0
 123.303 338.674 171.303 357.119 189.255 330.66 c 1
 192.122 330.66 l 1
 194.99 330.66 l 1
 203.593 344.02 l 1
 220.798 320.64 l 1
 217.93 330.66 l 1
 232.268 323.98 237.361 303.94 240.083 287.24 c 0
 242.5 272.295 240.87 255.641 240.87 240.48 c 2
 240.87 156.98 l 1
 240.856 116.9 238.003 76.3438 234.65 36.7402 c 0
 233.007 17.6846 229.4 -0.8125 229.4 -20.04 c 0
 229.347 -33.7227 227.619 -49.4932 230.257 -62.8926 c 0
 232.268 -73.8584 237.706 -81.7383 237.907 -93.5234 c 0
 238.781 -144.354 231.366 -197.06 227.017 -247.16 c 0
 225.146 -268.86 229.4 -300.926 220.73 -320.64 c 0
 214.502 -334.102 204.984 -330.66 195.673 -337.513 c 0
 187.751 -343.459 184.809 -356.538 177.785 -364.06 c 1
 180.652 -347.36 l 1
 168.976 -356.007 164.377 -364.66 163.447 -380.76 c 1
 220.798 -370.74 l 1
 228.204 -384.1 237.658 -377.42 249.473 -378.284 c 0
 270.458 -380.76 319.536 -393.526 324.027 -360.72 c 1
 308.956 -356.74 285.02 -345.27 278.752 -327.32 c 0
 276.193 -319.795 278.716 -311.565 278.87 -303.94 c 0
 279.139 -290.58 278.147 -277.338 279.108 -263.86 c 0
 280.886 -230.878 279.657 -197.06 280.903 -163.66 c 0
 282.533 -120.296 280.43 -76.8203 282.241 -33.4004 c 0
 282.81 -20.04 285.697 -6.77441 286.495 6.67969 c 0
 289.035 49.666 289.517 92.9365 291.83 135.984 c 0
 293.636 169.583 290.236 203.658 292.973 237.14 c 0
 295.036 262.432 295.148 291.15 305.817 313.96 c 0
 310.625 323.98 331.687 341.293 329.763 353.107 c 0
 328.791 361.447 317.743 360.541 312.555 360.72 c 0
 298.22 363.268 289.617 368.036 281.015 380.76 c 1
 275.28 380.76 l 1
EndSplineSet
MinimumDistance: x43,-1 
EndChar
StartChar: r
Encoding: 114 114
Width: 263
Flags: W
VStem: 48.1263 51.2555<146 198>
Fore
47.2891 318.859 m 1
 47.9756 234.3 53.4541 146.606 40.5518 62.46 c 0
 39.1025 52.8447 34.1758 45.5459 25.2715 41.959 c 0
 17.0752 38.6533 0.818359 41.3076 2.30078 27.2051 c 0
 3.97363 11.1797 24.1875 16.6006 34.0957 12.5098 c 0
 40.0918 10.0371 44.1514 2.90723 50.96 2.1123 c 0
 59.8389 1.00488 66.8223 11.1797 75.5264 13.0889 c 0
 91.7715 15.9805 108.875 10.8701 125.724 14.0283 c 0
 132.633 15.3232 140.746 16.9697 144 24 c 0
 149.688 36.8193 126.612 38.0625 120.11 42.8916 c 0
 110.039 50.2842 104.653 63.3428 102.119 75.2793 c 0
 98.1113 94.1621 100.226 110.535 99.8184 129.765 c 0
 99.1104 161.814 96.3867 202.337 107.652 233.558 c 0
 112.209 246.184 121.449 259.279 128.319 270.785 c 0
 139.307 289.183 163.377 321.392 188.293 318.181 c 0
 201.554 316.466 197.494 299.163 207.954 295.63 c 0
 223.838 290.015 218.458 320.544 214.558 326.976 c 0
 204.164 343.792 188.477 340.521 172.789 335.495 c 0
 138.276 324.478 126.763 295.589 100.627 273.989 c 1
 103.765 328.475 l 1
 119.286 329.179 126.558 338.882 128.864 354.114 c 1
 88.0771 350.91 l 1
 81.8018 370.14 l 1
 73.2959 365.423 70.1465 355.727 62.0391 350.91 c 0
 53.0156 346.337 41.8291 352.5 32.3311 347.705 c 0
 11.8086 338.09 36.3232 321.548 47.2891 318.859 c 1
EndSplineSet
MinimumDistance: x11,-1 
EndChar
StartChar: s
Encoding: 115 115
Width: 316
Flags: W
HStem: 4.10233 21.6644<128 143>
VStem: 4.32227 106.36<106 111> 194.045 50.9221<106 118 120 121>
Fore
161.538 347.212 m 1
 175.594 347.212 215.351 345.858 209.566 323.832 c 0
 206.15 311.379 175.885 303.792 194.985 289.107 c 0
 209.359 277.669 236.875 288.279 253.223 291.417 c 0
 260.751 292.881 268.967 297.111 264.952 305.944 c 0
 261.417 313.283 251.226 317.151 246.643 323.832 c 0
 242.106 329.996 239.973 337.133 234.871 342.606 c 0
 222.27 356.126 198.278 366.557 179.476 369.062 c 0
 141.113 373.932 90.4609 345.509 87.3037 307.132 c 0
 82.6133 255.183 140.97 223.632 171.067 190.102 c 0
 200.955 156.649 200.583 96.7119 180.67 59.9717 c 0
 176.512 52.2744 173.306 41.7256 166.618 35.6006 c 0
 136.426 8.12012 77.5293 37.6514 88.8174 76.623 c 0
 92.1982 88.29 117.381 99.0176 110.683 112.361 c 0
 107.161 119.387 96.9072 119.902 89.7842 119.896 c 0
 67.7266 119.876 47.4668 117.763 25.2129 118.989 c 0
 18.0381 119.381 8.12988 118.953 4.32227 112.11 c 0
 0.90625 105.979 6.66895 101.562 10.8633 98.127 c 0
 23.1562 89.252 34.8057 80.0117 44.4785 69.0391 c 0
 60.4189 50.6885 69.3525 25.8867 91.4551 12.4258 c 0
 112.595 -0.448242 141.624 4.52539 164.985 8.11719 c 0
 177.615 9.87207 191.804 9.23926 201 18 c 0
 255.465 66.6514 260.307 136.437 210.2 190.098 c 0
 192.256 209.316 159.177 224.248 147.013 247.012 c 0
 143.537 253.577 145.058 260.12 144.673 267.052 c 0
 143.601 280.412 138.881 293.508 143.601 307.132 c 0
 149.654 321.425 159.362 331.725 161.538 347.212 c 1
EndSplineSet
EndChar
StartChar: t
Encoding: 116 116
Width: 265
Flags: W
HStem: 335.002 24.6297<41 58> 375.387 22.8085<181 192>
VStem: 79.5312 80.0674<319 336> 199.582 24.8983<359 369>
Fore
22.0479 363.685 m 1
 33.5449 367.362 l 1
 25.8799 385.75 l 1
 41.209 411.492 l 1
 9.51172 415.791 -12.4414 370.289 9.01758 347.132 c 0
 26.7266 327.943 56.5381 337.008 79.5312 337.942 c 1
 79.5312 280.144 77.2217 222.654 75.6982 165.1 c 0
 75.0996 139.357 72.5889 113.467 71.8662 87.8721 c 0
 71.8662 79.4717 75.2236 70.4941 73.8271 62.1299 c 0
 69.9619 39.1133 25.3301 37.54 31.1533 10.6445 c 0
 34.6152 -4.72656 57.6494 0.739258 69.6025 -0.40918 c 0
 94.8594 -2.84082 117.853 1.94629 143.05 2.39844 c 0
 163.798 2.7793 174.28 -5.74609 183 18 c 1
 160.007 34.6562 151.837 58.3115 145.576 84.1943 c 0
 130.558 146.339 152.342 205.552 156.024 268.069 c 0
 157.155 290.135 159.314 312.199 159.599 334.89 c 0
 159.726 344.736 157.398 357.206 163.753 365.778 c 0
 169.905 374.081 186.832 379.504 196.304 372.788 c 0
 208.684 363.685 186.293 341.559 203.418 334.265 c 0
 222.875 326.651 228.735 371.039 223.769 381.907 c 0
 211.988 406.493 182.023 396.782 160.007 396.782 c 1
 156.175 499.752 l 1
 160.808 551.237 l 1
 166.619 580.657 l 1
 160.007 639.497 l 1
 172.502 687.305 l 1
 172.896 713.047 l 1
 182.723 749.754 l 1
 209.825 790.274 l 1
 174.875 793.952 140.846 792.685 106.356 793.952 c 0
 92.5801 794.652 74.9805 801.307 64.2021 789.104 c 0
 45.041 766.048 83.3633 755.981 85.2266 735.044 c 0
 85.7695 727.656 83.3633 720.402 84.9531 713.047 c 0
 86.7129 701.741 92.2549 690.982 92.6143 679.949 c 0
 93.9053 637.608 90.2529 593.417 86.585 551.237 c 0
 82.6182 505.649 87.1504 460.381 83.3633 414.545 c 0
 82.4766 401.347 84.8604 374.717 73.5918 365.56 c 0
 59.3105 353.689 38.1104 360.007 22.0479 363.685 c 1
EndSplineSet
MinimumDistance: x19,-1 
EndChar
StartChar: u
Encoding: 117 117
Width: 307
Flags: W
HStem: 2.02954 23.3147<105 114> 84.7129 270.17<197 201>
DStem: 0 341.987 15.4629 335.713 18.5547 326.3 18.5547 326.3
Fore
0 341.987 m 1
 18.5547 326.3 l 1
 15.4629 335.713 l 1
 45.4297 324.535 28.4727 281.266 30.4111 257.275 c 0
 34.9053 201.719 35.9561 146.47 42.4102 90.9873 c 0
 45.1494 67.4414 42.5215 43.9248 58.7578 25.0996 c 0
 95.5771 -16.6553 146.169 4.13672 177.109 40.7871 c 0
 188.643 54.7773 196.963 65.8877 197.92 84.7129 c 1
 201.013 84.7129 l 1
 207.197 61.6191 213.383 42.0986 232.822 26.0898 c 0
 248.647 12.5498 263.717 25.8047 259.77 43.9248 c 1
 227.595 39.2432 217.623 94.8057 216.475 119.225 c 0
 215.826 137.633 221.648 154.427 222.539 172.562 c 0
 224.734 217.204 222.219 262.398 238.781 304.338 c 0
 245.682 321.805 261.207 331.913 269.048 348.263 c 1
 240.457 357.675 215.307 355.613 186.075 354.409 c 0
 174.971 353.949 159.864 356.247 156.029 341.534 c 0
 153.616 332.284 163.794 326.202 167.562 319.005 c 0
 173.062 308.492 176.272 293.954 179.103 282.375 c 0
 183.236 264.53 182.168 246.291 183.092 228.14 c 0
 184.472 200.8 184.768 174.483 181.144 147.463 c 0
 177.804 122.362 168.402 102.257 162.522 78.4375 c 0
 159.907 67.8389 161.604 56.4746 155.422 47.0625 c 0
 138.951 21.7178 107.703 20.4883 83.4971 31.375 c 1
 86.5898 47.0625 82.3076 56.4746 78.9492 72.1621 c 0
 76.1016 84.7129 75.3857 99.7842 74.2197 112.95 c 0
 70.9375 165.678 74.2197 220.253 76.5244 272.963 c 0
 77.1738 291.027 75.8477 309.562 84.1104 326.132 c 0
 88.209 334.353 102.053 343.624 99.7305 353.686 c 0
 95.3027 370.933 74.2197 368.396 61.8496 366.68 c 0
 39.6709 363.708 2.51562 374.062 0 341.987 c 1
EndSplineSet
MinimumDistance: x1,-1 
EndChar
StartChar: v
Encoding: 118 118
Width: 349
Flags: W
DStem: 252.269 371.06 252.269 371.06 219.241 363.532 279.291 366.715 252.269 371.06 279.291 366.715 219.241 363.532 300.309 359.632
Fore
54.1035 360.35 m 1
 44.5156 359.299 14.2764 360.182 12.5967 347.222 c 0
 10.585 331.707 28.7441 336.851 36.0889 333.352 c 0
 51.1016 326.595 60.0146 311.922 65.3574 296.7 c 0
 74.4795 270.715 78.124 243.402 86.3662 217.138 c 0
 99.1416 174.521 114.957 132.997 126.164 89.8369 c 0
 131.588 70.459 136.514 51.6475 142.393 32.5527 c 0
 144.179 25.4629 145.199 14.2061 151.723 9.7373 c 0
 161.678 2.91797 172.638 21.5068 180.209 26.1875 c 1
 186.214 54.8301 l 1
 186.214 58.0127 l 1
 196.471 121.662 l 1
 237.256 255.327 l 1
 256.177 309.43 l 1
 288.24 343.71 l 1
 300.309 359.632 l 1
 279.291 366.715 l 1
 252.269 371.06 l 1
 219.241 363.532 l 1
 211.298 375.398 200.578 371.762 189.216 366.715 c 1
 189.216 360.35 l 1
 196.816 355.38 205.396 350.803 211.137 343.39 c 0
 222.244 328.524 219.241 314.241 220.481 297.24 c 0
 222.244 255.06 201.129 218.986 189.838 178.947 c 0
 182.924 154.413 181.335 118.479 165.196 99.3848 c 1
 159.789 169.399 125.788 232.425 110.395 299.882 c 0
 108.148 309.085 105.146 322.16 110.882 330.71 c 0
 115.323 337.721 132.169 341.05 125.902 352.667 c 0
 118.467 365.714 90.1338 360.35 78.124 360.35 c 1
 73.9893 375.33 57.915 375.666 54.1035 360.35 c 1
EndSplineSet
MinimumDistance: x15,-1 
EndChar
StartChar: w
Encoding: 119 119
Width: 523
Flags: W
DStem: 28.8447 338 86.5352 321.75 66.3945 237.25 118.585 234 97.9307 146.25 144.225 159.25 132.764 68.25 189.095 48.75 132.764 68.25 144.225 159.25 155.921 12.667 189.095 48.75 310.885 360.359 310.885 360.359 290.856 358.662 362.165 357.5
Fore
22.4346 367.25 m 1
 16.0254 357.094 2.16602 355.446 -2.6416 346.156 c 0
 -11.8242 328.25 22.4346 336.035 28.8447 338 c 1
 66.3945 237.25 l 1
 97.9307 146.25 l 1
 132.764 68.25 l 1
 155.921 12.667 l 1
 176.275 6.5 l 1
 195.157 3.25 l 1
 217.94 37.623 l 1
 228.525 68.25 l 1
 259.605 149.5 l 1
 276.612 117 290.274 82.7197 303.837 48.75 c 0
 307.68 38.4004 314.077 17.7227 326.91 15.9932 c 0
 335.238 14.9355 342.388 22.375 345.139 29.25 c 0
 347.931 36.3652 346.14 44.6172 347.386 52 c 0
 349.345 66.1523 353.724 80.6123 358.056 94.25 c 0
 380.269 164.15 398.493 235.188 435.88 298.952 c 0
 448.478 319.561 473.451 318.5 483.955 341.25 c 1
 469.626 345.547 450.891 347.75 435.88 347.067 c 0
 423.63 346.376 411.989 339.647 403.83 351 c 1
 394.215 351 l 1
 388.976 334.75 399.264 334.093 406.018 321.331 c 0
 410.158 313.508 410.24 304.18 408.196 295.75 c 0
 400.606 266.5 383.017 239.094 371.78 211.25 c 0
 355.755 171.679 344.819 128.842 333.32 87.75 c 1
 296.785 182 l 1
 287.133 221 l 1
 336.525 341.25 l 1
 349.345 342.25 355.755 345.475 362.165 357.5 c 1
 310.885 360.359 l 1
 290.856 358.662 l 1
 298.744 321.75 l 1
 275.63 247 l 1
 269.22 247 l 1
 248.826 295.75 l 1
 237.918 325 l 1
 249.99 357.5 l 1
 229.846 361.293 212.456 359.255 192.3 357.5 c 0
 169.865 356.174 150.635 359.785 137.815 338 c 1
 185.89 331.5 l 1
 191.437 307.214 205.12 291.291 216.356 269.75 c 0
 222.778 256.75 223.523 243.595 228.679 230.75 c 0
 233.952 217.617 243.558 205.55 246.785 191.75 c 0
 250.613 177.08 242.835 162.5 238.087 149.5 c 0
 226.435 116.619 215.455 72.582 189.095 48.75 c 1
 144.225 159.25 l 1
 132.144 194.74 l 1
 121.79 213.7 l 1
 118.585 234 l 1
 86.5352 321.75 l 1
 92.9453 338 l 1
 98.8984 338 105.765 337.65 111.107 341.25 c 0
 118.156 346.331 116.269 354.072 108.479 356.469 c 0
 91.0918 361.813 69.3115 359.668 51.2803 360.75 c 0
 41.3711 361.616 32.0498 365.238 22.4346 367.25 c 1
EndSplineSet
MinimumDistance: x29,-1 
EndChar
StartChar: x
Encoding: 120 120
Width: 514
Flags: W
DStem: 266.815 160.17 288.745 183.26 302.126 130.9 330.081 137.445 354.535 71.9951 330.081 137.445 391.085 32.7246 421.514 47.5469 405.705 363.247 405.705 363.247 310.675 356.702 453.22 359.975
Fore
76.7549 346.885 m 1
 87.7197 342.047 101.551 342.382 112.116 337.029 c 0
 146.2 319.733 168.13 293.059 190.991 265.072 c 0
 199.319 254.689 219.3 234.937 217.151 221.143 c 0
 213.425 202.163 185.773 181.499 172.827 166.897 c 0
 147.188 137.445 121.64 108.562 97.625 78.54 c 0
 84.8789 62.1777 70.9404 47.4863 62.1348 29.4521 c 1
 58.4805 29.4521 l 1
 62.1348 39.2695 l 1
 58.4805 42.543 l 1
 36.5498 32.6289 7.30957 22.0605 0 0 c 1
 34.9082 -6.79785 72.2217 4.64355 105.995 9.81738 c 0
 132.836 14.8096 152.025 4.29883 164.475 32.7246 c 1
 135.235 39.2695 l 1
 230.122 130.9 l 1
 266.815 160.17 l 1
 302.126 130.9 l 1
 354.535 71.9951 l 1
 391.085 32.7246 l 1
 350.88 29.4521 l 1
 336.26 13.0898 l 1
 344.73 -4.43555 l 1
 387.43 5.20312 l 1
 423.98 -1.26855 l 1
 453.206 9.74121 l 1
 475.15 20.4688 l 1
 467.283 32.2393 l 1
 421.514 47.5469 l 1
 330.081 137.445 l 1
 288.745 183.26 l 1
 288.745 186.532 l 1
 388.473 301.07 l 1
 434.945 337.067 l 1
 453.22 359.975 l 1
 405.705 363.247 l 1
 310.675 356.702 l 1
 321.64 333.795 l 1
 350.88 346.885 l 1
 271.565 270.976 l 1
 237.575 249.385 l 1
 215.645 271.617 l 1
 179.095 330.522 l 1
 197.98 336.278 216.884 341.615 222.955 359.975 c 1
 131.58 359.975 l 1
 95.0303 364.126 l 1
 76.7549 346.885 l 1
EndSplineSet
MinimumDistance: x24,-1 
EndChar
StartChar: y
Encoding: 121 121
Width: 682
Flags: W
VStem: 15.0934 169.867<-327 -325>
Fore
320.79 50.248 m 1
 289.491 124.998 l 1
 262.674 196.498 l 1
 216.75 284.248 l 1
 208.08 326.498 l 1
 215 327.215 247.126 334.613 232.219 349.159 c 0
 225.968 355.26 212.824 352.219 205.19 353.051 c 0
 193.362 354.336 182.07 358.998 170.51 360.737 c 0
 161.211 361.994 151.045 360.664 141.61 361.042 c 0
 132.94 361.385 119.137 360.309 116.286 348.908 c 0
 113.963 339.498 121.275 334.61 127.16 330.475 c 0
 134.603 325.444 142.175 319.62 150.28 316.348 c 0
 158.033 313.219 166.26 313.457 173.389 308.287 c 0
 189.202 296.819 197.133 275.694 206.488 258.248 c 0
 220.986 231.22 236.512 205.594 248.54 176.998 c 0
 262.925 143.13 275.078 107.387 288.594 72.998 c 0
 293.321 60.9785 303.092 44.4844 300.56 30.748 c 0
 299.123 20.9316 291.249 12.4951 286.11 4.74805 c 0
 271.66 -16.3799 256.329 -35.8008 242.424 -57.002 c 0
 206.085 -112.417 166.782 -164.77 129.757 -219.502 c 0
 104.534 -256.791 78.0098 -299.457 34.6797 -310.502 c 1
 37.5703 -300.752 l 1
 25.0361 -308.039 2.49512 -330.002 23.1201 -343.614 c 0
 28.7529 -347.077 34.3418 -345.106 39.9688 -345.643 c 0
 47.9307 -346.398 54.7354 -350.498 60.6904 -356.002 c 2
 63.5801 -356.002 l 1
 63.5801 -343.002 l 1
 95.3701 -339.752 l 1
 98.2598 -349.502 l 1
 119.769 -339.978 135.72 -336.639 158.95 -336.502 c 0
 167.298 -336.502 179.857 -337.664 184.96 -328.656 c 0
 189.428 -321.753 184.43 -317.002 178.966 -314.222 c 0
 169.635 -309.902 150.816 -307.363 153.17 -291.002 c 0
 155.061 -279.104 167.459 -268.252 173.4 -258.502 c 0
 192.106 -231.156 207.202 -199.015 231.2 -177.252 c 1
 235.856 -144.082 269.383 -113.607 288.176 -89.502 c 0
 333.168 -31.7949 386.588 25.4414 416.16 95.748 c 1
 424.83 92.498 l 1
 444.058 120.882 466.695 146.459 487.14 173.748 c 0
 509.405 202.998 529.474 234.638 554.88 261.206 c 0
 571.204 277.748 589.479 293.493 606.511 309.695 c 0
 616.496 319.195 627.678 328.608 632.898 342.697 c 0
 639.977 361.811 618.46 364.756 606.9 365.371 c 0
 591.445 366.158 578.542 362.048 563.55 359.678 c 0
 551.99 357.896 542.569 358.183 531.76 353.371 c 0
 525.049 350.385 515.588 347.702 510.897 341.092 c 0
 499.97 325.835 522.56 313.143 515.264 297.235 c 0
 501.415 267.053 468.18 244.557 448.771 219.248 c 0
 423.01 186.336 397.355 152.582 372.81 118.206 c 0
 356.926 95.1797 342.233 67.377 320.79 50.248 c 1
EndSplineSet
MinimumDistance: x30,-1 
EndChar
StartChar: z
Encoding: 122 122
Width: 367
Flags: W
Fore
33.6631 242.75 m 1
 63.4238 254.41 47.9551 297.686 72.5625 318.383 c 0
 94.3535 337 117.474 333.75 143.483 335.502 c 0
 173.253 336.914 203.262 339.559 233.073 340.25 c 1
 174 246 l 1
 105.913 168 l 1
 47.7803 86.458 l 1
 5.27734 21.75 l 1
 -1.41992 -1 l 1
 30.6602 1.19629 l 1
 111.693 5.5 l 1
 155.043 13.4316 l 1
 195.503 21.75 l 1
 198.3 12 206.617 -1.12402 218.623 2.25 c 0
 224.403 3.93555 229.848 11.0156 235.963 12 c 0
 241.193 12.8379 235.963 6.6582 235.963 5.5 c 2
 247.523 5.5 l 1
 285.093 23.4824 l 1
 289.256 54.25 l 1
 293.216 99.7344 l 1
 285.093 117.181 l 1
 272.509 90 l 1
 241.21 45.0684 l 1
 201.283 42.2119 l 1
 82.793 31.5 l 1
 120.318 75.5938 155.043 121.91 190.844 167.698 c 0
 208.83 190.712 228.253 212.091 245.155 236.25 c 0
 256.193 252.5 262.995 273.171 275.419 288.244 c 0
 285.093 299.983 290.695 307.474 299.543 291.5 c 1
 312.461 307.75 317.989 328.184 319.773 350 c 1
 283.62 362.715 249.947 358.455 212.843 356.5 c 0
 176.165 354.821 139.504 354.855 102.979 354.694 c 0
 86.3379 354.624 70.8018 359.363 53.8936 358.417 c 0
 46.9199 358.026 38.1221 359.75 32.5146 354.04 c 0
 24.9932 346.341 27.8838 330.5 29.1084 320.75 c 0
 32.2178 294.1 24.9932 268.363 33.6631 242.75 c 1
EndSplineSet
EndChar
StartChar: braceleft
Encoding: 123 123
Width: 241
Flags: W
HStem: 768.6 29.4004<139.17 162>
VStem: 11.4984 57.8179<-64.7343 -25.2444> 49.648 54.4423<639.031 676.567> 64.2783 57.7673<271 272>
Fore
177 765 m 1
 162 798 l 1
 156.18 798 119.202 801.218 113.629 799.2 c 0
 80.8154 789.269 65.543 748.136 56.3242 712.8 c 0
 31.084 615.6 85.8594 525.136 78.6406 428.26 c 0
 76.8848 404.708 73.0088 375.359 60.2236 357.078 c 0
 49.2969 341.961 32.2686 340.439 26.4482 320.4 c 1
 37.0459 315.246 54.2305 321.539 60.9199 309.052 c 0
 66.3926 298.8 64.9639 284.154 64.2783 272.56 c 0
 63.6904 240.715 55.0342 213.508 46.8184 183.6 c 0
 39.1514 153.784 35.1787 123.957 29.3584 93.5996 c 0
 20.373 42.5 7.80957 -11.8936 12.4043 -64.7998 c 0
 14.8086 -93.5996 23.209 -129.628 40.2715 -149.92 c 0
 55.5488 -168.212 115.627 -162.148 121.71 -138.6 c 1
 100.462 -146.032 90.7266 -128.225 80.877 -106.2 c 0
 60.6016 -61.626 71.8994 -12.6318 78.0605 34.1992 c 0
 82.7354 66.5996 86.5234 99 93.8516 131.4 c 0
 103.177 171.862 116.714 211.862 120.878 253.8 c 0
 122.353 268.2 123.001 285.947 120.159 300.6 c 0
 118.272 310.338 111.027 320.787 111.911 330.926 c 0
 112.922 342.432 121.065 354.558 124.433 365.4 c 0
 130.966 386.448 134.352 407.662 134.985 430.2 c 0
 135.789 459 132.989 492.276 127.076 520.2 c 0
 118.801 559.181 105.808 598.289 104.251 639 c 0
 103.418 665.68 105.19 693 112.98 718.2 c 0
 117.465 730.779 124.072 741.262 127.531 754.2 c 1
 139.17 768.6 l 1
 150.811 768.6 170.852 751.211 177 765 c 1
EndSplineSet
MinimumDistance: x13,-1 
EndChar
StartChar: bar
Encoding: 124 124
Width: 292
Flags: W
VStem: 72.5591 83.3408<402.654 510.084>
Fore
108.622 797.873 m 5
 108.622 797.873 l 5
 84.457 797.873 59.501 801.34 35.6377 806.302 c 4
 29.7246 807.533 13.8496 813.422 12.1523 800.979 c 4
 10.2637 787.176 29.9775 768.099 35.6377 757.949 c 4
 53.793 725.997 76.627 690.057 75.3174 648.543 c 4
 72.7393 566.787 74.709 484.451 72 402.585 c 4
 68.0732 283.856 55.542 166.145 58.8604 46.8252 c 4
 58.8604 30.1523 64.4648 15.041 65.3164 -1.48828 c 4
 67.1797 -37.6719 61.2217 -76.1533 65.4951 -111.291 c 5
 55.542 -115.683 l 5
 62.1777 -156.837 35.2842 -148.079 14.7998 -160.217 c 4
 9.79688 -163.181 0.0292969 -165.188 -1.11719 -173.917 c 4
 -2.45215 -184.065 6.34375 -188.227 12.1816 -189.345 c 4
 27.6582 -192.317 47.1064 -184.684 61.6914 -193 c 4
 69.6934 -197.563 71.3301 -215.054 79.374 -217.049 c 4
 86.9746 -218.933 99.46 -201.056 108.622 -199.133 c 5
 135.162 -194.741 l 5
 135.162 -194.741 130.827 -215.157 135.162 -194.741 c 5
 149.91 -199.133 169.543 -193.291 184.562 -190.349 c 4
 189.869 -188.436 195.516 -185.957 195.7 -177.172 c 4
 196.034 -162.104 178.957 -150.819 171.655 -142.035 c 4
 155.067 -121.031 140.304 -94.25 139.352 -62.9775 c 4
 135.162 56.9814 152.796 176.911 155.019 297.175 c 4
 156.895 398.193 153.855 499.212 161.139 600.229 c 4
 163.465 632.415 160.484 670.139 166.908 701.248 c 4
 170.942 720.793 182.284 743.126 194.877 753.952 c 4
 209.106 766.944 219.72 765.036 224.735 789.09 c 5
 211.465 793.481 199.227 790.235 186.004 793.104 c 4
 178.29 794.765 172.504 802.267 164.712 803.506 c 4
 155.906 804.707 147.396 797.873 138.479 800.031 c 4
 121.763 803.458 138.479 782.462 138.479 800.031 c 5
 108.622 797.873 l 5
EndSplineSet
MinimumDistance: x23,-1 
EndChar
